{
copyright = "Copyright (c) 2015, Cadson Demak (info@cadsondemak.com)";
customParameters = (
{
name = vendorID;
value = CDK;
},
{
name = description;
value = "Copyright (c) 2015, Cadson Demak (info@cadsondemak.com)";
},
{
name = license;

glyphs = (
{
glyphname = A;
lastChange = "2015-10-23 06:14:17 +0000";
layers = (
{
layerId = "098F4D9A-293F-4750-B0F4-D0E702B92EEF";
name = "Bold Italic";
paths = (
{
closed = 1;
nodes = (
"234 0 LINE",
"305 120 LINE",
"461 120 LINE",
"482 0 LINE",
"722 0 LINE",
"610 644 LINE",
"359 644 LINE",
"-25 0 LINE"
);
},
{
closed = 1;
nodes = (
"441 408 LINE",
"464 285 LINE",
"366 285 LINE"
);
}
);
width = 777;
}
);
leftKerningGroup = A;
note = A;
rightKerningGroup = A;
unicode = 0041;
},
{
glyphname = Aacute;
lastChange = "2015-10-23 06:14:17 +0000";
layers = (
{
layerId = "098F4D9A-293F-4750-B0F4-D0E702B92EEF";
name = "Bold Italic";
paths = (
{
closed = 1;
nodes = (
"234 0 LINE",
"305 120 LINE",
"461 120 LINE",
"482 0 LINE",
"722 0 LINE",
"610 644 LINE",
"359 644 LINE",
"-25 0 LINE"
);
},
{
closed = 1;
nodes = (
"441 408 LINE",
"464 285 LINE",
"366 285 LINE"
);
},
{
closed = 1;
nodes = (
"579 688 LINE",
"732 914 LINE",
"546 914 LINE",
"402 688 LINE"
);
}
);
width = 777;
}
);
leftKerningGroup = A;
note = Aacute;
rightKerningGroup = A;
unicode = 00C1;
},
{
glyphname = Abreve;
lastChange = "2015-10-23 07:09:38 +0000";
layers = (
{
layerId = "098F4D9A-293F-4750-B0F4-D0E702B92EEF";
name = "Bold Italic";
paths = (
{
closed = 1;
nodes = (
"234 0 LINE",
"305 120 LINE",
"461 120 LINE",
"482 0 LINE",
"722 0 LINE",
"610 644 LINE",
"359 644 LINE",
"-25 0 LINE"
);
},
{
closed = 1;
nodes = (
"441 408 LINE",
"464 285 LINE",
"366 285 LINE"
);
},
{
closed = 1;
nodes = (
"627 688 OFFCURVE",
"730 765 OFFCURVE",
"761 908 CURVE",
"599 908 LINE",
"589 863 OFFCURVE",
"565 820 OFFCURVE",
"514 820 CURVE SMOOTH",
"477 820 OFFCURVE",
"464 844 OFFCURVE",
"464 875 CURVE SMOOTH",
"464 885 OFFCURVE",
"465 897 OFFCURVE",
"468 908 CURVE",
"321 908 LINE",
"316 886 OFFCURVE",
"314 865 OFFCURVE",
"314 846 CURVE SMOOTH",
"314 743 OFFCURVE",
"382 688 OFFCURVE",
"493 688 CURVE SMOOTH"
);
}
);
width = 777;
}
);
leftKerningGroup = A;
note = Abreve;
rightKerningGroup = A;
unicode = 0102;
},
{
glyphname = Abreveacute;
lastChange = "2015-10-23 07:09:38 +0000";
layers = (
{
layerId = "098F4D9A-293F-4750-B0F4-D0E702B92EEF";
name = "Bold Italic";
paths = (
{
closed = 1;
nodes = (
"234 0 LINE",
"305 120 LINE",
"461 120 LINE",
"482 0 LINE",
"722 0 LINE",
"610 644 LINE",
"359 644 LINE",
"-25 0 LINE"
);
},
{
closed = 1;
nodes = (
"441 408 LINE",
"464 285 LINE",
"366 285 LINE"
);
},
{
closed = 1;
nodes = (
"616 688 OFFCURVE",
"706 747 OFFCURVE",
"734 876 CURVE",
"593 876 LINE",
"584 836 OFFCURVE",
"564 805 OFFCURVE",
"512 805 CURVE SMOOTH",
"476 805 OFFCURVE",
"460 821 OFFCURVE",
"460 850 CURVE SMOOTH",
"460 857 OFFCURVE",
"462 866 OFFCURVE",
"464 876 CURVE",
"337 876 LINE",
"333 858 OFFCURVE",
"331 841 OFFCURVE",
"331 825 CURVE SMOOTH",
"331 732 OFFCURVE",
"401 688 OFFCURVE",
"495 688 CURVE SMOOTH"
);
},
{
closed = 1;
nodes = (
"619 895 LINE",
"737 1067 LINE",
"582 1067 LINE",
"471 895 LINE"
);
}
);
width = 777;
}
);
leftKerningGroup = A;
note = Abreveacute;
rightKerningGroup = A;
unicode = 1EAE;
},
{
glyphname = Abrevedotbelow;
lastChange = "2015-10-23 07:09:38 +0000";
layers = (
{
layerId = "098F4D9A-293F-4750-B0F4-D0E702B92EEF";
name = "Bold Italic";
paths = (
{
closed = 1;
nodes = (
"234 0 LINE",
"305 120 LINE",
"461 120 LINE",
"482 0 LINE",
"722 0 LINE",
"610 644 LINE",
"359 644 LINE",
"-25 0 LINE"
);
},
{
closed = 1;
nodes = (
"381 -213 LINE",
"411 -72 LINE",
"255 -72 LINE",
"225 -213 LINE"
);
},
{
closed = 1;
nodes = (
"441 408 LINE",
"464 285 LINE",
"366 285 LINE"
);
},
{
closed = 1;
nodes = (
"627 688 OFFCURVE",
"730 765 OFFCURVE",
"761 908 CURVE",
"599 908 LINE",
"589 863 OFFCURVE",
"565 820 OFFCURVE",
"514 820 CURVE SMOOTH",
"477 820 OFFCURVE",
"464 844 OFFCURVE",
"464 875 CURVE SMOOTH",
"464 885 OFFCURVE",
"465 897 OFFCURVE",
"468 908 CURVE",
"321 908 LINE",
"316 886 OFFCURVE",
"314 865 OFFCURVE",
"314 846 CURVE SMOOTH",
"314 743 OFFCURVE",
"382 688 OFFCURVE",
"493 688 CURVE SMOOTH"
);
}
);
width = 777;
}
);
leftKerningGroup = A;
note = Abrevedotbelow;
rightKerningGroup = A;
unicode = 1EB6;
},
{
glyphname = Abrevegrave;
lastChange = "2015-10-23 07:09:39 +0000";
layers = (
{
layerId = "098F4D9A-293F-4750-B0F4-D0E702B92EEF";
name = "Bold Italic";
paths = (
{
closed = 1;
nodes = (
"234 0 LINE",
"305 120 LINE",
"461 120 LINE",
"482 0 LINE",
"722 0 LINE",
"610 644 LINE",
"359 644 LINE",
"-25 0 LINE"
);
},
{
closed = 1;
nodes = (
"441 408 LINE",
"464 285 LINE",
"366 285 LINE"
);
},
{
closed = 1;
nodes = (
"616 688 OFFCURVE",
"706 747 OFFCURVE",
"734 876 CURVE",
"593 876 LINE",
"584 836 OFFCURVE",
"564 805 OFFCURVE",
"512 805 CURVE SMOOTH",
"476 805 OFFCURVE",
"460 821 OFFCURVE",
"460 850 CURVE SMOOTH",
"460 857 OFFCURVE",
"462 866 OFFCURVE",
"464 876 CURVE",
"337 876 LINE",
"333 858 OFFCURVE",
"331 841 OFFCURVE",
"331 825 CURVE SMOOTH",
"331 732 OFFCURVE",
"401 688 OFFCURVE",
"495 688 CURVE SMOOTH"
);
},
{
closed = 1;
nodes = (
"608 895 LINE",
"569 1067 LINE",
"413 1067 LINE",
"460 895 LINE"
);
}
);
width = 777;
}
);
leftKerningGroup = A;
note = Abrevegrave;
rightKerningGroup = A;
unicode = 1EB0;
},
{
glyphname = Abrevehookabove;
lastChange = "2015-10-23 07:09:39 +0000";
layers = (
{
layerId = "098F4D9A-293F-4750-B0F4-D0E702B92EEF";
name = "Bold Italic";
paths = (
{
closed = 1;
nodes = (
"234 0 LINE",
"305 120 LINE",
"461 120 LINE",
"482 0 LINE",
"722 0 LINE",
"610 644 LINE",
"359 644 LINE",
"-25 0 LINE"
);
},
{
closed = 1;
nodes = (
"441 408 LINE",
"464 285 LINE",
"366 285 LINE"
);
},
{
closed = 1;
nodes = (
"616 688 OFFCURVE",
"706 747 OFFCURVE",
"734 876 CURVE",
"593 876 LINE",
"584 836 OFFCURVE",
"564 805 OFFCURVE",
"512 805 CURVE SMOOTH",
"476 805 OFFCURVE",
"460 821 OFFCURVE",
"460 850 CURVE SMOOTH",
"460 857 OFFCURVE",
"462 866 OFFCURVE",
"464 876 CURVE",
"337 876 LINE",
"333 858 OFFCURVE",
"331 841 OFFCURVE",
"331 825 CURVE SMOOTH",
"331 732 OFFCURVE",
"401 688 OFFCURVE",
"495 688 CURVE SMOOTH"
);
},
{
closed = 1;
nodes = (
"617 896 LINE",
"623 923 LINE",
"677 939 OFFCURVE",
"701 963 OFFCURVE",
"711 1009 CURVE SMOOTH",
"712 1015 OFFCURVE",
"713 1020 OFFCURVE",
"713 1026 CURVE SMOOTH",
"713 1069 OFFCURVE",
"675 1101 OFFCURVE",
"601 1101 CURVE SMOOTH",
"559 1101 OFFCURVE",
"511 1095 OFFCURVE",
"483 1088 CURVE",
"465 1006 LINE",
"479 1011 OFFCURVE",
"499 1017 OFFCURVE",
"516 1017 CURVE SMOOTH",
"542 1017 OFFCURVE",
"555 1013 OFFCURVE",
"555 998 CURVE SMOOTH",
"555 977 OFFCURVE",
"531 961 OFFCURVE",
"473 959 CURVE",
"460 896 LINE"
);
}
);
width = 777;
}
);
leftKerningGroup = A;
note = Abrevehookabove;
rightKerningGroup = A;
unicode = 1EB2;
},
{
glyphname = Abrevetilde;
lastChange = "2015-10-23 07:09:39 +0000";
layers = (
{
layerId = "098F4D9A-293F-4750-B0F4-D0E702B92EEF";
name = "Bold Italic";
paths = (
{
closed = 1;
nodes = (
"234 0 LINE",
"305 120 LINE",
"461 120 LINE",
"482 0 LINE",
"722 0 LINE",
"610 644 LINE",
"359 644 LINE",
"-25 0 LINE"
);
},
{
closed = 1;
nodes = (
"441 408 LINE",
"464 285 LINE",
"366 285 LINE"
);
},
{
closed = 1;
nodes = (
"616 688 OFFCURVE",
"706 747 OFFCURVE",
"734 876 CURVE",
"593 876 LINE",
"584 836 OFFCURVE",
"564 805 OFFCURVE",
"512 805 CURVE SMOOTH",
"476 805 OFFCURVE",
"460 821 OFFCURVE",
"460 850 CURVE SMOOTH",
"460 857 OFFCURVE",
"462 866 OFFCURVE",
"464 876 CURVE",
"337 876 LINE",
"333 858 OFFCURVE",
"331 841 OFFCURVE",
"331 825 CURVE SMOOTH",
"331 732 OFFCURVE",
"401 688 OFFCURVE",
"495 688 CURVE SMOOTH"
);
},
{
closed = 1;
nodes = (
"683 901 OFFCURVE",
"725 917 OFFCURVE",
"740 934 CURVE",
"766 1059 LINE",
"747 1038 OFFCURVE",
"709 1020 OFFCURVE",
"665 1020 CURVE SMOOTH",
"600 1020 OFFCURVE",
"552 1062 OFFCURVE",
"482 1062 CURVE SMOOTH",
"442 1062 OFFCURVE",
"401 1046 OFFCURVE",
"378 1029 CURVE",
"352 904 LINE",
"379 927 OFFCURVE",
"416 943 OFFCURVE",
"460 943 CURVE SMOOTH",
"519 943 OFFCURVE",
"575 901 OFFCURVE",
"643 901 CURVE SMOOTH"
);
}
);
width = 777;
}
);
leftKerningGroup = A;
note = Abrevetilde;
rightKerningGroup = A;
unicode = 1EB4;
},
{
glyphname = Acaron;
lastChange = "2015-10-23 06:14:17 +0000";
layers = (
{
layerId = "098F4D9A-293F-4750-B0F4-D0E702B92EEF";
name = "Bold Italic";
paths = (
{
closed = 1;
nodes = (
"234 0 LINE",
"305 120 LINE",
"461 120 LINE",
"482 0 LINE",
"722 0 LINE",
"610 644 LINE",
"359 644 LINE",
"-25 0 LINE"
);
},
{
closed = 1;
nodes = (
"441 408 LINE",
"464 285 LINE",
"366 285 LINE"
);
},
{
closed = 1;
nodes = (
"564 688 LINE",
"785 904 LINE",
"610 904 LINE",
"511 797 LINE",
"460 904 LINE",
"295 904 LINE",
"424 688 LINE"
);
}
);
width = 777;
}
);
leftKerningGroup = A;
note = Acaron;
rightKerningGroup = A;
unicode = 01CD;
},
{
glyphname = Acircumflex;
lastChange = "2015-10-23 06:14:17 +0000";
layers = (
{
layerId = "098F4D9A-293F-4750-B0F4-D0E702B92EEF";
name = "Bold Italic";
paths = (
{
closed = 1;
nodes = (
"234 0 LINE",
"305 120 LINE",
"461 120 LINE",
"482 0 LINE",
"722 0 LINE",
"610 644 LINE",
"359 644 LINE",
"-25 0 LINE"
);
},
{
closed = 1;
nodes = (
"441 408 LINE",
"464 285 LINE",
"366 285 LINE"
);
},
{
closed = 1;
nodes = (
"429 688 LINE",
"524 795 LINE",
"578 688 LINE",
"739 688 LINE",
"610 904 LINE",
"469 904 LINE",
"249 688 LINE"
);
}
);
width = 777;
}
);
leftKerningGroup = A;
note = Acircumflex;
rightKerningGroup = A;
unicode = 00C2;
},
{
glyphname = Acircumflexacute;
lastChange = "2015-10-23 06:14:17 +0000";
layers = (
{
layerId = "098F4D9A-293F-4750-B0F4-D0E702B92EEF";
name = "Bold Italic";
paths = (
{
closed = 1;
nodes = (
"234 0 LINE",
"305 120 LINE",
"461 120 LINE",
"482 0 LINE",
"722 0 LINE",
"610 644 LINE",
"359 644 LINE",
"-25 0 LINE"
);
},
{
closed = 1;
nodes = (
"441 408 LINE",
"464 285 LINE",
"366 285 LINE"
);
},
{
closed = 1;
nodes = (
"442 688 LINE",
"511 764 LINE",
"551 688 LINE",
"732 688 LINE",
"611 856 LINE",
"436 856 LINE",
"242 688 LINE"
);
},
{
closed = 1;
nodes = (
"826 820 LINE",
"946 992 LINE",
"770 992 LINE",
"659 820 LINE"
);
}
);
width = 777;
}
);
leftKerningGroup = A;
note = Acircumflexacute;
rightKerningGroup = A;
unicode = 1EA4;
},
{
glyphname = Acircumflexdotbelow;
lastChange = "2015-10-23 06:14:17 +0000";
layers = (
{
layerId = "098F4D9A-293F-4750-B0F4-D0E702B92EEF";
name = "Bold Italic";
paths = (
{
closed = 1;
nodes = (
"241 0 LINE",
"312 120 LINE",
"468 120 LINE",
"489 0 LINE",
"729 0 LINE",
"617 644 LINE",
"366 644 LINE",
"-18 0 LINE"
);
},
{
closed = 1;
nodes = (
"388 -213 LINE",
"418 -72 LINE",
"262 -72 LINE",
"232 -213 LINE"
);
},
{
closed = 1;
nodes = (
"448 408 LINE",
"471 285 LINE",
"373 285 LINE"
);
},
{
closed = 1;
nodes = (
"437 688 LINE",
"532 795 LINE",
"586 688 LINE",
"747 688 LINE",
"618 904 LINE",
"477 904 LINE",
"257 688 LINE"
);
}
);
width = 784;
}
);
leftKerningGroup = A;
note = Acircumflexdotbelow;
rightKerningGroup = A;
unicode = 1EAC;
},
{
glyphname = Acircumflexgrave;
lastChange = "2015-10-23 06:14:17 +0000";
layers = (
{
layerId = "098F4D9A-293F-4750-B0F4-D0E702B92EEF";
name = "Bold Italic";
paths = (
{
closed = 1;
nodes = (
"234 0 LINE",
"305 120 LINE",
"461 120 LINE",
"482 0 LINE",
"722 0 LINE",
"610 644 LINE",
"359 644 LINE",
"-25 0 LINE"
);
},
{
closed = 1;
nodes = (
"441 408 LINE",
"464 285 LINE",
"366 285 LINE"
);
},
{
closed = 1;
nodes = (
"380 820 LINE",
"342 992 LINE",
"166 992 LINE",
"212 820 LINE"
);
},
{
closed = 1;
nodes = (
"446 688 LINE",
"518 764 LINE",
"555 688 LINE",
"740 688 LINE",
"619 856 LINE",
"444 856 LINE",
"250 688 LINE"
);
}
);
width = 777;
}
);
leftKerningGroup = A;
note = Acircumflexgrave;
rightKerningGroup = A;
unicode = 1EA6;
},
{
glyphname = Acircumflexhookabove;
lastChange = "2015-10-23 07:09:38 +0000";
layers = (
{
layerId = "098F4D9A-293F-4750-B0F4-D0E702B92EEF";
name = "Bold Italic";
paths = (
{
closed = 1;
nodes = (
"234 0 LINE",
"305 120 LINE",
"461 120 LINE",
"482 0 LINE",
"722 0 LINE",
"610 644 LINE",
"359 644 LINE",
"-25 0 LINE"
);
},
{
closed = 1;
nodes = (
"441 408 LINE",
"464 285 LINE",
"366 285 LINE"
);
},
{
closed = 1;
nodes = (
"446 688 LINE",
"515 764 LINE",
"555 688 LINE",
"736 688 LINE",
"615 856 LINE",
"440 856 LINE",
"246 688 LINE"
);
},
{
closed = 1;
nodes = (
"825 797 LINE",
"832 828 LINE",
"882 837 OFFCURVE",
"911 871 OFFCURVE",
"921 917 CURVE SMOOTH",
"922 922 OFFCURVE",
"923 928 OFFCURVE",
"923 933 CURVE SMOOTH",
"923 976 OFFCURVE",
"885 1009 OFFCURVE",
"811 1009 CURVE SMOOTH",
"761 1009 OFFCURVE",
"721 1004 OFFCURVE",
"694 997 CURVE",
"674 905 LINE",
"688 910 OFFCURVE",
"707 915 OFFCURVE",
"723 915 CURVE SMOOTH",
"743 915 OFFCURVE",
"754 913 OFFCURVE",
"754 903 CURVE SMOOTH",
"754 890 OFFCURVE",
"742 879 OFFCURVE",
"686 877 CURVE",
"669 797 LINE"
);
}
);
width = 777;
}
);
leftKerningGroup = A;
note = Acircumflexhookabove;
rightKerningGroup = A;
unicode = 1EA8;
},
{
glyphname = Acircumflextilde;
lastChange = "2015-10-23 06:14:17 +0000";
layers = (
{
layerId = "098F4D9A-293F-4750-B0F4-D0E702B92EEF";
name = "Bold Italic";
paths = (
{
closed = 1;
nodes = (
"234 0 LINE",
"305 120 LINE",
"461 120 LINE",
"482 0 LINE",
"722 0 LINE",
"610 644 LINE",
"359 644 LINE",
"-25 0 LINE"
);
},
{
closed = 1;
nodes = (
"441 408 LINE",
"464 285 LINE",
"366 285 LINE"
);
},
{
closed = 1;
nodes = (
"449 688 LINE",
"518 764 LINE",
"558 688 LINE",
"739 688 LINE",
"618 856 LINE",
"443 856 LINE",
"249 688 LINE"
);
},
{
closed = 1;
nodes = (
"681 871 OFFCURVE",
"722 887 OFFCURVE",
"738 904 CURVE",
"767 1039 LINE",
"747 1018 OFFCURVE",
"709 1000 OFFCURVE",
"665 1000 CURVE SMOOTH",
"600 1000 OFFCURVE",
"552 1042 OFFCURVE",
"482 1042 CURVE SMOOTH",
"442 1042 OFFCURVE",
"401 1026 OFFCURVE",
"378 1009 CURVE",
"350 874 LINE",
"377 897 OFFCURVE",
"414 913 OFFCURVE",
"458 913 CURVE SMOOTH",
"517 913 OFFCURVE",
"573 871 OFFCURVE",
"641 871 CURVE SMOOTH"
);
}
);
width = 777;
}
);
leftKerningGroup = A;
note = Acircumflextilde;
rightKerningGroup = A;
unicode = 1EAA;
},
{
glyphname = Adieresis;
lastChange = "2015-10-23 06:14:17 +0000";
layers = (
{
layerId = "098F4D9A-293F-4750-B0F4-D0E702B92EEF";
name = "Bold Italic";
paths = (
{
closed = 1;
nodes = (
"234 0 LINE",
"305 120 LINE",
"461 120 LINE",
"482 0 LINE",
"722 0 LINE",
"610 644 LINE",
"359 644 LINE",
"-25 0 LINE"
);
},
{
closed = 1;
nodes = (
"441 408 LINE",
"464 285 LINE",
"366 285 LINE"
);
},
{
closed = 1;
nodes = (
"460 717 LINE",
"490 858 LINE",
"335 858 LINE",
"305 717 LINE"
);
},
{
closed = 1;
nodes = (
"695 717 LINE",
"725 858 LINE",
"569 858 LINE",
"539 717 LINE"
);
}
);
width = 777;
}
);
leftKerningGroup = A;
note = Adieresis;
rightKerningGroup = A;
unicode = 00C4;
},
{
glyphname = Adotbelow;
lastChange = "2015-10-23 06:14:17 +0000";
layers = (
{
layerId = "098F4D9A-293F-4750-B0F4-D0E702B92EEF";
name = "Bold Italic";
paths = (
{
closed = 1;
nodes = (
"234 0 LINE",
"305 120 LINE",
"461 120 LINE",
"482 0 LINE",
"722 0 LINE",
"610 644 LINE",
"359 644 LINE",
"-25 0 LINE"
);
},
{
closed = 1;
nodes = (
"382 -213 LINE",
"412 -72 LINE",
"256 -72 LINE",
"226 -213 LINE"
);
},
{
closed = 1;
nodes = (
"441 408 LINE",
"464 285 LINE",
"366 285 LINE"
);
}
);
width = 777;
}
);
note = Adotbelow;
unicode = 1EA0;
},
{
glyphname = Agrave;
lastChange = "2015-10-23 06:14:17 +0000";
layers = (
{
layerId = "098F4D9A-293F-4750-B0F4-D0E702B92EEF";
name = "Bold Italic";
paths = (
{
closed = 1;
nodes = (
"234 0 LINE",
"305 120 LINE",
"461 120 LINE",
"482 0 LINE",
"722 0 LINE",
"610 644 LINE",
"359 644 LINE",
"-25 0 LINE"
);
},
{
closed = 1;
nodes = (
"441 408 LINE",
"464 285 LINE",
"366 285 LINE"
);
},
{
closed = 1;
nodes = (
"580 688 LINE",
"532 914 LINE",
"346 914 LINE",
"403 688 LINE"
);
}
);
width = 777;
}
);
leftKerningGroup = A;
note = Agrave;
rightKerningGroup = A;
unicode = 00C0;
},
{
glyphname = Ahookabove;
lastChange = "2015-10-23 07:09:38 +0000";
layers = (
{
layerId = "098F4D9A-293F-4750-B0F4-D0E702B92EEF";
name = "Bold Italic";
paths = (
{
closed = 1;
nodes = (
"234 0 LINE",
"305 120 LINE",
"461 120 LINE",
"482 0 LINE",
"722 0 LINE",
"610 644 LINE",
"359 644 LINE",
"-25 0 LINE"
);
},
{
closed = 1;
nodes = (
"441 408 LINE",
"464 285 LINE",
"366 285 LINE"
);
},
{
closed = 1;
nodes = (
"588 688 LINE",
"596 724 LINE",
"657 742 OFFCURVE",
"687 768 OFFCURVE",
"700 828 CURVE SMOOTH",
"701 835 OFFCURVE",
"702 841 OFFCURVE",
"702 848 CURVE SMOOTH",
"702 898 OFFCURVE",
"657 935 OFFCURVE",
"571 935 CURVE SMOOTH",
"513 935 OFFCURVE",
"472 929 OFFCURVE",
"438 920 CURVE",
"418 826 LINE",
"435 832 OFFCURVE",
"456 836 OFFCURVE",
"476 836 CURVE SMOOTH",
"510 836 OFFCURVE",
"525 828 OFFCURVE",
"520 808 CURVE",
"516 788 OFFCURVE",
"493 773 OFFCURVE",
"427 769 CURVE",
"410 688 LINE"
);
}
);
width = 777;
}
);
leftKerningGroup = A;
note = Ahookabove;
rightKerningGroup = A;
unicode = 1EA2;
},
{
glyphname = Amacron;
lastChange = "2015-10-23 06:14:17 +0000";
layers = (
{
layerId = "098F4D9A-293F-4750-B0F4-D0E702B92EEF";
name = "Bold Italic";
paths = (
{
closed = 1;
nodes = (
"234 0 LINE",
"305 120 LINE",
"461 120 LINE",
"482 0 LINE",
"722 0 LINE",
"610 644 LINE",
"359 644 LINE",
"-25 0 LINE"
);
},
{
closed = 1;
nodes = (
"441 408 LINE",
"464 285 LINE",
"366 285 LINE"
);
},
{
closed = 1;
nodes = (
"670 698 LINE",
"700 838 LINE",
"352 838 LINE",
"322 698 LINE"
);
}
);
width = 777;
}
);
leftKerningGroup = A;
note = Amacron;
rightKerningGroup = A;
unicode = 0100;
},
{
glyphname = Aogonek;
lastChange = "2015-10-23 07:09:38 +0000";
layers = (
{
layerId = "098F4D9A-293F-4750-B0F4-D0E702B92EEF";
name = "Bold Italic";
paths = (
{
closed = 1;
nodes = (
"234 0 LINE",
"305 120 LINE",
"461 120 LINE",
"482 0 LINE",
"722 0 LINE",
"610 644 LINE",
"359 644 LINE",
"-25 0 LINE"
);
},
{
closed = 1;
nodes = (
"595 -220 OFFCURVE",
"643 -210 OFFCURVE",
"668 -202 CURVE",
"690 -96 LINE",
"677 -103 OFFCURVE",
"654 -107 OFFCURVE",
"637 -107 CURVE SMOOTH",
"612 -107 OFFCURVE",
"596 -102 OFFCURVE",
"596 -84 CURVE SMOOTH",
"596 -82 OFFCURVE",
"596 -79 OFFCURVE",
"597 -76 CURVE",
"604 -47 OFFCURVE",
"629 -21 OFFCURVE",
"662 0 CURVE",
"518 0 LINE",
"466 -26 OFFCURVE",
"416 -76 OFFCURVE",
"416 -140 CURVE SMOOTH",
"416 -195 OFFCURVE",
"465 -220 OFFCURVE",
"545 -220 CURVE SMOOTH"
);
},
{
closed = 1;
nodes = (
"441 408 LINE",
"464 285 LINE",
"366 285 LINE"
);
}
);
width = 760;
}
);
leftKerningGroup = A;
note = Aogonek;
rightKerningGroup = A;
unicode = 0104;
},
{
glyphname = Aring;
lastChange = "2015-10-23 07:09:38 +0000";
layers = (
{
layerId = "098F4D9A-293F-4750-B0F4-D0E702B92EEF";
name = "Bold Italic";
paths = (
{
closed = 1;
nodes = (
"234 0 LINE",
"305 120 LINE",
"461 120 LINE",
"482 0 LINE",
"722 0 LINE",
"610 643 LINE",
"633 667 OFFCURVE",
"649 697 OFFCURVE",
"656 731 CURVE SMOOTH",
"658 742 OFFCURVE",
"660 753 OFFCURVE",
"660 764 CURVE SMOOTH",
"660 828 OFFCURVE",
"615 875 OFFCURVE",
"533 875 CURVE SMOOTH",
"432 875 OFFCURVE",
"367 812 OFFCURVE",
"350 731 CURVE SMOOTH",
"348 719 OFFCURVE",
"346 708 OFFCURVE",
"346 698 CURVE SMOOTH",
"346 678 OFFCURVE",
"351 660 OFFCURVE",
"359 644 CURVE",
"-25 0 LINE"
);
},
{
closed = 1;
nodes = (
"441 408 LINE",
"464 285 LINE",
"366 285 LINE"
);
},
{
closed = 1;
nodes = (
"460 680 OFFCURVE",
"447 697 OFFCURVE",
"447 718 CURVE SMOOTH",
"447 750 OFFCURVE",
"470 782 OFFCURVE",
"513 782 CURVE SMOOTH",
"544 782 OFFCURVE",
"557 765 OFFCURVE",
"557 744 CURVE SMOOTH",
"557 712 OFFCURVE",
"534 680 OFFCURVE",
"491 680 CURVE SMOOTH"
);
}
);
width = 777;
}
);
leftKerningGroup = A;
note = Aring;
rightKerningGroup = A;
unicode = 00C5;
},
{
glyphname = Aringacute;
lastChange = "2015-10-23 07:09:38 +0000";
layers = (
{
layerId = "098F4D9A-293F-4750-B0F4-D0E702B92EEF";
name = "Bold Italic";
paths = (
{
closed = 1;
nodes = (
"234 0 LINE",
"305 120 LINE",
"461 120 LINE",
"482 0 LINE",
"722 0 LINE",
"610 644 LINE",
"359 644 LINE",
"-25 0 LINE"
);
},
{
closed = 1;
nodes = (
"441 408 LINE",
"464 285 LINE",
"366 285 LINE"
);
},
{
closed = 1;
nodes = (
"573 588 OFFCURVE",
"639 651 OFFCURVE",
"656 731 CURVE SMOOTH",
"658 742 OFFCURVE",
"660 753 OFFCURVE",
"660 764 CURVE SMOOTH",
"660 828 OFFCURVE",
"615 875 OFFCURVE",
"533 875 CURVE SMOOTH",
"432 875 OFFCURVE",
"367 812 OFFCURVE",
"350 731 CURVE SMOOTH",
"348 720 OFFCURVE",
"347 709 OFFCURVE",
"347 699 CURVE SMOOTH",
"347 635 OFFCURVE",
"392 588 OFFCURVE",
"472 588 CURVE SMOOTH"
);
},
{
closed = 1;
nodes = (
"460 680 OFFCURVE",
"447 697 OFFCURVE",
"447 718 CURVE SMOOTH",
"447 750 OFFCURVE",
"470 782 OFFCURVE",
"513 782 CURVE SMOOTH",
"544 782 OFFCURVE",
"557 765 OFFCURVE",
"557 744 CURVE SMOOTH",
"557 712 OFFCURVE",
"534 680 OFFCURVE",
"491 680 CURVE SMOOTH"
);
},
{
closed = 1;
nodes = (
"645 907 LINE",
"798 1087 LINE",
"612 1087 LINE",
"468 907 LINE"
);
}
);
width = 777;
}
);
leftKerningGroup = A;
note = Aringacute;
rightKerningGroup = A;
unicode = 01FA;
},
{
glyphname = Atilde;
lastChange = "2015-10-23 06:14:17 +0000";
layers = (
{
layerId = "098F4D9A-293F-4750-B0F4-D0E702B92EEF";
name = "Bold Italic";
paths = (
{
closed = 1;
nodes = (
"234 0 LINE",
"305 120 LINE",
"461 120 LINE",
"482 0 LINE",
"722 0 LINE",
"610 644 LINE",
"359 644 LINE",
"-25 0 LINE"
);
},
{
closed = 1;
nodes = (
"441 408 LINE",
"464 285 LINE",
"366 285 LINE"
);
},
{
closed = 1;
nodes = (
"644 693 OFFCURVE",
"687 710 OFFCURVE",
"704 728 CURVE",
"734 869 LINE",
"713 847 OFFCURVE",
"673 828 OFFCURVE",
"627 828 CURVE SMOOTH",
"558 828 OFFCURVE",
"509 872 OFFCURVE",
"436 872 CURVE SMOOTH",
"394 872 OFFCURVE",
"350 855 OFFCURVE",
"326 837 CURVE",
"296 696 LINE",
"325 720 OFFCURVE",
"364 737 OFFCURVE",
"410 737 CURVE SMOOTH",
"471 737 OFFCURVE",
"530 693 OFFCURVE",
"602 693 CURVE SMOOTH"
);
}
);
width = 777;
}
);
leftKerningGroup = A;
note = Atilde;
rightKerningGroup = A;
unicode = 00C3;
},
{
glyphname = AE;
lastChange = "2015-10-23 06:14:17 +0000";
layers = (
{
layerId = "098F4D9A-293F-4750-B0F4-D0E702B92EEF";
name = "Bold Italic";
paths = (
{
closed = 1;
nodes = (
"227 0 LINE",
"298 120 LINE",
"389 120 LINE",
"364 0 LINE",
"819 0 LINE",
"855 174 LINE",
"632 174 LINE",
"645 232 LINE",
"830 232 LINE",
"868 412 LINE",
"683 412 LINE",
"695 470 LINE",
"918 470 LINE",
"955 644 LINE",
"359 644 LINE",
"-25 0 LINE"
);
},
{
closed = 1;
nodes = (
"457 470 LINE",
"463 470 LINE",
"424 285 LINE",
"359 285 LINE"
);
}
);
width = 874;
}
);
leftKerningGroup = A;
note = AE;
rightKerningGroup = E;
unicode = 00C6;
},
{
glyphname = AEacute;
lastChange = "2015-10-23 06:14:18 +0000";
layers = (
{
layerId = "098F4D9A-293F-4750-B0F4-D0E702B92EEF";
name = "Bold Italic";
paths = (
{
closed = 1;
nodes = (
"227 0 LINE",
"298 120 LINE",
"389 120 LINE",
"364 0 LINE",
"819 0 LINE",
"855 174 LINE",
"632 174 LINE",
"645 232 LINE",
"830 232 LINE",
"868 412 LINE",
"683 412 LINE",
"695 470 LINE",
"918 470 LINE",
"955 644 LINE",
"359 644 LINE",
"-25 0 LINE"
);
},
{
closed = 1;
nodes = (
"457 470 LINE",
"463 470 LINE",
"424 285 LINE",
"359 285 LINE"
);
},
{
closed = 1;
nodes = (
"691 688 LINE",
"844 914 LINE",
"658 914 LINE",
"514 688 LINE"
);
}
);
width = 874;
}
);
leftKerningGroup = A;
note = AEacute;
rightKerningGroup = E;
unicode = 01FC;
},
{
glyphname = B;
lastChange = "2015-10-23 07:09:38 +0000";
layers = (
{
layerId = "098F4D9A-293F-4750-B0F4-D0E702B92EEF";
name = "Bold Italic";
paths = (
{
closed = 1;
nodes = (
"381 0 LINE SMOOTH",
"540 0 OFFCURVE",
"622 74 OFFCURVE",
"648 195 CURVE SMOOTH",
"651 210 OFFCURVE",
"653 224 OFFCURVE",
"653 236 CURVE SMOOTH",
"653 283 OFFCURVE",
"630 307 OFFCURVE",
"594 326 CURVE",
"636 353 OFFCURVE",
"669 398 OFFCURVE",
"683 462 CURVE SMOOTH",
"686 475 OFFCURVE",
"687 487 OFFCURVE",
"687 499 CURVE SMOOTH",
"687 586 OFFCURVE",
"615 644 OFFCURVE",
"513 644 CURVE SMOOTH",
"131 644 LINE",
"-5 0 LINE"
);
},
{
closed = 1;
nodes = (
"274 247 LINE",
"364 247 LINE SMOOTH",
"391 247 OFFCURVE",
"404 236 OFFCURVE",
"404 218 CURVE SMOOTH",
"404 215 OFFCURVE",
"404 211 OFFCURVE",
"403 207 CURVE SMOOTH",
"397 178 OFFCURVE",
"378 164 OFFCURVE",
"346 164 CURVE SMOOTH",
"256 164 LINE"
);
},
{
closed = 1;
nodes = (
"324 480 LINE",
"414 480 LINE SMOOTH",
"441 480 OFFCURVE",
"454 469 OFFCURVE",
"454 450 CURVE SMOOTH",
"454 447 OFFCURVE",
"454 444 OFFCURVE",
"453 440 CURVE SMOOTH",
"447 411 OFFCURVE",
"428 397 OFFCURVE",
"396 397 CURVE SMOOTH",
"306 397 LINE"
);
}
);
width = 662;
}
);
note = B;
unicode = 0042;
},
{
glyphname = C;
lastChange = "2015-10-23 07:09:38 +0000";
layers = (
{
layerId = "098F4D9A-293F-4750-B0F4-D0E702B92EEF";
name = "Bold Italic";
paths = (
{
closed = 1;
nodes = (
"440 -10 OFFCURVE",
"502 3 OFFCURVE",
"568 25 CURVE",
"613 236 LINE",
"543 207 OFFCURVE",
"483 194 OFFCURVE",
"417 194 CURVE SMOOTH",
"328 194 OFFCURVE",
"285 215 OFFCURVE",
"285 278 CURVE SMOOTH",
"285 291 OFFCURVE",
"286 306 OFFCURVE",
"290 322 CURVE SMOOTH",
"311 419 OFFCURVE",
"367 450 OFFCURVE",
"469 450 CURVE SMOOTH",
"535 450 OFFCURVE",
"590 437 OFFCURVE",
"647 408 CURVE",
"692 619 LINE",
"636 641 OFFCURVE",
"580 654 OFFCURVE",
"497 654 CURVE SMOOTH",
"258 654 OFFCURVE",
"89 541 OFFCURVE",
"43 322 CURVE SMOOTH",
"37 292 OFFCURVE",
"34 265 OFFCURVE",
"34 239 CURVE SMOOTH",
"34 75 OFFCURVE",
"160 -10 OFFCURVE",
"357 -10 CURVE SMOOTH"
);
}
);
width = 618;
}
);
leftKerningGroup = C;
note = C;
unicode = 0043;
},
{
glyphname = Cacute;
lastChange = "2015-10-23 07:09:38 +0000";
layers = (
{
layerId = "098F4D9A-293F-4750-B0F4-D0E702B92EEF";
name = "Bold Italic";
paths = (
{
closed = 1;
nodes = (
"440 -10 OFFCURVE",
"502 3 OFFCURVE",
"568 25 CURVE",
"613 236 LINE",
"543 207 OFFCURVE",
"483 194 OFFCURVE",
"417 194 CURVE SMOOTH",
"328 194 OFFCURVE",
"285 215 OFFCURVE",
"285 278 CURVE SMOOTH",
"285 291 OFFCURVE",
"286 306 OFFCURVE",
"290 322 CURVE SMOOTH",
"311 419 OFFCURVE",
"367 450 OFFCURVE",
"469 450 CURVE SMOOTH",
"535 450 OFFCURVE",
"590 437 OFFCURVE",
"647 408 CURVE",
"692 619 LINE",
"636 641 OFFCURVE",
"580 654 OFFCURVE",
"497 654 CURVE SMOOTH",
"258 654 OFFCURVE",
"89 541 OFFCURVE",
"43 322 CURVE SMOOTH",
"37 292 OFFCURVE",
"34 265 OFFCURVE",
"34 239 CURVE SMOOTH",
"34 75 OFFCURVE",
"160 -10 OFFCURVE",
"357 -10 CURVE SMOOTH"
);
},
{
closed = 1;
nodes = (
"572 688 LINE",
"725 914 LINE",
"539 914 LINE",
"395 688 LINE"
);
}
);
width = 618;
}
);
leftKerningGroup = C;
note = Cacute;
unicode = 0106;
},
{
glyphname = Ccaron;
lastChange = "2015-10-23 07:09:38 +0000";
layers = (
{
layerId = "098F4D9A-293F-4750-B0F4-D0E702B92EEF";
name = "Bold Italic";
paths = (
{
closed = 1;
nodes = (
"440 -10 OFFCURVE",
"502 3 OFFCURVE",
"568 25 CURVE",
"613 236 LINE",
"543 207 OFFCURVE",
"483 194 OFFCURVE",
"417 194 CURVE SMOOTH",
"328 194 OFFCURVE",
"285 215 OFFCURVE",
"285 278 CURVE SMOOTH",
"285 291 OFFCURVE",
"286 306 OFFCURVE",
"290 322 CURVE SMOOTH",
"311 419 OFFCURVE",
"367 450 OFFCURVE",
"469 450 CURVE SMOOTH",
"535 450 OFFCURVE",
"590 437 OFFCURVE",
"647 408 CURVE",
"692 619 LINE",
"636 641 OFFCURVE",
"580 654 OFFCURVE",
"497 654 CURVE SMOOTH",
"258 654 OFFCURVE",
"89 541 OFFCURVE",
"43 322 CURVE SMOOTH",
"37 292 OFFCURVE",
"34 265 OFFCURVE",
"34 239 CURVE SMOOTH",
"34 75 OFFCURVE",
"160 -10 OFFCURVE",
"357 -10 CURVE SMOOTH"
);
},
{
closed = 1;
nodes = (
"560 688 LINE",
"781 904 LINE",
"606 904 LINE",
"507 797 LINE",
"456 904 LINE",
"291 904 LINE",
"420 688 LINE"
);
}
);
width = 618;
}
);
leftKerningGroup = C;
note = Ccaron;
unicode = 010C;
},
{
glyphname = Ccedilla;
lastChange = "2015-10-23 07:09:38 +0000";
layers = (
{
layerId = "098F4D9A-293F-4750-B0F4-D0E702B92EEF";
name = "Bold Italic";
paths = (
{
closed = 1;
nodes = (
"393 -240 OFFCURVE",
"459 -199 OFFCURVE",
"473 -133 CURVE SMOOTH",
"475 -126 OFFCURVE",
"475 -118 OFFCURVE",
"475 -111 CURVE SMOOTH",
"475 -68 OFFCURVE",
"444 -37 OFFCURVE",
"386 -37 CURVE",
"402 -8 LINE",
"463 -4 OFFCURVE",
"514 7 OFFCURVE",
"568 25 CURVE",
"613 236 LINE",
"543 207 OFFCURVE",
"483 194 OFFCURVE",
"417 194 CURVE SMOOTH",
"328 194 OFFCURVE",
"285 215 OFFCURVE",
"285 278 CURVE SMOOTH",
"285 291 OFFCURVE",
"286 306 OFFCURVE",
"290 322 CURVE SMOOTH",
"311 419 OFFCURVE",
"367 450 OFFCURVE",
"469 450 CURVE SMOOTH",
"535 450 OFFCURVE",
"590 437 OFFCURVE",
"647 408 CURVE",
"692 619 LINE",
"636 641 OFFCURVE",
"580 654 OFFCURVE",
"497 654 CURVE SMOOTH",
"258 654 OFFCURVE",
"89 541 OFFCURVE",
"43 322 CURVE SMOOTH",
"37 292 OFFCURVE",
"33 264 OFFCURVE",
"33 239 CURVE SMOOTH",
"33 95 OFFCURVE",
"129 14 OFFCURVE",
"283 -5 CURVE",
"237 -100 LINE",
"311 -100 LINE SMOOTH",
"333 -100 OFFCURVE",
"347 -107 OFFCURVE",
"342 -128 CURVE",
"338 -150 OFFCURVE",
"312 -163 OFFCURVE",
"268 -163 CURVE SMOOTH",
"249 -163 OFFCURVE",
"228 -160 OFFCURVE",
"212 -155 CURVE",
"195 -232 LINE",
"209 -236 OFFCURVE",
"256 -240 OFFCURVE",
"281 -240 CURVE SMOOTH"
);
}
);
width = 618;
}
);
leftKerningGroup = C;
note = Ccedilla;
unicode = 00C7;
},
{
glyphname = Ccircumflex;
lastChange = "2015-10-23 07:09:38 +0000";
layers = (
{
layerId = "098F4D9A-293F-4750-B0F4-D0E702B92EEF";
name = "Bold Italic";
paths = (
{
closed = 1;
nodes = (
"440 -10 OFFCURVE",
"502 3 OFFCURVE",
"568 25 CURVE",
"613 236 LINE",
"543 207 OFFCURVE",
"483 194 OFFCURVE",
"417 194 CURVE SMOOTH",
"328 194 OFFCURVE",
"285 215 OFFCURVE",
"285 278 CURVE SMOOTH",
"285 291 OFFCURVE",
"286 306 OFFCURVE",
"290 322 CURVE SMOOTH",
"311 419 OFFCURVE",
"367 450 OFFCURVE",
"469 450 CURVE SMOOTH",
"535 450 OFFCURVE",
"590 437 OFFCURVE",
"647 408 CURVE",
"692 619 LINE",
"636 641 OFFCURVE",
"580 654 OFFCURVE",
"497 654 CURVE SMOOTH",
"258 654 OFFCURVE",
"89 541 OFFCURVE",
"43 322 CURVE SMOOTH",
"37 292 OFFCURVE",
"34 265 OFFCURVE",
"34 239 CURVE SMOOTH",
"34 75 OFFCURVE",
"160 -10 OFFCURVE",
"357 -10 CURVE SMOOTH"
);
},
{
closed = 1;
nodes = (
"387 688 LINE",
"482 795 LINE",
"536 688 LINE",
"697 688 LINE",
"568 904 LINE",
"427 904 LINE",
"207 688 LINE"
);
}
);
width = 618;
}
);
leftKerningGroup = C;
note = Ccircumflex;
unicode = 0108;
},
{
glyphname = Cdotaccent;
lastChange = "2015-10-23 07:09:38 +0000";
layers = (
{
layerId = "098F4D9A-293F-4750-B0F4-D0E702B92EEF";
name = "Bold Italic";
paths = (
{
closed = 1;
nodes = (
"440 -10 OFFCURVE",
"502 3 OFFCURVE",
"568 25 CURVE",
"613 236 LINE",
"543 207 OFFCURVE",
"483 194 OFFCURVE",
"417 194 CURVE SMOOTH",
"328 194 OFFCURVE",
"285 215 OFFCURVE",
"285 278 CURVE SMOOTH",
"285 291 OFFCURVE",
"286 306 OFFCURVE",
"290 322 CURVE SMOOTH",
"311 419 OFFCURVE",
"367 450 OFFCURVE",
"469 450 CURVE SMOOTH",
"535 450 OFFCURVE",
"590 437 OFFCURVE",
"647 408 CURVE",
"692 619 LINE",
"636 641 OFFCURVE",
"580 654 OFFCURVE",
"497 654 CURVE SMOOTH",
"258 654 OFFCURVE",
"89 541 OFFCURVE",
"43 322 CURVE SMOOTH",
"37 292 OFFCURVE",
"34 265 OFFCURVE",
"34 239 CURVE SMOOTH",
"34 75 OFFCURVE",
"160 -10 OFFCURVE",
"357 -10 CURVE SMOOTH"
);
},
{
closed = 1;
nodes = (
"555 718 LINE",
"585 859 LINE",
"429 859 LINE",
"400 718 LINE"
);
}
);
width = 618;
}
);
leftKerningGroup = C;
note = Cdotaccent;
unicode = 010A;
},
{
glyphname = D;
lastChange = "2015-10-23 07:09:39 +0000";
layers = (
{
layerId = "098F4D9A-293F-4750-B0F4-D0E702B92EEF";
name = "Bold Italic";
paths = (
{
closed = 1;
nodes = (
"301 0 LINE SMOOTH",
"542 0 OFFCURVE",
"652 95 OFFCURVE",
"702 318 CURVE SMOOTH",
"708 347 OFFCURVE",
"712 374 OFFCURVE",
"712 399 CURVE SMOOTH",
"712 554 OFFCURVE",
"597 644 OFFCURVE",
"437 644 CURVE SMOOTH",
"131 644 LINE",
"-5 0 LINE"
);
},
{
closed = 1;
nodes = (
"331 446 LINE",
"367 446 LINE SMOOTH",
"434 446 OFFCURVE",
"464 437 OFFCURVE",
"464 382 CURVE SMOOTH",
"464 365 OFFCURVE",
"462 344 OFFCURVE",
"456 318 CURVE SMOOTH",
"432 206 OFFCURVE",
"391 184 OFFCURVE",
"312 184 CURVE SMOOTH",
"276 184 LINE"
);
}
);
width = 690;
}
);
note = D;
rightKerningGroup = D;
unicode = 0044;
},
{
glyphname = Eth;
lastChange = "2015-10-23 07:09:38 +0000";
layers = (
{
layerId = "098F4D9A-293F-4750-B0F4-D0E702B92EEF";
name = "Bold Italic";
paths = (
{
closed = 1;
nodes = (
"345 0 LINE SMOOTH",
"586 0 OFFCURVE",
"696 95 OFFCURVE",
"746 318 CURVE SMOOTH",
"752 347 OFFCURVE",
"756 374 OFFCURVE",
"756 399 CURVE SMOOTH",
"756 554 OFFCURVE",
"641 644 OFFCURVE",
"481 644 CURVE SMOOTH",
"175 644 LINE",
"122 392 LINE",
"68 392 LINE",
"35 238 LINE",
"89 238 LINE",
"39 0 LINE"
);
},
{
closed = 1;
nodes = (
"331 238 LINE",
"422 238 LINE",
"455 392 LINE",
"363 392 LINE",
"375 446 LINE",
"411 446 LINE SMOOTH",
"478 446 OFFCURVE",
"508 437 OFFCURVE",
"508 382 CURVE SMOOTH",
"508 365 OFFCURVE",
"506 344 OFFCURVE",
"500 318 CURVE SMOOTH",
"476 206 OFFCURVE",
"435 184 OFFCURVE",
"356 184 CURVE SMOOTH",
"320 184 LINE"
);
}
);
width = 734;
}
);
note = Eth;
rightKerningGroup = D;
unicode = 00D0;
},
{
glyphname = Dcaron;
lastChange = "2015-10-23 07:09:38 +0000";
layers = (
{
layerId = "098F4D9A-293F-4750-B0F4-D0E702B92EEF";
name = "Bold Italic";
paths = (
{
closed = 1;
nodes = (
"301 0 LINE SMOOTH",
"542 0 OFFCURVE",
"652 95 OFFCURVE",
"702 318 CURVE SMOOTH",
"708 347 OFFCURVE",
"712 374 OFFCURVE",
"712 399 CURVE SMOOTH",
"712 554 OFFCURVE",
"597 644 OFFCURVE",
"437 644 CURVE SMOOTH",
"131 644 LINE",
"-5 0 LINE"
);
},
{
closed = 1;
nodes = (
"331 446 LINE",
"367 446 LINE SMOOTH",
"434 446 OFFCURVE",
"464 437 OFFCURVE",
"464 382 CURVE SMOOTH",
"464 365 OFFCURVE",
"462 344 OFFCURVE",
"456 318 CURVE SMOOTH",
"432 206 OFFCURVE",
"391 184 OFFCURVE",
"312 184 CURVE SMOOTH",
"276 184 LINE"
);
},
{
closed = 1;
nodes = (
"482 688 LINE",
"703 904 LINE",
"528 904 LINE",
"429 797 LINE",
"378 904 LINE",
"213 904 LINE",
"342 688 LINE"
);
}
);
width = 690;
}
);
note = Dcaron;
rightKerningGroup = D;
unicode = 010E;
},
{
glyphname = Dcroat;
lastChange = "2015-10-23 07:09:39 +0000";
layers = (
{
layerId = "098F4D9A-293F-4750-B0F4-D0E702B92EEF";
name = "Bold Italic";
paths = (
{
closed = 1;
nodes = (
"341 0 LINE SMOOTH",
"582 0 OFFCURVE",
"692 95 OFFCURVE",
"742 318 CURVE SMOOTH",
"748 347 OFFCURVE",
"752 374 OFFCURVE",
"752 399 CURVE SMOOTH",
"752 554 OFFCURVE",
"637 644 OFFCURVE",
"477 644 CURVE SMOOTH",
"171 644 LINE",
"118 392 LINE",
"74 392 LINE",
"41 238 LINE",
"85 238 LINE",
"35 0 LINE"
);
},
{
closed = 1;
nodes = (
"327 238 LINE",
"428 238 LINE",
"461 392 LINE",
"359 392 LINE",
"371 446 LINE",
"407 446 LINE SMOOTH",
"474 446 OFFCURVE",
"504 437 OFFCURVE",
"504 382 CURVE SMOOTH",
"504 365 OFFCURVE",
"502 344 OFFCURVE",
"496 318 CURVE SMOOTH",
"472 206 OFFCURVE",
"431 184 OFFCURVE",
"352 184 CURVE SMOOTH",
"316 184 LINE"
);
}
);
width = 730;
}
);
note = Dcroat;
rightKerningGroup = D;
unicode = 0110;
},
{
glyphname = Ddotbelow;
lastChange = "2015-10-23 07:09:38 +0000";
layers = (
{
layerId = "098F4D9A-293F-4750-B0F4-D0E702B92EEF";
name = "Bold Italic";
paths = (
{
closed = 1;
nodes = (
"301 0 LINE SMOOTH",
"542 0 OFFCURVE",
"652 95 OFFCURVE",
"702 318 CURVE SMOOTH",
"708 347 OFFCURVE",
"712 374 OFFCURVE",
"712 399 CURVE SMOOTH",
"712 554 OFFCURVE",
"597 644 OFFCURVE",
"437 644 CURVE SMOOTH",
"131 644 LINE",
"-5 0 LINE"
);
},
{
closed = 1;
nodes = (
"301 -213 LINE",
"331 -72 LINE",
"175 -72 LINE",
"145 -213 LINE"
);
},
{
closed = 1;
nodes = (
"331 446 LINE",
"367 446 LINE SMOOTH",
"434 446 OFFCURVE",
"464 437 OFFCURVE",
"464 382 CURVE SMOOTH",
"464 365 OFFCURVE",
"462 344 OFFCURVE",
"456 318 CURVE SMOOTH",
"432 206 OFFCURVE",
"391 184 OFFCURVE",
"312 184 CURVE SMOOTH",
"276 184 LINE"
);
}
);
width = 690;
}
);
note = Ddotbelow;
rightKerningGroup = D;
unicode = 1E0C;
},
{
glyphname = Dlinebelow;
lastChange = "2015-10-23 07:09:38 +0000";
layers = (
{
layerId = "098F4D9A-293F-4750-B0F4-D0E702B92EEF";
name = "Bold Italic";
paths = (
{
closed = 1;
nodes = (
"301 0 LINE SMOOTH",
"542 0 OFFCURVE",
"652 95 OFFCURVE",
"702 318 CURVE SMOOTH",
"708 347 OFFCURVE",
"712 374 OFFCURVE",
"712 399 CURVE SMOOTH",
"712 554 OFFCURVE",
"597 644 OFFCURVE",
"437 644 CURVE SMOOTH",
"131 644 LINE",
"-5 0 LINE"
);
},
{
closed = 1;
nodes = (
"377 -202 LINE",
"407 -62 LINE",
"59 -62 LINE",
"29 -202 LINE"
);
},
{
closed = 1;
nodes = (
"331 446 LINE",
"367 446 LINE SMOOTH",
"434 446 OFFCURVE",
"464 437 OFFCURVE",
"464 382 CURVE SMOOTH",
"464 365 OFFCURVE",
"462 344 OFFCURVE",
"456 318 CURVE SMOOTH",
"432 206 OFFCURVE",
"391 184 OFFCURVE",
"312 184 CURVE SMOOTH",
"276 184 LINE"
);
}
);
width = 690;
}
);
note = Dlinebelow;
rightKerningGroup = D;
unicode = 1E0E;
},
{
glyphname = E;
lastChange = "2015-10-23 06:14:17 +0000";
layers = (
{
layerId = "098F4D9A-293F-4750-B0F4-D0E702B92EEF";
name = "Bold Italic";
paths = (
{
closed = 1;
nodes = (
"510 0 LINE",
"546 174 LINE",
"273 174 LINE",
"286 232 LINE",
"521 232 LINE",
"559 412 LINE",
"324 412 LINE",
"336 470 LINE",
"609 470 LINE",
"646 644 LINE",
"131 644 LINE",
"-5 0 LINE"
);
}
);
width = 555;
}
);
note = E;
unicode = 0045;
},
{
glyphname = Eacute;
lastChange = "2015-10-23 06:14:18 +0000";
layers = (
{
layerId = "098F4D9A-293F-4750-B0F4-D0E702B92EEF";
name = "Bold Italic";
paths = (
{
closed = 1;
nodes = (
"510 0 LINE",
"546 174 LINE",
"273 174 LINE",
"286 232 LINE",
"521 232 LINE",
"559 412 LINE",
"324 412 LINE",
"336 470 LINE",
"609 470 LINE",
"646 644 LINE",
"131 644 LINE",
"-5 0 LINE"
);
},
{
closed = 1;
nodes = (
"461 688 LINE",
"614 914 LINE",
"428 914 LINE",
"284 688 LINE"
);
}
);
width = 555;
}
);
note = Eacute;
unicode = 00C9;
},
{
glyphname = Ebreve;
lastChange = "2015-10-23 07:09:38 +0000";
layers = (
{
layerId = "098F4D9A-293F-4750-B0F4-D0E702B92EEF";
name = "Bold Italic";
paths = (
{
closed = 1;
nodes = (
"510 0 LINE",
"546 174 LINE",
"273 174 LINE",
"286 232 LINE",
"521 232 LINE",
"559 412 LINE",
"324 412 LINE",
"336 470 LINE",
"609 470 LINE",
"646 644 LINE",
"131 644 LINE",
"-5 0 LINE"
);
},
{
closed = 1;
nodes = (
"533 688 OFFCURVE",
"636 765 OFFCURVE",
"667 908 CURVE",
"505 908 LINE",
"495 863 OFFCURVE",
"471 820 OFFCURVE",
"420 820 CURVE SMOOTH",
"383 820 OFFCURVE",
"370 844 OFFCURVE",
"370 875 CURVE SMOOTH",
"370 885 OFFCURVE",
"371 897 OFFCURVE",
"374 908 CURVE",
"227 908 LINE",
"222 886 OFFCURVE",
"220 865 OFFCURVE",
"220 846 CURVE SMOOTH",
"220 743 OFFCURVE",
"288 688 OFFCURVE",
"399 688 CURVE SMOOTH"
);
}
);
width = 555;
}
);
note = Ebreve;
unicode = 0114;
},
{
glyphname = Ecaron;
lastChange = "2015-10-23 06:14:18 +0000";
layers = (
{
layerId = "098F4D9A-293F-4750-B0F4-D0E702B92EEF";
name = "Bold Italic";
paths = (
{
closed = 1;
nodes = (
"510 0 LINE",
"546 174 LINE",
"273 174 LINE",
"286 232 LINE",
"521 232 LINE",
"559 412 LINE",
"324 412 LINE",
"336 470 LINE",
"609 470 LINE",
"646 644 LINE",
"131 644 LINE",
"-5 0 LINE"
);
},
{
closed = 1;
nodes = (
"472 688 LINE",
"693 904 LINE",
"518 904 LINE",
"419 797 LINE",
"368 904 LINE",
"203 904 LINE",
"332 688 LINE"
);
}
);
width = 557;
}
);
note = Ecaron;
unicode = 011A;
},
{
glyphname = Ecircumflex;
lastChange = "2015-10-23 06:14:18 +0000";
layers = (
{
layerId = "098F4D9A-293F-4750-B0F4-D0E702B92EEF";
name = "Bold Italic";
paths = (
{
closed = 1;
nodes = (
"510 0 LINE",
"546 174 LINE",
"273 174 LINE",
"286 232 LINE",
"521 232 LINE",
"559 412 LINE",
"324 412 LINE",
"336 470 LINE",
"609 470 LINE",
"646 644 LINE",
"131 644 LINE",
"-5 0 LINE"
);
},
{
closed = 1;
nodes = (
"334 688 LINE",
"429 795 LINE",
"483 688 LINE",
"644 688 LINE",
"515 904 LINE",
"374 904 LINE",
"154 688 LINE"
);
}
);
width = 555;
}
);
note = Ecircumflex;
unicode = 00CA;
},
{
glyphname = Ecircumflexacute;
lastChange = "2015-10-23 06:14:18 +0000";
layers = (
{
layerId = "098F4D9A-293F-4750-B0F4-D0E702B92EEF";
name = "Bold Italic";
paths = (
{
closed = 1;
nodes = (
"510 0 LINE",
"546 174 LINE",
"273 174 LINE",
"286 232 LINE",
"521 232 LINE",
"559 412 LINE",
"324 412 LINE",
"336 470 LINE",
"609 470 LINE",
"646 644 LINE",
"131 644 LINE",
"-5 0 LINE"
);
},
{
closed = 1;
nodes = (
"359 688 LINE",
"428 764 LINE",
"468 688 LINE",
"649 688 LINE",
"528 856 LINE",
"353 856 LINE",
"159 688 LINE"
);
},
{
closed = 1;
nodes = (
"743 820 LINE",
"863 992 LINE",
"687 992 LINE",
"576 820 LINE"
);
}
);
width = 555;
}
);
note = Ecircumflexacute;
unicode = 1EBE;
},
{
glyphname = Ecircumflexdotbelow;
lastChange = "2015-10-23 06:14:17 +0000";
layers = (
{
layerId = "098F4D9A-293F-4750-B0F4-D0E702B92EEF";
name = "Bold Italic";
paths = (
{
closed = 1;
nodes = (
"510 0 LINE",
"546 174 LINE",
"273 174 LINE",
"286 232 LINE",
"521 232 LINE",
"559 412 LINE",
"324 412 LINE",
"336 470 LINE",
"609 470 LINE",
"646 644 LINE",
"131 644 LINE",
"-5 0 LINE"
);
},
{
closed = 1;
nodes = (
"284 -213 LINE",
"314 -72 LINE",
"158 -72 LINE",
"128 -213 LINE"
);
},
{
closed = 1;
nodes = (
"331 688 LINE",
"426 795 LINE",
"480 688 LINE",
"641 688 LINE",
"512 904 LINE",
"371 904 LINE",
"151 688 LINE"
);
}
);
width = 565;
}
);
note = Ecircumflexdotbelow;
unicode = 1EC6;
},
{
glyphname = Ecircumflexgrave;
lastChange = "2015-10-23 06:14:17 +0000";
layers = (
{
layerId = "098F4D9A-293F-4750-B0F4-D0E702B92EEF";
name = "Bold Italic";
paths = (
{
closed = 1;
nodes = (
"510 0 LINE",
"546 174 LINE",
"273 174 LINE",
"286 232 LINE",
"521 232 LINE",
"559 412 LINE",
"324 412 LINE",
"336 470 LINE",
"609 470 LINE",
"646 644 LINE",
"131 644 LINE",
"-5 0 LINE"
);
},
{
closed = 1;
nodes = (
"286 820 LINE",
"248 992 LINE",
"72 992 LINE",
"118 820 LINE"
);
},
{
closed = 1;
nodes = (
"352 688 LINE",
"424 764 LINE",
"461 688 LINE",
"646 688 LINE",
"525 856 LINE",
"350 856 LINE",
"156 688 LINE"
);
}
);
width = 555;
}
);
note = Ecircumflexgrave;
unicode = 1EC0;
},
{
glyphname = Ecircumflexhookabove;
lastChange = "2015-10-23 07:09:38 +0000";
layers = (
{
layerId = "098F4D9A-293F-4750-B0F4-D0E702B92EEF";
name = "Bold Italic";
paths = (
{
closed = 1;
nodes = (
"510 0 LINE",
"546 174 LINE",
"273 174 LINE",
"286 232 LINE",
"521 232 LINE",
"559 412 LINE",
"324 412 LINE",
"336 470 LINE",
"609 470 LINE",
"646 644 LINE",
"131 644 LINE",
"-5 0 LINE"
);
},
{
closed = 1;
nodes = (
"351 688 LINE",
"420 764 LINE",
"460 688 LINE",
"641 688 LINE",
"520 856 LINE",
"345 856 LINE",
"151 688 LINE"
);
},
{
closed = 1;
nodes = (
"730 797 LINE",
"737 828 LINE",
"787 837 OFFCURVE",
"816 871 OFFCURVE",
"826 917 CURVE SMOOTH",
"827 922 OFFCURVE",
"828 928 OFFCURVE",
"828 933 CURVE SMOOTH",
"828 976 OFFCURVE",
"790 1009 OFFCURVE",
"716 1009 CURVE SMOOTH",
"666 1009 OFFCURVE",
"626 1004 OFFCURVE",
"599 997 CURVE",
"579 905 LINE",
"593 910 OFFCURVE",
"612 915 OFFCURVE",
"628 915 CURVE SMOOTH",
"648 915 OFFCURVE",
"659 913 OFFCURVE",
"659 903 CURVE SMOOTH",
"659 890 OFFCURVE",
"647 879 OFFCURVE",
"591 877 CURVE",
"574 797 LINE"
);
}
);
width = 555;
}
);
note = Ecircumflexhookabove;
unicode = 1EC2;
},
{
glyphname = Ecircumflextilde;
lastChange = "2015-10-23 06:14:17 +0000";
layers = (
{
layerId = "098F4D9A-293F-4750-B0F4-D0E702B92EEF";
name = "Bold Italic";
paths = (
{
closed = 1;
nodes = (
"510 0 LINE",
"546 174 LINE",
"273 174 LINE",
"286 232 LINE",
"521 232 LINE",
"559 412 LINE",
"324 412 LINE",
"336 470 LINE",
"609 470 LINE",
"646 644 LINE",
"131 644 LINE",
"-5 0 LINE"
);
},
{
closed = 1;
nodes = (
"351 688 LINE",
"420 764 LINE",
"460 688 LINE",
"641 688 LINE",
"520 856 LINE",
"345 856 LINE",
"151 688 LINE"
);
},
{
closed = 1;
nodes = (
"583 871 OFFCURVE",
"624 887 OFFCURVE",
"640 904 CURVE",
"669 1039 LINE",
"649 1018 OFFCURVE",
"611 1000 OFFCURVE",
"567 1000 CURVE SMOOTH",
"502 1000 OFFCURVE",
"454 1042 OFFCURVE",
"384 1042 CURVE SMOOTH",
"344 1042 OFFCURVE",
"303 1026 OFFCURVE",
"280 1009 CURVE",
"252 874 LINE",
"279 897 OFFCURVE",
"316 913 OFFCURVE",
"360 913 CURVE SMOOTH",
"419 913 OFFCURVE",
"475 871 OFFCURVE",
"543 871 CURVE SMOOTH"
);
}
);
width = 555;
}
);
note = Ecircumflextilde;
unicode = 1EC4;
},
{
glyphname = Edieresis;
lastChange = "2015-10-23 06:14:17 +0000";
layers = (
{
layerId = "098F4D9A-293F-4750-B0F4-D0E702B92EEF";
name = "Bold Italic";
paths = (
{
closed = 1;
nodes = (
"510 0 LINE",
"546 174 LINE",
"273 174 LINE",
"286 232 LINE",
"521 232 LINE",
"559 412 LINE",
"324 412 LINE",
"336 470 LINE",
"609 470 LINE",
"646 644 LINE",
"131 644 LINE",
"-5 0 LINE"
);
},
{
closed = 1;
nodes = (
"368 718 LINE",
"398 859 LINE",
"243 859 LINE",
"213 718 LINE"
);
},
{
closed = 1;
nodes = (
"603 718 LINE",
"633 859 LINE",
"477 859 LINE",
"447 718 LINE"
);
}
);
width = 555;
}
);
note = Edieresis;
unicode = 00CB;
},
{
glyphname = Edotaccent;
lastChange = "2015-10-23 06:14:17 +0000";
layers = (
{
layerId = "098F4D9A-293F-4750-B0F4-D0E702B92EEF";
name = "Bold Italic";
paths = (
{
closed = 1;
nodes = (
"510 0 LINE",
"546 174 LINE",
"273 174 LINE",
"286 232 LINE",
"521 232 LINE",
"559 412 LINE",
"324 412 LINE",
"336 470 LINE",
"609 470 LINE",
"646 644 LINE",
"131 644 LINE",
"-5 0 LINE"
);
},
{
closed = 1;
nodes = (
"476 718 LINE",
"506 859 LINE",
"350 859 LINE",
"321 718 LINE"
);
}
);
width = 555;
}
);
note = Edotaccent;
unicode = 0116;
},
{
glyphname = Edotbelow;
lastChange = "2015-10-23 06:14:17 +0000";
layers = (
{
layerId = "098F4D9A-293F-4750-B0F4-D0E702B92EEF";
name = "Bold Italic";
paths = (
{
closed = 1;
nodes = (
"510 0 LINE",
"546 174 LINE",
"273 174 LINE",
"286 232 LINE",
"521 232 LINE",
"559 412 LINE",
"324 412 LINE",
"336 470 LINE",
"609 470 LINE",
"646 644 LINE",
"131 644 LINE",
"-5 0 LINE"
);
},
{
closed = 1;
nodes = (
"275 -213 LINE",
"305 -72 LINE",
"149 -72 LINE",
"119 -213 LINE"
);
}
);
width = 555;
}
);
note = Edotbelow;
unicode = 1EB8;
},
{
glyphname = Egrave;
lastChange = "2015-10-23 06:14:18 +0000";
layers = (
{
layerId = "098F4D9A-293F-4750-B0F4-D0E702B92EEF";
name = "Bold Italic";
paths = (
{
closed = 1;
nodes = (
"510 0 LINE",
"546 174 LINE",
"273 174 LINE",
"286 232 LINE",
"521 232 LINE",
"559 412 LINE",
"324 412 LINE",
"336 470 LINE",
"609 470 LINE",
"646 644 LINE",
"131 644 LINE",
"-5 0 LINE"
);
},
{
closed = 1;
nodes = (
"505 688 LINE",
"457 914 LINE",
"271 914 LINE",
"328 688 LINE"
);
}
);
width = 555;
}
);
note = Egrave;
unicode = 00C8;
},
{
glyphname = Ehookabove;
lastChange = "2015-10-23 07:09:38 +0000";
layers = (
{
layerId = "098F4D9A-293F-4750-B0F4-D0E702B92EEF";
name = "Bold Italic";
paths = (
{
closed = 1;
nodes = (
"510 0 LINE",
"546 174 LINE",
"273 174 LINE",
"286 232 LINE",
"521 232 LINE",
"559 412 LINE",
"324 412 LINE",
"336 470 LINE",
"609 470 LINE",
"646 644 LINE",
"131 644 LINE",
"-5 0 LINE"
);
},
{
closed = 1;
nodes = (
"487 688 LINE",
"495 724 LINE",
"556 742 OFFCURVE",
"586 768 OFFCURVE",
"599 828 CURVE SMOOTH",
"600 835 OFFCURVE",
"601 841 OFFCURVE",
"601 848 CURVE SMOOTH",
"601 898 OFFCURVE",
"556 935 OFFCURVE",
"470 935 CURVE SMOOTH",
"412 935 OFFCURVE",
"371 929 OFFCURVE",
"337 920 CURVE",
"317 826 LINE",
"334 832 OFFCURVE",
"355 836 OFFCURVE",
"375 836 CURVE SMOOTH",
"409 836 OFFCURVE",
"424 828 OFFCURVE",
"419 808 CURVE",
"415 788 OFFCURVE",
"392 773 OFFCURVE",
"326 769 CURVE",
"309 688 LINE"
);
}
);
width = 555;
}
);
note = Ehookabove;
unicode = 1EBA;
},
{
glyphname = Emacron;
lastChange = "2015-10-23 06:14:17 +0000";
layers = (
{
layerId = "098F4D9A-293F-4750-B0F4-D0E702B92EEF";
name = "Bold Italic";
paths = (
{
closed = 1;
nodes = (
"510 0 LINE",
"546 174 LINE",
"273 174 LINE",
"286 232 LINE",
"521 232 LINE",
"559 412 LINE",
"324 412 LINE",
"336 470 LINE",
"609 470 LINE",
"646 644 LINE",
"131 644 LINE",
"-5 0 LINE"
);
},
{
closed = 1;
nodes = (
"565 728 LINE",
"595 868 LINE",
"247 868 LINE",
"217 728 LINE"
);
}
);
width = 555;
}
);
note = Emacron;
unicode = 0112;
},
{
glyphname = Eogonek;
lastChange = "2015-10-23 07:09:38 +0000";
layers = (
{
layerId = "098F4D9A-293F-4750-B0F4-D0E702B92EEF";
name = "Bold Italic";
paths = (
{
closed = 1;
nodes = (
"510 0 LINE",
"546 174 LINE",
"273 174 LINE",
"286 232 LINE",
"521 232 LINE",
"559 412 LINE",
"324 412 LINE",
"336 470 LINE",
"609 470 LINE",
"646 644 LINE",
"131 644 LINE",
"-5 0 LINE"
);
},
{
closed = 1;
nodes = (
"378 -220 OFFCURVE",
"426 -210 OFFCURVE",
"451 -202 CURVE",
"473 -96 LINE",
"460 -103 OFFCURVE",
"437 -107 OFFCURVE",
"420 -107 CURVE SMOOTH",
"395 -107 OFFCURVE",
"379 -102 OFFCURVE",
"379 -84 CURVE SMOOTH",
"379 -82 OFFCURVE",
"379 -79 OFFCURVE",
"380 -76 CURVE",
"387 -47 OFFCURVE",
"412 -21 OFFCURVE",
"445 0 CURVE",
"301 0 LINE",
"249 -26 OFFCURVE",
"199 -76 OFFCURVE",
"199 -140 CURVE SMOOTH",
"199 -195 OFFCURVE",
"248 -220 OFFCURVE",
"328 -220 CURVE SMOOTH"
);
}
);
width = 555;
}
);
note = Eogonek;
unicode = 0118;
},
{
glyphname = Etilde;
lastChange = "2015-10-23 06:14:17 +0000";
layers = (
{
layerId = "098F4D9A-293F-4750-B0F4-D0E702B92EEF";
name = "Bold Italic";
paths = (
{
closed = 1;
nodes = (
"510 0 LINE",
"546 174 LINE",
"273 174 LINE",
"286 232 LINE",
"521 232 LINE",
"559 412 LINE",
"324 412 LINE",
"336 470 LINE",
"609 470 LINE",
"646 644 LINE",
"131 644 LINE",
"-5 0 LINE"
);
},
{
closed = 1;
nodes = (
"547 693 OFFCURVE",
"590 710 OFFCURVE",
"607 728 CURVE",
"637 869 LINE",
"616 847 OFFCURVE",
"576 828 OFFCURVE",
"530 828 CURVE SMOOTH",
"461 828 OFFCURVE",
"412 872 OFFCURVE",
"339 872 CURVE SMOOTH",
"297 872 OFFCURVE",
"253 855 OFFCURVE",
"229 837 CURVE",
"199 696 LINE",
"228 720 OFFCURVE",
"267 737 OFFCURVE",
"313 737 CURVE SMOOTH",
"374 737 OFFCURVE",
"433 693 OFFCURVE",
"505 693 CURVE SMOOTH"
);
}
);
width = 555;
}
);
note = Etilde;
unicode = 1EBC;
},
{
glyphname = F;
lastChange = "2015-10-23 06:14:18 +0000";
layers = (
{
layerId = "098F4D9A-293F-4750-B0F4-D0E702B92EEF";
name = "Bold Italic";
paths = (
{
closed = 1;
nodes = (
"237 0 LINE",
"286 232 LINE",
"521 232 LINE",
"559 412 LINE",
"324 412 LINE",
"336 470 LINE",
"609 470 LINE",
"646 644 LINE",
"131 644 LINE",
"-5 0 LINE"
);
}
);
width = 545;
}
);
note = F;
unicode = 0046;
},
{
glyphname = G;
lastChange = "2015-10-23 07:09:38 +0000";
layers = (
{
layerId = "098F4D9A-293F-4750-B0F4-D0E702B92EEF";
name = "Bold Italic";
paths = (
{
closed = 1;
nodes = (
"465 -10 OFFCURVE",
"557 19 OFFCURVE",
"619 53 CURVE",
"690 386 LINE",
"383 386 LINE",
"352 240 LINE",
"459 240 LINE",
"450 201 LINE",
"429 196 OFFCURVE",
"412 194 OFFCURVE",
"389 194 CURVE SMOOTH",
"314 194 OFFCURVE",
"283 213 OFFCURVE",
"283 267 CURVE SMOOTH",
"283 283 OFFCURVE",
"285 301 OFFCURVE",
"290 322 CURVE SMOOTH",
"311 419 OFFCURVE",
"384 450 OFFCURVE",
"478 450 CURVE SMOOTH",
"544 450 OFFCURVE",
"606 443 OFFCURVE",
"663 419 CURVE",
"705 621 LINE",
"649 642 OFFCURVE",
"589 654 OFFCURVE",
"506 654 CURVE SMOOTH",
"238 654 OFFCURVE",
"89 541 OFFCURVE",
"43 322 CURVE SMOOTH",
"36 291 OFFCURVE",
"33 262 OFFCURVE",
"33 235 CURVE SMOOTH",
"33 73 OFFCURVE",
"151 -10 OFFCURVE",
"347 -10 CURVE SMOOTH"
);
}
);
width = 663;
}
);
leftKerningGroup = C;
note = G;
unicode = 0047;
},
{
glyphname = Gbreve;
lastChange = "2015-10-23 07:09:38 +0000";
layers = (
{
layerId = "098F4D9A-293F-4750-B0F4-D0E702B92EEF";
name = "Bold Italic";
paths = (
{
closed = 1;
nodes = (
"465 -10 OFFCURVE",
"557 19 OFFCURVE",
"619 53 CURVE",
"690 386 LINE",
"383 386 LINE",
"352 240 LINE",
"459 240 LINE",
"450 201 LINE",
"429 196 OFFCURVE",
"412 194 OFFCURVE",
"389 194 CURVE SMOOTH",
"314 194 OFFCURVE",
"283 213 OFFCURVE",
"283 267 CURVE SMOOTH",
"283 283 OFFCURVE",
"285 301 OFFCURVE",
"290 322 CURVE SMOOTH",
"311 419 OFFCURVE",
"384 450 OFFCURVE",
"478 450 CURVE SMOOTH",
"544 450 OFFCURVE",
"606 443 OFFCURVE",
"663 419 CURVE",
"705 621 LINE",
"649 642 OFFCURVE",
"589 654 OFFCURVE",
"506 654 CURVE SMOOTH",
"238 654 OFFCURVE",
"89 541 OFFCURVE",
"43 322 CURVE SMOOTH",
"36 291 OFFCURVE",
"33 262 OFFCURVE",
"33 235 CURVE SMOOTH",
"33 73 OFFCURVE",
"151 -10 OFFCURVE",
"347 -10 CURVE SMOOTH"
);
},
{
closed = 1;
nodes = (
"626 688 OFFCURVE",
"729 765 OFFCURVE",
"760 908 CURVE",
"598 908 LINE",
"588 863 OFFCURVE",
"564 820 OFFCURVE",
"513 820 CURVE SMOOTH",
"476 820 OFFCURVE",
"463 844 OFFCURVE",
"463 875 CURVE SMOOTH",
"463 885 OFFCURVE",
"464 897 OFFCURVE",
"467 908 CURVE",
"320 908 LINE",
"315 886 OFFCURVE",
"313 865 OFFCURVE",
"313 846 CURVE SMOOTH",
"313 743 OFFCURVE",
"381 688 OFFCURVE",
"492 688 CURVE SMOOTH"
);
}
);
width = 663;
}
);
leftKerningGroup = C;
note = Gbreve;
unicode = 011E;
},
{
glyphname = Gcaron;
lastChange = "2015-10-23 07:09:38 +0000";
layers = (
{
layerId = "098F4D9A-293F-4750-B0F4-D0E702B92EEF";
name = "Bold Italic";
paths = (
{
closed = 1;
nodes = (
"465 -10 OFFCURVE",
"557 19 OFFCURVE",
"619 53 CURVE",
"690 386 LINE",
"383 386 LINE",
"352 240 LINE",
"459 240 LINE",
"450 201 LINE",
"429 196 OFFCURVE",
"412 194 OFFCURVE",
"389 194 CURVE SMOOTH",
"314 194 OFFCURVE",
"283 213 OFFCURVE",
"283 267 CURVE SMOOTH",
"283 283 OFFCURVE",
"285 301 OFFCURVE",
"290 322 CURVE SMOOTH",
"311 419 OFFCURVE",
"384 450 OFFCURVE",
"478 450 CURVE SMOOTH",
"544 450 OFFCURVE",
"606 443 OFFCURVE",
"663 419 CURVE",
"705 621 LINE",
"649 642 OFFCURVE",
"589 654 OFFCURVE",
"506 654 CURVE SMOOTH",
"238 654 OFFCURVE",
"89 541 OFFCURVE",
"43 322 CURVE SMOOTH",
"36 291 OFFCURVE",
"33 262 OFFCURVE",
"33 235 CURVE SMOOTH",
"33 73 OFFCURVE",
"151 -10 OFFCURVE",
"347 -10 CURVE SMOOTH"
);
},
{
closed = 1;
nodes = (
"556 687 LINE",
"777 903 LINE",
"602 903 LINE",
"503 796 LINE",
"452 903 LINE",
"287 903 LINE",
"416 687 LINE"
);
}
);
width = 663;
}
);
leftKerningGroup = C;
note = Gcaron;
unicode = 01E6;
},
{
glyphname = Gcircumflex;
lastChange = "2015-10-23 07:09:38 +0000";
layers = (
{
layerId = "098F4D9A-293F-4750-B0F4-D0E702B92EEF";
name = "Bold Italic";
paths = (
{
closed = 1;
nodes = (
"465 -10 OFFCURVE",
"557 19 OFFCURVE",
"619 53 CURVE",
"690 386 LINE",
"383 386 LINE",
"352 240 LINE",
"459 240 LINE",
"450 201 LINE",
"429 196 OFFCURVE",
"412 194 OFFCURVE",
"389 194 CURVE SMOOTH",
"314 194 OFFCURVE",
"283 213 OFFCURVE",
"283 267 CURVE SMOOTH",
"283 283 OFFCURVE",
"285 301 OFFCURVE",
"290 322 CURVE SMOOTH",
"311 419 OFFCURVE",
"384 450 OFFCURVE",
"478 450 CURVE SMOOTH",
"544 450 OFFCURVE",
"606 443 OFFCURVE",
"663 419 CURVE",
"705 621 LINE",
"649 642 OFFCURVE",
"589 654 OFFCURVE",
"506 654 CURVE SMOOTH",
"238 654 OFFCURVE",
"89 541 OFFCURVE",
"43 322 CURVE SMOOTH",
"36 291 OFFCURVE",
"33 262 OFFCURVE",
"33 235 CURVE SMOOTH",
"33 73 OFFCURVE",
"151 -10 OFFCURVE",
"347 -10 CURVE SMOOTH"
);
},
{
closed = 1;
nodes = (
"409 688 LINE",
"504 795 LINE",
"558 688 LINE",
"719 688 LINE",
"590 904 LINE",
"449 904 LINE",
"229 688 LINE"
);
}
);
width = 663;
}
);
leftKerningGroup = C;
note = Gcircumflex;
unicode = 011C;
},
{
glyphname = Gcommaaccent;
lastChange = "2015-10-23 07:09:39 +0000";
layers = (
{
layerId = "098F4D9A-293F-4750-B0F4-D0E702B92EEF";
name = "Bold Italic";
paths = (
{
closed = 1;
nodes = (
"465 -10 OFFCURVE",
"557 19 OFFCURVE",
"619 53 CURVE",
"690 386 LINE",
"383 386 LINE",
"352 240 LINE",
"459 240 LINE",
"450 201 LINE",
"429 196 OFFCURVE",
"412 194 OFFCURVE",
"389 194 CURVE SMOOTH",
"314 194 OFFCURVE",
"283 213 OFFCURVE",
"283 267 CURVE SMOOTH",
"283 283 OFFCURVE",
"285 301 OFFCURVE",
"290 322 CURVE SMOOTH",
"311 419 OFFCURVE",
"384 450 OFFCURVE",
"478 450 CURVE SMOOTH",
"544 450 OFFCURVE",
"606 443 OFFCURVE",
"663 419 CURVE",
"705 621 LINE",
"649 642 OFFCURVE",
"589 654 OFFCURVE",
"506 654 CURVE SMOOTH",
"238 654 OFFCURVE",
"89 541 OFFCURVE",
"43 322 CURVE SMOOTH",
"36 291 OFFCURVE",
"33 262 OFFCURVE",
"33 235 CURVE SMOOTH",
"33 73 OFFCURVE",
"151 -10 OFFCURVE",
"347 -10 CURVE SMOOTH"
);
},
{
closed = 1;
nodes = (
"326 -286 LINE",
"444 -37 LINE",
"265 -37 LINE",
"176 -286 LINE"
);
}
);
width = 663;
}
);
leftKerningGroup = C;
note = Gcommaaccent;
unicode = 0122;
},
{
glyphname = Gdotaccent;
lastChange = "2015-10-23 07:09:38 +0000";
layers = (
{
layerId = "098F4D9A-293F-4750-B0F4-D0E702B92EEF";
name = "Bold Italic";
paths = (
{
closed = 1;
nodes = (
"465 -10 OFFCURVE",
"557 19 OFFCURVE",
"619 53 CURVE",
"690 386 LINE",
"383 386 LINE",
"352 240 LINE",
"459 240 LINE",
"450 201 LINE",
"429 196 OFFCURVE",
"412 194 OFFCURVE",
"389 194 CURVE SMOOTH",
"314 194 OFFCURVE",
"283 213 OFFCURVE",
"283 267 CURVE SMOOTH",
"283 283 OFFCURVE",
"285 301 OFFCURVE",
"290 322 CURVE SMOOTH",
"311 419 OFFCURVE",
"384 450 OFFCURVE",
"478 450 CURVE SMOOTH",
"544 450 OFFCURVE",
"606 443 OFFCURVE",
"663 419 CURVE",
"705 621 LINE",
"649 642 OFFCURVE",
"589 654 OFFCURVE",
"506 654 CURVE SMOOTH",
"238 654 OFFCURVE",
"89 541 OFFCURVE",
"43 322 CURVE SMOOTH",
"36 291 OFFCURVE",
"33 262 OFFCURVE",
"33 235 CURVE SMOOTH",
"33 73 OFFCURVE",
"151 -10 OFFCURVE",
"347 -10 CURVE SMOOTH"
);
},
{
closed = 1;
nodes = (
"588 718 LINE",
"618 859 LINE",
"462 859 LINE",
"433 718 LINE"
);
}
);
width = 663;
}
);
leftKerningGroup = C;
note = Gdotaccent;
unicode = 0120;
},
{
glyphname = Gmacron;
lastChange = "2015-10-23 07:09:38 +0000";
layers = (
{
layerId = "098F4D9A-293F-4750-B0F4-D0E702B92EEF";
name = "Bold Italic";
paths = (
{
closed = 1;
nodes = (
"465 -10 OFFCURVE",
"557 19 OFFCURVE",
"619 53 CURVE",
"690 386 LINE",
"383 386 LINE",
"352 240 LINE",
"459 240 LINE",
"450 201 LINE",
"429 196 OFFCURVE",
"412 194 OFFCURVE",
"389 194 CURVE SMOOTH",
"314 194 OFFCURVE",
"283 213 OFFCURVE",
"283 267 CURVE SMOOTH",
"283 283 OFFCURVE",
"285 301 OFFCURVE",
"290 322 CURVE SMOOTH",
"311 419 OFFCURVE",
"384 450 OFFCURVE",
"478 450 CURVE SMOOTH",
"544 450 OFFCURVE",
"606 443 OFFCURVE",
"663 419 CURVE",
"705 621 LINE",
"649 642 OFFCURVE",
"589 654 OFFCURVE",
"506 654 CURVE SMOOTH",
"238 654 OFFCURVE",
"89 541 OFFCURVE",
"43 322 CURVE SMOOTH",
"36 291 OFFCURVE",
"33 262 OFFCURVE",
"33 235 CURVE SMOOTH",
"33 73 OFFCURVE",
"151 -10 OFFCURVE",
"347 -10 CURVE SMOOTH"
);
},
{
closed = 1;
nodes = (
"678 718 LINE",
"708 858 LINE",
"360 858 LINE",
"330 718 LINE"
);
}
);
width = 663;
}
);
leftKerningGroup = C;
note = Gmacron;
unicode = 1E20;
},
{
glyphname = H;
lastChange = "2015-10-23 06:14:18 +0000";
layers = (
{
layerId = "098F4D9A-293F-4750-B0F4-D0E702B92EEF";
name = "Bold Italic";
paths = (
{
closed = 1;
nodes = (
"237 0 LINE",
"281 210 LINE",
"442 210 LINE",
"398 0 LINE",
"640 0 LINE",
"776 644 LINE",
"534 644 LINE",
"490 434 LINE",
"329 434 LINE",
"373 644 LINE",
"131 644 LINE",
"-5 0 LINE"
);
}
);
width = 715;
}
);
note = H;
unicode = 0048;
},
{
glyphname = Hbar;
lastChange = "2015-10-23 06:14:17 +0000";
layers = (
{
layerId = "098F4D9A-293F-4750-B0F4-D0E702B92EEF";
name = "Bold Italic";
paths = (
{
closed = 1;
nodes = (
"248 0 LINE",
"292 210 LINE",
"453 210 LINE",
"409 0 LINE",
"651 0 LINE",
"752 480 LINE",
"784 480 LINE",
"808 595 LINE",
"776 595 LINE",
"787 644 LINE",
"545 644 LINE",
"534 595 LINE",
"373 595 LINE",
"384 644 LINE",
"142 644 LINE",
"131 595 LINE",
"101 595 LINE",
"77 480 LINE",
"107 480 LINE",
"6 0 LINE"
);
},
{
closed = 1;
nodes = (
"349 480 LINE",
"510 480 LINE",
"501 434 LINE",
"340 434 LINE"
);
}
);
width = 737;
}
);
note = Hbar;
unicode = 0126;
},
{
glyphname = Hbrevebelow;
lastChange = "2015-10-23 07:09:38 +0000";
layers = (
{
layerId = "098F4D9A-293F-4750-B0F4-D0E702B92EEF";
name = "Bold Italic";
paths = (
{
closed = 1;
nodes = (
"237 0 LINE",
"281 210 LINE",
"442 210 LINE",
"398 0 LINE",
"640 0 LINE",
"776 644 LINE",
"534 644 LINE",
"490 434 LINE",
"329 434 LINE",
"373 644 LINE",
"131 644 LINE",
"-5 0 LINE"
);
},
{
closed = 1;
nodes = (
"412 -260 OFFCURVE",
"500 -183 OFFCURVE",
"530 -40 CURVE",
"368 -40 LINE",
"363 -90 OFFCURVE",
"335 -128 OFFCURVE",
"284 -128 CURVE SMOOTH",
"247 -128 OFFCURVE",
"234 -104 OFFCURVE",
"234 -73 CURVE SMOOTH",
"234 -63 OFFCURVE",
"235 -51 OFFCURVE",
"238 -40 CURVE",
"90 -40 LINE",
"85 -62 OFFCURVE",
"83 -83 OFFCURVE",
"83 -101 CURVE SMOOTH",
"83 -205 OFFCURVE",
"151 -260 OFFCURVE",
"263 -260 CURVE SMOOTH"
);
}
);
width = 715;
}
);
note = Hbrevebelow;
unicode = 1E2A;
},
{
glyphname = Hcircumflex;
lastChange = "2015-10-23 06:14:18 +0000";
layers = (
{
layerId = "098F4D9A-293F-4750-B0F4-D0E702B92EEF";
name = "Bold Italic";
paths = (
{
closed = 1;
nodes = (
"237 0 LINE",
"281 210 LINE",
"442 210 LINE",
"398 0 LINE",
"640 0 LINE",
"776 644 LINE",
"534 644 LINE",
"490 434 LINE",
"329 434 LINE",
"373 644 LINE",
"131 644 LINE",
"-5 0 LINE"
);
},
{
closed = 1;
nodes = (
"397 688 LINE",
"492 795 LINE",
"546 688 LINE",
"707 688 LINE",
"578 904 LINE",
"437 904 LINE",
"217 688 LINE"
);
}
);
width = 715;
}
);
note = Hcircumflex;
unicode = 0124;
},
{
glyphname = Hdotbelow;
lastChange = "2015-10-23 06:14:17 +0000";
layers = (
{
layerId = "098F4D9A-293F-4750-B0F4-D0E702B92EEF";
name = "Bold Italic";
paths = (
{
closed = 1;
nodes = (
"237 0 LINE",
"281 210 LINE",
"442 210 LINE",
"398 0 LINE",
"640 0 LINE",
"776 644 LINE",
"534 644 LINE",
"490 434 LINE",
"329 434 LINE",
"373 644 LINE",
"131 644 LINE",
"-5 0 LINE"
);
},
{
closed = 1;
nodes = (
"349 -213 LINE",
"379 -72 LINE",
"223 -72 LINE",
"193 -213 LINE"
);
}
);
width = 715;
}
);
note = Hdotbelow;
unicode = 1E24;
},
{
glyphname = I;
lastChange = "2015-10-23 06:14:17 +0000";
layers = (
{
layerId = "098F4D9A-293F-4750-B0F4-D0E702B92EEF";
name = "Bold Italic";
paths = (
{
closed = 1;
nodes = (
"237 0 LINE",
"373 644 LINE",
"131 644 LINE",
"-5 0 LINE"
);
}
);
width = 312;
}
);
note = I;
unicode = 0049;
},
{
glyphname = IJ;
lastChange = "2015-10-23 06:14:18 +0000";
layers = (
{
layerId = "098F4D9A-293F-4750-B0F4-D0E702B92EEF";
name = "Bold Italic";
paths = (
{
closed = 1;
nodes = (
"625 -10 OFFCURVE",
"714 69 OFFCURVE",
"745 216 CURVE SMOOTH",
"836 644 LINE",
"594 644 LINE",
"516 275 LINE SMOOTH",
"503 216 OFFCURVE",
"484 195 OFFCURVE",
"416 195 CURVE SMOOTH",
"377 195 OFFCURVE",
"338 201 OFFCURVE",
"308 214 CURVE",
"266 13 LINE",
"314 -4 OFFCURVE",
"365 -10 OFFCURVE",
"422 -10 CURVE SMOOTH"
);
},
{
closed = 1;
nodes = (
"237 0 LINE",
"373 644 LINE",
"131 644 LINE",
"-5 0 LINE"
);
}
);
width = 770;
}
);
note = IJ;
rightKerningGroup = J;
unicode = 0132;
},
{
glyphname = Iacute;
lastChange = "2015-10-23 06:14:17 +0000";
layers = (
{
layerId = "098F4D9A-293F-4750-B0F4-D0E702B92EEF";
name = "Bold Italic";
paths = (
{
closed = 1;
nodes = (
"237 0 LINE",
"373 644 LINE",
"131 644 LINE",
"-5 0 LINE"
);
},
{
closed = 1;
nodes = (
"346 688 LINE",
"499 914 LINE",
"313 914 LINE",
"169 688 LINE"
);
}
);
width = 312;
}
);
note = Iacute;
unicode = 00CD;
},
{
glyphname = Ibreve;
lastChange = "2015-10-23 07:09:38 +0000";
layers = (
{
layerId = "098F4D9A-293F-4750-B0F4-D0E702B92EEF";
name = "Bold Italic";
paths = (
{
closed = 1;
nodes = (
"237 0 LINE",
"373 644 LINE",
"131 644 LINE",
"-5 0 LINE"
);
},
{
closed = 1;
nodes = (
"401 714 OFFCURVE",
"504 791 OFFCURVE",
"535 934 CURVE",
"373 934 LINE",
"363 889 OFFCURVE",
"339 846 OFFCURVE",
"288 846 CURVE SMOOTH",
"251 846 OFFCURVE",
"238 870 OFFCURVE",
"238 901 CURVE SMOOTH",
"238 911 OFFCURVE",
"239 923 OFFCURVE",
"242 934 CURVE",
"95 934 LINE",
"90 912 OFFCURVE",
"88 891 OFFCURVE",
"88 872 CURVE SMOOTH",
"88 769 OFFCURVE",
"156 714 OFFCURVE",
"267 714 CURVE SMOOTH"
);
}
);
width = 312;
}
);
note = Ibreve;
unicode = 012C;
},
{
glyphname = Icaron;
lastChange = "2015-10-23 06:14:17 +0000";
layers = (
{
layerId = "098F4D9A-293F-4750-B0F4-D0E702B92EEF";
name = "Bold Italic";
paths = (
{
closed = 1;
nodes = (
"237 0 LINE",
"373 644 LINE",
"131 644 LINE",
"-5 0 LINE"
);
},
{
closed = 1;
nodes = (
"332 688 LINE",
"553 904 LINE",
"378 904 LINE",
"279 797 LINE",
"228 904 LINE",
"63 904 LINE",
"192 688 LINE"
);
}
);
width = 312;
}
);
note = Icaron;
unicode = 01CF;
},
{
glyphname = Icircumflex;
lastChange = "2015-10-23 06:14:17 +0000";
layers = (
{
layerId = "098F4D9A-293F-4750-B0F4-D0E702B92EEF";
name = "Bold Italic";
paths = (
{
closed = 1;
nodes = (
"237 0 LINE",
"373 644 LINE",
"131 644 LINE",
"-5 0 LINE"
);
},
{
closed = 1;
nodes = (
"197 688 LINE",
"292 795 LINE",
"346 688 LINE",
"507 688 LINE",
"378 904 LINE",
"237 904 LINE",
"17 688 LINE"
);
}
);
width = 312;
}
);
note = Icircumflex;
unicode = 00CE;
},
{
glyphname = Idieresis;
lastChange = "2015-10-23 06:14:17 +0000";
layers = (
{
layerId = "098F4D9A-293F-4750-B0F4-D0E702B92EEF";
name = "Bold Italic";
paths = (
{
closed = 1;
nodes = (
"237 0 LINE",
"373 644 LINE",
"131 644 LINE",
"-5 0 LINE"
);
},
{
closed = 1;
nodes = (
"230 728 LINE",
"260 869 LINE",
"105 869 LINE",
"75 728 LINE"
);
},
{
closed = 1;
nodes = (
"465 728 LINE",
"495 869 LINE",
"339 869 LINE",
"309 728 LINE"
);
}
);
width = 312;
}
);
note = Idieresis;
unicode = 00CF;
},
{
glyphname = Idotaccent;
lastChange = "2015-10-23 06:14:17 +0000";
layers = (
{
layerId = "098F4D9A-293F-4750-B0F4-D0E702B92EEF";
name = "Bold Italic";
paths = (
{
closed = 1;
nodes = (
"237 0 LINE",
"373 644 LINE",
"131 644 LINE",
"-5 0 LINE"
);
},
{
closed = 1;
nodes = (
"347 728 LINE",
"377 869 LINE",
"221 869 LINE",
"192 728 LINE"
);
}
);
width = 312;
}
);
note = Idotaccent;
unicode = 0130;
},
{
glyphname = Idotbelow;
lastChange = "2015-10-23 06:14:17 +0000";
layers = (
{
layerId = "098F4D9A-293F-4750-B0F4-D0E702B92EEF";
name = "Bold Italic";
paths = (
{
closed = 1;
nodes = (
"237 0 LINE",
"373 644 LINE",
"131 644 LINE",
"-5 0 LINE"
);
},
{
closed = 1;
nodes = (
"149 -213 LINE",
"179 -72 LINE",
"23 -72 LINE",
"-7 -213 LINE"
);
}
);
width = 312;
}
);
note = Idotbelow;
unicode = 1ECA;
},
{
glyphname = Igrave;
lastChange = "2015-10-23 06:14:18 +0000";
layers = (
{
layerId = "098F4D9A-293F-4750-B0F4-D0E702B92EEF";
name = "Bold Italic";
paths = (
{
closed = 1;
nodes = (
"237 0 LINE",
"373 644 LINE",
"131 644 LINE",
"-5 0 LINE"
);
},
{
closed = 1;
nodes = (
"349 688 LINE",
"301 914 LINE",
"115 914 LINE",
"172 688 LINE"
);
}
);
width = 312;
}
);
note = Igrave;
unicode = 00CC;
},
{
glyphname = Ihookabove;
lastChange = "2015-10-23 07:09:38 +0000";
layers = (
{
layerId = "098F4D9A-293F-4750-B0F4-D0E702B92EEF";
name = "Bold Italic";
paths = (
{
closed = 1;
nodes = (
"237 0 LINE",
"373 644 LINE",
"131 644 LINE",
"-5 0 LINE"
);
},
{
closed = 1;
nodes = (
"349 688 LINE",
"357 724 LINE",
"418 742 OFFCURVE",
"448 768 OFFCURVE",
"461 828 CURVE SMOOTH",
"462 835 OFFCURVE",
"463 841 OFFCURVE",
"463 848 CURVE SMOOTH",
"463 898 OFFCURVE",
"418 935 OFFCURVE",
"332 935 CURVE SMOOTH",
"274 935 OFFCURVE",
"233 929 OFFCURVE",
"199 920 CURVE",
"179 826 LINE",
"196 832 OFFCURVE",
"217 836 OFFCURVE",
"237 836 CURVE SMOOTH",
"271 836 OFFCURVE",
"286 828 OFFCURVE",
"281 808 CURVE",
"277 788 OFFCURVE",
"254 773 OFFCURVE",
"188 769 CURVE",
"171 688 LINE"
);
}
);
width = 312;
}
);
note = Ihookabove;
unicode = 1EC8;
},
{
glyphname = Imacron;
lastChange = "2015-10-23 06:14:18 +0000";
layers = (
{
layerId = "098F4D9A-293F-4750-B0F4-D0E702B92EEF";
name = "Bold Italic";
paths = (
{
closed = 1;
nodes = (
"237 0 LINE",
"373 644 LINE",
"131 644 LINE",
"-5 0 LINE"
);
},
{
closed = 1;
nodes = (
"445 728 LINE",
"475 868 LINE",
"126 868 LINE",
"96 728 LINE"
);
}
);
width = 312;
}
);
note = Imacron;
unicode = 012A;
},
{
glyphname = Iogonek;
lastChange = "2015-10-23 07:09:38 +0000";
layers = (
{
layerId = "098F4D9A-293F-4750-B0F4-D0E702B92EEF";
name = "Bold Italic";
paths = (
{
closed = 1;
nodes = (
"121 -220 OFFCURVE",
"169 -210 OFFCURVE",
"194 -202 CURVE",
"216 -96 LINE",
"203 -103 OFFCURVE",
"180 -107 OFFCURVE",
"163 -107 CURVE SMOOTH",
"138 -107 OFFCURVE",
"122 -102 OFFCURVE",
"122 -84 CURVE SMOOTH",
"122 -82 OFFCURVE",
"122 -79 OFFCURVE",
"123 -76 CURVE",
"130 -47 OFFCURVE",
"155 -21 OFFCURVE",
"188 0 CURVE",
"237 0 LINE",
"373 644 LINE",
"131 644 LINE",
"-5 0 LINE",
"44 0 LINE",
"-8 -26 OFFCURVE",
"-58 -76 OFFCURVE",
"-58 -140 CURVE SMOOTH",
"-58 -195 OFFCURVE",
"-9 -220 OFFCURVE",
"71 -220 CURVE SMOOTH"
);
}
);
width = 312;
}
);
note = Iogonek;
unicode = 012E;
},
{
glyphname = Itilde;
lastChange = "2015-10-23 06:14:17 +0000";
layers = (
{
layerId = "098F4D9A-293F-4750-B0F4-D0E702B92EEF";
name = "Bold Italic";
paths = (
{
closed = 1;
nodes = (
"237 0 LINE",
"373 644 LINE",
"131 644 LINE",
"-5 0 LINE"
);
},
{
closed = 1;
nodes = (
"418 723 OFFCURVE",
"461 740 OFFCURVE",
"478 758 CURVE",
"508 899 LINE",
"487 877 OFFCURVE",
"447 858 OFFCURVE",
"401 858 CURVE SMOOTH",
"332 858 OFFCURVE",
"283 902 OFFCURVE",
"210 902 CURVE SMOOTH",
"168 902 OFFCURVE",
"124 885 OFFCURVE",
"100 867 CURVE",
"70 726 LINE",
"99 750 OFFCURVE",
"138 767 OFFCURVE",
"184 767 CURVE SMOOTH",
"245 767 OFFCURVE",
"304 723 OFFCURVE",
"376 723 CURVE SMOOTH"
);
}
);
width = 312;
}
);
note = Itilde;
unicode = 0128;
},
{
glyphname = J;
lastChange = "2015-10-23 06:14:17 +0000";
layers = (
{
layerId = "098F4D9A-293F-4750-B0F4-D0E702B92EEF";
name = "Bold Italic";
paths = (
{
closed = 1;
nodes = (
"317 -10 OFFCURVE",
"406 69 OFFCURVE",
"437 216 CURVE SMOOTH",
"528 644 LINE",
"286 644 LINE",
"208 275 LINE SMOOTH",
"195 216 OFFCURVE",
"176 195 OFFCURVE",
"108 195 CURVE SMOOTH",
"69 195 OFFCURVE",
"30 201 OFFCURVE",
"0 214 CURVE",
"-42 13 LINE",
"6 -4 OFFCURVE",
"57 -10 OFFCURVE",
"114 -10 CURVE SMOOTH"
);
}
);
width = 462;
}
);
leftKerningGroup = J;
note = J;
rightKerningGroup = J;
unicode = 004A;
},
{
glyphname = Jcircumflex;
lastChange = "2015-10-23 06:14:18 +0000";
layers = (
{
layerId = "098F4D9A-293F-4750-B0F4-D0E702B92EEF";
name = "Bold Italic";
paths = (
{
closed = 1;
nodes = (
"317 -10 OFFCURVE",
"406 69 OFFCURVE",
"437 216 CURVE SMOOTH",
"528 644 LINE",
"286 644 LINE",
"208 275 LINE SMOOTH",
"195 216 OFFCURVE",
"176 195 OFFCURVE",
"108 195 CURVE SMOOTH",
"69 195 OFFCURVE",
"30 201 OFFCURVE",
"0 214 CURVE",
"-42 13 LINE",
"6 -4 OFFCURVE",
"57 -10 OFFCURVE",
"114 -10 CURVE SMOOTH"
);
},
{
closed = 1;
nodes = (
"357 688 LINE",
"452 795 LINE",
"506 688 LINE",
"667 688 LINE",
"538 904 LINE",
"397 904 LINE",
"177 688 LINE"
);
}
);
width = 462;
}
);
leftKerningGroup = J;
note = Jcircumflex;
rightKerningGroup = J;
unicode = 0134;
},
{
glyphname = K;
lastChange = "2015-10-23 06:14:17 +0000";
layers = (
{
layerId = "098F4D9A-293F-4750-B0F4-D0E702B92EEF";
name = "Bold Italic";
paths = (
{
closed = 1;
nodes = (
"237 0 LINE",
"272 168 LINE",
"330 224 LINE",
"415 0 LINE",
"671 0 LINE",
"511 377 LINE",
"787 644 LINE",
"514 644 LINE",
"335 464 LINE",
"373 644 LINE",
"131 644 LINE",
"-5 0 LINE"
);
}
);
width = 726;
}
);
note = K;
rightKerningGroup = K;
unicode = 004B;
},
{
glyphname = Kcommaaccent;
lastChange = "2015-10-23 06:14:17 +0000";
layers = (
{
layerId = "098F4D9A-293F-4750-B0F4-D0E702B92EEF";
name = "Bold Italic";
paths = (
{
closed = 1;
nodes = (
"237 0 LINE",
"272 168 LINE",
"330 224 LINE",
"415 0 LINE",
"671 0 LINE",
"511 377 LINE",
"787 644 LINE",
"514 644 LINE",
"335 464 LINE",
"373 644 LINE",
"131 644 LINE",
"-5 0 LINE"
);
},
{
closed = 1;
nodes = (
"300 -286 LINE",
"418 -37 LINE",
"239 -37 LINE",
"150 -286 LINE"
);
}
);
width = 726;
}
);
note = Kcommaaccent;
rightKerningGroup = K;
unicode = 0136;
},
{
glyphname = L;
lastChange = "2015-10-23 06:14:18 +0000";
layers = (
{
layerId = "098F4D9A-293F-4750-B0F4-D0E702B92EEF";
name = "Bold Italic";
paths = (
{
closed = 1;
nodes = (
"500 0 LINE",
"539 184 LINE",
"276 184 LINE",
"373 644 LINE",
"131 644 LINE",
"-5 0 LINE"
);
}
);
width = 535;
}
);
note = L;
rightKerningGroup = L;
unicode = 004C;
},
{
glyphname = Lacute;
lastChange = "2015-10-23 06:14:18 +0000";
layers = (
{
layerId = "098F4D9A-293F-4750-B0F4-D0E702B92EEF";
name = "Bold Italic";
paths = (
{
closed = 1;
nodes = (
"500 0 LINE",
"539 184 LINE",
"276 184 LINE",
"373 644 LINE",
"131 644 LINE",
"-5 0 LINE"
);
},
{
closed = 1;
nodes = (
"353 688 LINE",
"506 914 LINE",
"320 914 LINE",
"176 688 LINE"
);
}
);
width = 535;
}
);
note = Lacute;
rightKerningGroup = L;
unicode = 0139;
},
{
glyphname = Lcaron;
lastChange = "2015-10-23 06:14:17 +0000";
layers = (
{
layerId = "098F4D9A-293F-4750-B0F4-D0E702B92EEF";
name = "Bold Italic";
paths = (
{
closed = 1;
nodes = (
"500 0 LINE",
"539 184 LINE",
"276 184 LINE",
"373 644 LINE",
"131 644 LINE",
"-5 0 LINE"
);
},
{
closed = 1;
nodes = (
"341 688 LINE",
"459 937 LINE",
"280 937 LINE",
"191 688 LINE"
);
}
);
width = 535;
}
);
note = Lcaron;
rightKerningGroup = L;
unicode = 013D;
},
{
glyphname = Lcommaaccent;
lastChange = "2015-10-23 06:14:17 +0000";
layers = (
{
layerId = "098F4D9A-293F-4750-B0F4-D0E702B92EEF";
name = "Bold Italic";
paths = (
{
closed = 1;
nodes = (
"500 0 LINE",
"539 184 LINE",
"276 184 LINE",
"373 644 LINE",
"131 644 LINE",
"-5 0 LINE"
);
},
{
closed = 1;
nodes = (
"252 -286 LINE",
"370 -37 LINE",
"191 -37 LINE",
"102 -286 LINE"
);
}
);
width = 535;
}
);
note = Lcommaaccent;
rightKerningGroup = L;
unicode = 013B;
},
{
glyphname = Ldot;
lastChange = "2015-10-23 06:14:17 +0000";
layers = (
{
layerId = "098F4D9A-293F-4750-B0F4-D0E702B92EEF";
name = "Bold Italic";
paths = (
{
closed = 1;
nodes = (
"500 0 LINE",
"539 184 LINE",
"276 184 LINE",
"373 644 LINE",
"131 644 LINE",
"-5 0 LINE"
);
},
{
closed = 1;
nodes = (
"505 310 LINE",
"535 451 LINE",
"379 451 LINE",
"349 310 LINE"
);
}
);
width = 535;
}
);
note = Ldot;
rightKerningGroup = L;
unicode = 013F;
},
{
glyphname = Ldotbelow;
lastChange = "2015-10-23 06:14:18 +0000";
layers = (
{
layerId = "098F4D9A-293F-4750-B0F4-D0E702B92EEF";
name = "Bold Italic";
paths = (
{
closed = 1;
nodes = (
"500 0 LINE",
"539 184 LINE",
"276 184 LINE",
"373 644 LINE",
"131 644 LINE",
"-5 0 LINE"
);
},
{
closed = 1;
nodes = (
"270 -213 LINE",
"300 -72 LINE",
"144 -72 LINE",
"114 -213 LINE"
);
}
);
width = 535;
}
);
note = Ldotbelow;
rightKerningGroup = L;
unicode = 1E36;
},
{
glyphname = Ldotbelowmacron;
lastChange = "2015-10-23 06:14:18 +0000";
layers = (
{
layerId = "098F4D9A-293F-4750-B0F4-D0E702B92EEF";
name = "Bold Italic";
paths = (
{
closed = 1;
nodes = (
"504 0 LINE",
"543 184 LINE",
"280 184 LINE",
"377 644 LINE",
"135 644 LINE",
"-1 0 LINE"
);
},
{
closed = 1;
nodes = (
"272 -213 LINE",
"302 -72 LINE",
"146 -72 LINE",
"116 -213 LINE"
);
},
{
closed = 1;
nodes = (
"441 718 LINE",
"471 858 LINE",
"123 858 LINE",
"93 718 LINE"
);
}
);
width = 539;
}
);
note = Ldotbelowmacron;
rightKerningGroup = L;
unicode = 1E38;
},
{
glyphname = Llinebelow;
lastChange = "2015-10-23 06:14:17 +0000";
layers = (
{
layerId = "098F4D9A-293F-4750-B0F4-D0E702B92EEF";
name = "Bold Italic";
paths = (
{
closed = 1;
nodes = (
"500 0 LINE",
"539 184 LINE",
"276 184 LINE",
"373 644 LINE",
"131 644 LINE",
"-5 0 LINE"
);
},
{
closed = 1;
nodes = (
"364 -214 LINE",
"394 -74 LINE",
"46 -74 LINE",
"16 -214 LINE"
);
}
);
width = 535;
}
);
note = Llinebelow;
rightKerningGroup = L;
unicode = 1E3A;
},
{
glyphname = Lslash;
lastChange = "2015-10-23 06:14:18 +0000";
layers = (
{
layerId = "098F4D9A-293F-4750-B0F4-D0E702B92EEF";
name = "Bold Italic";
paths = (
{
closed = 1;
nodes = (
"541 0 LINE",
"580 184 LINE",
"317 184 LINE",
"345 320 LINE",
"421 350 LINE",
"457 519 LINE",
"381 488 LINE",
"414 644 LINE",
"172 644 LINE",
"116 382 LINE",
"50 356 LINE",
"14 187 LINE",
"81 214 LINE",
"36 0 LINE"
);
}
);
width = 576;
}
);
note = Lslash;
rightKerningGroup = L;
unicode = 0141;
},
{
glyphname = M;
lastChange = "2015-10-23 06:14:17 +0000";
layers = (
{
layerId = "098F4D9A-293F-4750-B0F4-D0E702B92EEF";
name = "Bold Italic";
paths = (
{
closed = 1;
nodes = (
"237 0 LINE",
"285 226 LINE",
"317 110 LINE",
"440 110 LINE",
"522 226 LINE",
"474 0 LINE",
"716 0 LINE",
"852 644 LINE",
"616 644 LINE",
"430 378 LINE",
"355 644 LINE",
"131 644 LINE",
"-5 0 LINE"
);
}
);
width = 791;
}
);
note = M;
unicode = 004D;
},
{
glyphname = Mdotbelow;
lastChange = "2015-10-23 06:14:17 +0000";
layers = (
{
layerId = "098F4D9A-293F-4750-B0F4-D0E702B92EEF";
name = "Bold Italic";
paths = (
{
closed = 1;
nodes = (
"237 0 LINE",
"285 226 LINE",
"317 110 LINE",
"440 110 LINE",
"522 226 LINE",
"474 0 LINE",
"716 0 LINE",
"852 644 LINE",
"616 644 LINE",
"430 378 LINE",
"355 644 LINE",
"131 644 LINE",
"-5 0 LINE"
);
},
{
closed = 1;
nodes = (
"389 -213 LINE",
"419 -72 LINE",
"263 -72 LINE",
"233 -213 LINE"
);
}
);
width = 791;
}
);
note = Mdotbelow;
unicode = 1E42;
},
{
glyphname = N;
lastChange = "2015-10-23 06:14:17 +0000";
layers = (
{
layerId = "098F4D9A-293F-4750-B0F4-D0E702B92EEF";
name = "Bold Italic";
paths = (
{
closed = 1;
nodes = (
"237 0 LINE",
"290 252 LINE",
"416 0 LINE",
"620 0 LINE",
"756 644 LINE",
"514 644 LINE",
"461 392 LINE",
"334 644 LINE",
"131 644 LINE",
"-5 0 LINE"
);
}
);
width = 695;
}
);
note = N;
unicode = 004E;
},
{
glyphname = Nacute;
lastChange = "2015-10-23 06:14:17 +0000";
layers = (
{
layerId = "098F4D9A-293F-4750-B0F4-D0E702B92EEF";
name = "Bold Italic";
paths = (
{
closed = 1;
nodes = (
"237 0 LINE",
"290 252 LINE",
"416 0 LINE",
"620 0 LINE",
"756 644 LINE",
"514 644 LINE",
"461 392 LINE",
"334 644 LINE",
"131 644 LINE",
"-5 0 LINE"
);
},
{
closed = 1;
nodes = (
"509 688 LINE",
"662 914 LINE",
"476 914 LINE",
"332 688 LINE"
);
}
);
width = 695;
}
);
note = Nacute;
unicode = 0143;
},
{
glyphname = Ncaron;
lastChange = "2015-10-23 06:14:17 +0000";
layers = (
{
layerId = "098F4D9A-293F-4750-B0F4-D0E702B92EEF";
name = "Bold Italic";
paths = (
{
closed = 1;
nodes = (
"237 0 LINE",
"290 252 LINE",
"416 0 LINE",
"620 0 LINE",
"756 644 LINE",
"514 644 LINE",
"461 392 LINE",
"334 644 LINE",
"131 644 LINE",
"-5 0 LINE"
);
},
{
closed = 1;
nodes = (
"517 688 LINE",
"738 904 LINE",
"563 904 LINE",
"464 797 LINE",
"413 904 LINE",
"248 904 LINE",
"377 688 LINE"
);
}
);
width = 695;
}
);
note = Ncaron;
unicode = 0147;
},
{
glyphname = Ncommaaccent;
lastChange = "2015-10-23 06:14:17 +0000";
layers = (
{
layerId = "098F4D9A-293F-4750-B0F4-D0E702B92EEF";
name = "Bold Italic";
paths = (
{
closed = 1;
nodes = (
"237 0 LINE",
"290 252 LINE",
"416 0 LINE",
"620 0 LINE",
"756 644 LINE",
"514 644 LINE",
"461 392 LINE",
"334 644 LINE",
"131 644 LINE",
"-5 0 LINE"
);
},
{
closed = 1;
nodes = (
"290 -286 LINE",
"408 -37 LINE",
"229 -37 LINE",
"140 -286 LINE"
);
}
);
width = 695;
}
);
note = Ncommaaccent;
unicode = 0145;
},
{
glyphname = Ndotaccent;
lastChange = "2015-10-23 06:14:17 +0000";
layers = (
{
layerId = "098F4D9A-293F-4750-B0F4-D0E702B92EEF";
name = "Bold Italic";
paths = (
{
closed = 1;
nodes = (
"237 0 LINE",
"290 252 LINE",
"416 0 LINE",
"620 0 LINE",
"756 644 LINE",
"514 644 LINE",
"461 392 LINE",
"334 644 LINE",
"131 644 LINE",
"-5 0 LINE"
);
},
{
closed = 1;
nodes = (
"534 718 LINE",
"564 859 LINE",
"408 859 LINE",
"379 718 LINE"
);
}
);
width = 695;
}
);
note = Ndotaccent;
unicode = 1E44;
},
{
glyphname = Ndotbelow;
lastChange = "2015-10-23 06:14:17 +0000";
layers = (
{
layerId = "098F4D9A-293F-4750-B0F4-D0E702B92EEF";
name = "Bold Italic";
paths = (
{
closed = 1;
nodes = (
"237 0 LINE",
"290 252 LINE",
"416 0 LINE",
"620 0 LINE",
"756 644 LINE",
"514 644 LINE",
"461 392 LINE",
"334 644 LINE",
"131 644 LINE",
"-5 0 LINE"
);
},
{
closed = 1;
nodes = (
"347 -213 LINE",
"377 -72 LINE",
"221 -72 LINE",
"191 -213 LINE"
);
}
);
width = 695;
}
);
note = Ndotbelow;
unicode = 1E46;
},
{
glyphname = Eng;
lastChange = "2015-10-23 06:14:17 +0000";
layers = (
{
layerId = "098F4D9A-293F-4750-B0F4-D0E702B92EEF";
name = "Bold Italic";
paths = (
{
closed = 1;
nodes = (
"512 -234 OFFCURVE",
"587 -153 OFFCURVE",
"610 -43 CURVE SMOOTH",
"756 644 LINE",
"514 644 LINE",
"461 392 LINE",
"334 644 LINE",
"131 644 LINE",
"-5 0 LINE",
"237 0 LINE",
"290 252 LINE",
"389 53 LINE",
"372 -27 LINE SMOOTH",
"366 -52 OFFCURVE",
"348 -67 OFFCURVE",
"316 -67 CURVE SMOOTH",
"295 -67 OFFCURVE",
"277 -64 OFFCURVE",
"258 -57 CURVE",
"227 -207 LINE",
"265 -225 OFFCURVE",
"307 -234 OFFCURVE",
"368 -234 CURVE SMOOTH"
);
}
);
width = 695;
}
);
note = Eng;
unicode = 014A;
},
{
glyphname = Nlinebelow;
lastChange = "2015-10-23 06:14:17 +0000";
layers = (
{
layerId = "098F4D9A-293F-4750-B0F4-D0E702B92EEF";
name = "Bold Italic";
paths = (
{
closed = 1;
nodes = (
"237 0 LINE",
"290 252 LINE",
"416 0 LINE",
"620 0 LINE",
"756 644 LINE",
"514 644 LINE",
"461 392 LINE",
"334 644 LINE",
"131 644 LINE",
"-5 0 LINE"
);
},
{
closed = 1;
nodes = (
"436 -208 LINE",
"466 -68 LINE",
"118 -68 LINE",
"88 -208 LINE"
);
}
);
width = 695;
}
);
note = Nlinebelow;
unicode = 1E48;
},
{
glyphname = Ntilde;
lastChange = "2015-10-23 06:14:17 +0000";
layers = (
{
layerId = "098F4D9A-293F-4750-B0F4-D0E702B92EEF";
name = "Bold Italic";
paths = (
{
closed = 1;
nodes = (
"237 0 LINE",
"290 252 LINE",
"416 0 LINE",
"620 0 LINE",
"756 644 LINE",
"514 644 LINE",
"461 392 LINE",
"334 644 LINE",
"131 644 LINE",
"-5 0 LINE"
);
},
{
closed = 1;
nodes = (
"609 693 OFFCURVE",
"652 710 OFFCURVE",
"669 728 CURVE",
"699 869 LINE",
"678 847 OFFCURVE",
"638 828 OFFCURVE",
"592 828 CURVE SMOOTH",
"523 828 OFFCURVE",
"474 872 OFFCURVE",
"401 872 CURVE SMOOTH",
"359 872 OFFCURVE",
"315 855 OFFCURVE",
"291 837 CURVE",
"261 696 LINE",
"290 720 OFFCURVE",
"329 737 OFFCURVE",
"375 737 CURVE SMOOTH",
"436 737 OFFCURVE",
"495 693 OFFCURVE",
"567 693 CURVE SMOOTH"
);
}
);
width = 695;
}
);
note = Ntilde;
unicode = 00D1;
},
{
glyphname = O;
lastChange = "2015-10-23 07:09:38 +0000";
layers = (
{
layerId = "098F4D9A-293F-4750-B0F4-D0E702B92EEF";
name = "Bold Italic";
paths = (
{
closed = 1;
nodes = (
"547 -10 OFFCURVE",
"681 79 OFFCURVE",
"733 322 CURVE SMOOTH",
"741 361 OFFCURVE",
"745 396 OFFCURVE",
"745 427 CURVE SMOOTH",
"745 591 OFFCURVE",
"635 654 OFFCURVE",
"459 654 CURVE SMOOTH",
"233 654 OFFCURVE",
"95 565 OFFCURVE",
"43 322 CURVE SMOOTH",
"35 284 OFFCURVE",
"31 250 OFFCURVE",
"31 220 CURVE SMOOTH",
"31 54 OFFCURVE",
"145 -10 OFFCURVE",
"317 -10 CURVE SMOOTH"
);
},
{
closed = 1;
nodes = (
"304 195 OFFCURVE",
"282 213 OFFCURVE",
"282 259 CURVE SMOOTH",
"282 276 OFFCURVE",
"285 297 OFFCURVE",
"290 322 CURVE SMOOTH",
"310 415 OFFCURVE",
"344 449 OFFCURVE",
"415 449 CURVE SMOOTH",
"473 449 OFFCURVE",
"495 431 OFFCURVE",
"495 385 CURVE SMOOTH",
"495 368 OFFCURVE",
"491 347 OFFCURVE",
"486 322 CURVE SMOOTH",
"466 229 OFFCURVE",
"432 195 OFFCURVE",
"361 195 CURVE SMOOTH"
);
}
);
width = 720;
}
);
leftKerningGroup = O;
note = O;
rightKerningGroup = O;
unicode = 004F;
},
{
glyphname = Oacute;
lastChange = "2015-10-23 07:09:38 +0000";
layers = (
{
layerId = "098F4D9A-293F-4750-B0F4-D0E702B92EEF";
name = "Bold Italic";
paths = (
{
closed = 1;
nodes = (
"547 -10 OFFCURVE",
"681 79 OFFCURVE",
"733 322 CURVE SMOOTH",
"741 361 OFFCURVE",
"745 396 OFFCURVE",
"745 427 CURVE SMOOTH",
"745 591 OFFCURVE",
"635 654 OFFCURVE",
"459 654 CURVE SMOOTH",
"233 654 OFFCURVE",
"95 565 OFFCURVE",
"43 322 CURVE SMOOTH",
"35 284 OFFCURVE",
"31 250 OFFCURVE",
"31 220 CURVE SMOOTH",
"31 54 OFFCURVE",
"145 -10 OFFCURVE",
"317 -10 CURVE SMOOTH"
);
},
{
closed = 1;
nodes = (
"304 195 OFFCURVE",
"282 213 OFFCURVE",
"282 259 CURVE SMOOTH",
"282 276 OFFCURVE",
"285 297 OFFCURVE",
"290 322 CURVE SMOOTH",
"310 415 OFFCURVE",
"344 449 OFFCURVE",
"415 449 CURVE SMOOTH",
"473 449 OFFCURVE",
"495 431 OFFCURVE",
"495 385 CURVE SMOOTH",
"495 368 OFFCURVE",
"491 347 OFFCURVE",
"486 322 CURVE SMOOTH",
"466 229 OFFCURVE",
"432 195 OFFCURVE",
"361 195 CURVE SMOOTH"
);
},
{
closed = 1;
nodes = (
"535 688 LINE",
"688 914 LINE",
"502 914 LINE",
"358 688 LINE"
);
}
);
width = 720;
}
);
leftKerningGroup = O;
note = Oacute;
rightKerningGroup = O;
unicode = 00D3;
},
{
glyphname = Obreve;
lastChange = "2015-10-23 07:09:39 +0000";
layers = (
{
layerId = "098F4D9A-293F-4750-B0F4-D0E702B92EEF";
name = "Bold Italic";
paths = (
{
closed = 1;
nodes = (
"547 -10 OFFCURVE",
"681 79 OFFCURVE",
"733 322 CURVE SMOOTH",
"741 361 OFFCURVE",
"745 396 OFFCURVE",
"745 427 CURVE SMOOTH",
"745 591 OFFCURVE",
"635 654 OFFCURVE",
"459 654 CURVE SMOOTH",
"233 654 OFFCURVE",
"95 565 OFFCURVE",
"43 322 CURVE SMOOTH",
"35 284 OFFCURVE",
"31 250 OFFCURVE",
"31 220 CURVE SMOOTH",
"31 54 OFFCURVE",
"145 -10 OFFCURVE",
"317 -10 CURVE SMOOTH"
);
},
{
closed = 1;
nodes = (
"304 195 OFFCURVE",
"282 213 OFFCURVE",
"282 259 CURVE SMOOTH",
"282 276 OFFCURVE",
"285 297 OFFCURVE",
"290 322 CURVE SMOOTH",
"310 415 OFFCURVE",
"344 449 OFFCURVE",
"415 449 CURVE SMOOTH",
"473 449 OFFCURVE",
"495 431 OFFCURVE",
"495 385 CURVE SMOOTH",
"495 368 OFFCURVE",
"491 347 OFFCURVE",
"486 322 CURVE SMOOTH",
"466 229 OFFCURVE",
"432 195 OFFCURVE",
"361 195 CURVE SMOOTH"
);
},
{
closed = 1;
nodes = (
"599 688 OFFCURVE",
"702 765 OFFCURVE",
"733 908 CURVE",
"571 908 LINE",
"561 863 OFFCURVE",
"537 820 OFFCURVE",
"486 820 CURVE SMOOTH",
"449 820 OFFCURVE",
"436 844 OFFCURVE",
"436 875 CURVE SMOOTH",
"436 885 OFFCURVE",
"437 897 OFFCURVE",
"440 908 CURVE",
"293 908 LINE",
"288 886 OFFCURVE",
"286 865 OFFCURVE",
"286 846 CURVE SMOOTH",
"286 743 OFFCURVE",
"354 688 OFFCURVE",
"465 688 CURVE SMOOTH"
);
}
);
width = 720;
}
);
leftKerningGroup = O;
note = Obreve;
rightKerningGroup = O;
unicode = 014E;
},
{
glyphname = Ocaron;
lastChange = "2015-10-23 07:09:38 +0000";
layers = (
{
layerId = "098F4D9A-293F-4750-B0F4-D0E702B92EEF";
name = "Bold Italic";
paths = (
{
closed = 1;
nodes = (
"547 -10 OFFCURVE",
"681 79 OFFCURVE",
"733 322 CURVE SMOOTH",
"741 361 OFFCURVE",
"745 396 OFFCURVE",
"745 427 CURVE SMOOTH",
"745 591 OFFCURVE",
"635 654 OFFCURVE",
"459 654 CURVE SMOOTH",
"233 654 OFFCURVE",
"95 565 OFFCURVE",
"43 322 CURVE SMOOTH",
"35 284 OFFCURVE",
"31 250 OFFCURVE",
"31 220 CURVE SMOOTH",
"31 54 OFFCURVE",
"145 -10 OFFCURVE",
"317 -10 CURVE SMOOTH"
);
},
{
closed = 1;
nodes = (
"304 195 OFFCURVE",
"282 213 OFFCURVE",
"282 259 CURVE SMOOTH",
"282 276 OFFCURVE",
"285 297 OFFCURVE",
"290 322 CURVE SMOOTH",
"310 415 OFFCURVE",
"344 449 OFFCURVE",
"415 449 CURVE SMOOTH",
"473 449 OFFCURVE",
"495 431 OFFCURVE",
"495 385 CURVE SMOOTH",
"495 368 OFFCURVE",
"491 347 OFFCURVE",
"486 322 CURVE SMOOTH",
"466 229 OFFCURVE",
"432 195 OFFCURVE",
"361 195 CURVE SMOOTH"
);
},
{
closed = 1;
nodes = (
"536 688 LINE",
"757 904 LINE",
"582 904 LINE",
"483 797 LINE",
"432 904 LINE",
"267 904 LINE",
"396 688 LINE"
);
}
);
width = 720;
}
);
leftKerningGroup = O;
note = Ocaron;
rightKerningGroup = O;
unicode = 01D1;
},
{
glyphname = Ocircumflex;
lastChange = "2015-10-23 07:09:38 +0000";
layers = (
{
layerId = "098F4D9A-293F-4750-B0F4-D0E702B92EEF";
name = "Bold Italic";
paths = (
{
closed = 1;
nodes = (
"547 -10 OFFCURVE",
"681 79 OFFCURVE",
"733 322 CURVE SMOOTH",
"741 361 OFFCURVE",
"745 396 OFFCURVE",
"745 427 CURVE SMOOTH",
"745 591 OFFCURVE",
"635 654 OFFCURVE",
"459 654 CURVE SMOOTH",
"233 654 OFFCURVE",
"95 565 OFFCURVE",
"43 322 CURVE SMOOTH",
"35 284 OFFCURVE",
"31 250 OFFCURVE",
"31 220 CURVE SMOOTH",
"31 54 OFFCURVE",
"145 -10 OFFCURVE",
"317 -10 CURVE SMOOTH"
);
},
{
closed = 1;
nodes = (
"304 195 OFFCURVE",
"282 213 OFFCURVE",
"282 259 CURVE SMOOTH",
"282 276 OFFCURVE",
"285 297 OFFCURVE",
"290 322 CURVE SMOOTH",
"310 415 OFFCURVE",
"344 449 OFFCURVE",
"415 449 CURVE SMOOTH",
"473 449 OFFCURVE",
"495 431 OFFCURVE",
"495 385 CURVE SMOOTH",
"495 368 OFFCURVE",
"491 347 OFFCURVE",
"486 322 CURVE SMOOTH",
"466 229 OFFCURVE",
"432 195 OFFCURVE",
"361 195 CURVE SMOOTH"
);
},
{
closed = 1;
nodes = (
"401 688 LINE",
"496 795 LINE",
"550 688 LINE",
"711 688 LINE",
"582 904 LINE",
"441 904 LINE",
"221 688 LINE"
);
}
);
width = 720;
}
);
leftKerningGroup = O;
note = Ocircumflex;
rightKerningGroup = O;
unicode = 00D4;
},
{
glyphname = Ocircumflexacute;
lastChange = "2015-10-23 07:09:38 +0000";
layers = (
{
layerId = "098F4D9A-293F-4750-B0F4-D0E702B92EEF";
name = "Bold Italic";
paths = (
{
closed = 1;
nodes = (
"547 -10 OFFCURVE",
"681 79 OFFCURVE",
"733 322 CURVE SMOOTH",
"741 361 OFFCURVE",
"745 396 OFFCURVE",
"745 427 CURVE SMOOTH",
"745 591 OFFCURVE",
"635 654 OFFCURVE",
"459 654 CURVE SMOOTH",
"233 654 OFFCURVE",
"95 565 OFFCURVE",
"43 322 CURVE SMOOTH",
"35 284 OFFCURVE",
"31 250 OFFCURVE",
"31 220 CURVE SMOOTH",
"31 54 OFFCURVE",
"145 -10 OFFCURVE",
"317 -10 CURVE SMOOTH"
);
},
{
closed = 1;
nodes = (
"304 195 OFFCURVE",
"282 213 OFFCURVE",
"282 259 CURVE SMOOTH",
"282 276 OFFCURVE",
"285 297 OFFCURVE",
"290 322 CURVE SMOOTH",
"310 415 OFFCURVE",
"344 449 OFFCURVE",
"415 449 CURVE SMOOTH",
"473 449 OFFCURVE",
"495 431 OFFCURVE",
"495 385 CURVE SMOOTH",
"495 368 OFFCURVE",
"491 347 OFFCURVE",
"486 322 CURVE SMOOTH",
"466 229 OFFCURVE",
"432 195 OFFCURVE",
"361 195 CURVE SMOOTH"
);
},
{
closed = 1;
nodes = (
"419 688 LINE",
"488 764 LINE",
"528 688 LINE",
"709 688 LINE",
"588 856 LINE",
"413 856 LINE",
"219 688 LINE"
);
},
{
closed = 1;
nodes = (
"803 820 LINE",
"923 992 LINE",
"747 992 LINE",
"636 820 LINE"
);
}
);
width = 720;
}
);
leftKerningGroup = O;
note = Ocircumflexacute;
rightKerningGroup = O;
unicode = 1ED0;
},
{
glyphname = Ocircumflexdotbelow;
lastChange = "2015-10-23 07:09:38 +0000";
layers = (
{
layerId = "098F4D9A-293F-4750-B0F4-D0E702B92EEF";
name = "Bold Italic";
paths = (
{
closed = 1;
nodes = (
"547 -10 OFFCURVE",
"681 79 OFFCURVE",
"733 322 CURVE SMOOTH",
"741 361 OFFCURVE",
"745 396 OFFCURVE",
"745 427 CURVE SMOOTH",
"745 591 OFFCURVE",
"635 654 OFFCURVE",
"459 654 CURVE SMOOTH",
"233 654 OFFCURVE",
"95 565 OFFCURVE",
"43 322 CURVE SMOOTH",
"35 284 OFFCURVE",
"31 250 OFFCURVE",
"31 220 CURVE SMOOTH",
"31 54 OFFCURVE",
"145 -10 OFFCURVE",
"317 -10 CURVE SMOOTH"
);
},
{
closed = 1;
nodes = (
"354 -213 LINE",
"384 -72 LINE",
"228 -72 LINE",
"198 -213 LINE"
);
},
{
closed = 1;
nodes = (
"304 195 OFFCURVE",
"282 213 OFFCURVE",
"282 259 CURVE SMOOTH",
"282 276 OFFCURVE",
"285 297 OFFCURVE",
"290 322 CURVE SMOOTH",
"310 415 OFFCURVE",
"344 449 OFFCURVE",
"415 449 CURVE SMOOTH",
"473 449 OFFCURVE",
"495 431 OFFCURVE",
"495 385 CURVE SMOOTH",
"495 368 OFFCURVE",
"491 347 OFFCURVE",
"486 322 CURVE SMOOTH",
"466 229 OFFCURVE",
"432 195 OFFCURVE",
"361 195 CURVE SMOOTH"
);
},
{
closed = 1;
nodes = (
"401 688 LINE",
"496 795 LINE",
"550 688 LINE",
"711 688 LINE",
"582 904 LINE",
"441 904 LINE",
"221 688 LINE"
);
}
);
width = 720;
}
);
leftKerningGroup = O;
note = Ocircumflexdotbelow;
rightKerningGroup = O;
unicode = 1ED8;
},
{
glyphname = Ocircumflexgrave;
lastChange = "2015-10-23 07:09:38 +0000";
layers = (
{
layerId = "098F4D9A-293F-4750-B0F4-D0E702B92EEF";
name = "Bold Italic";
paths = (
{
closed = 1;
nodes = (
"547 -10 OFFCURVE",
"681 79 OFFCURVE",
"733 322 CURVE SMOOTH",
"741 361 OFFCURVE",
"745 396 OFFCURVE",
"745 427 CURVE SMOOTH",
"745 591 OFFCURVE",
"635 654 OFFCURVE",
"459 654 CURVE SMOOTH",
"233 654 OFFCURVE",
"95 565 OFFCURVE",
"43 322 CURVE SMOOTH",
"35 284 OFFCURVE",
"31 250 OFFCURVE",
"31 220 CURVE SMOOTH",
"31 54 OFFCURVE",
"145 -10 OFFCURVE",
"317 -10 CURVE SMOOTH"
);
},
{
closed = 1;
nodes = (
"304 195 OFFCURVE",
"282 213 OFFCURVE",
"282 259 CURVE SMOOTH",
"282 276 OFFCURVE",
"285 297 OFFCURVE",
"290 322 CURVE SMOOTH",
"310 415 OFFCURVE",
"344 449 OFFCURVE",
"415 449 CURVE SMOOTH",
"473 449 OFFCURVE",
"495 431 OFFCURVE",
"495 385 CURVE SMOOTH",
"495 368 OFFCURVE",
"491 347 OFFCURVE",
"486 322 CURVE SMOOTH",
"466 229 OFFCURVE",
"432 195 OFFCURVE",
"361 195 CURVE SMOOTH"
);
},
{
closed = 1;
nodes = (
"350 820 LINE",
"312 992 LINE",
"136 992 LINE",
"182 820 LINE"
);
},
{
closed = 1;
nodes = (
"416 688 LINE",
"488 764 LINE",
"525 688 LINE",
"710 688 LINE",
"589 856 LINE",
"414 856 LINE",
"220 688 LINE"
);
}
);
width = 720;
}
);
leftKerningGroup = O;
note = Ocircumflexgrave;
rightKerningGroup = O;
unicode = 1ED2;
},
{
glyphname = Ocircumflexhookabove;
lastChange = "2015-10-23 07:09:38 +0000";
layers = (
{
layerId = "098F4D9A-293F-4750-B0F4-D0E702B92EEF";
name = "Bold Italic";
paths = (
{
closed = 1;
nodes = (
"547 -10 OFFCURVE",
"681 79 OFFCURVE",
"733 322 CURVE SMOOTH",
"741 361 OFFCURVE",
"745 396 OFFCURVE",
"745 427 CURVE SMOOTH",
"745 591 OFFCURVE",
"635 654 OFFCURVE",
"459 654 CURVE SMOOTH",
"233 654 OFFCURVE",
"95 565 OFFCURVE",
"43 322 CURVE SMOOTH",
"35 284 OFFCURVE",
"31 250 OFFCURVE",
"31 220 CURVE SMOOTH",
"31 54 OFFCURVE",
"145 -10 OFFCURVE",
"317 -10 CURVE SMOOTH"
);
},
{
closed = 1;
nodes = (
"304 195 OFFCURVE",
"282 213 OFFCURVE",
"282 259 CURVE SMOOTH",
"282 276 OFFCURVE",
"285 297 OFFCURVE",
"290 322 CURVE SMOOTH",
"310 415 OFFCURVE",
"344 449 OFFCURVE",
"415 449 CURVE SMOOTH",
"473 449 OFFCURVE",
"495 431 OFFCURVE",
"495 385 CURVE SMOOTH",
"495 368 OFFCURVE",
"491 347 OFFCURVE",
"486 322 CURVE SMOOTH",
"466 229 OFFCURVE",
"432 195 OFFCURVE",
"361 195 CURVE SMOOTH"
);
},
{
closed = 1;
nodes = (
"413 688 LINE",
"482 764 LINE",
"522 688 LINE",
"703 688 LINE",
"582 856 LINE",
"407 856 LINE",
"213 688 LINE"
);
},
{
closed = 1;
nodes = (
"792 797 LINE",
"799 828 LINE",
"849 837 OFFCURVE",
"878 871 OFFCURVE",
"888 917 CURVE SMOOTH",
"889 922 OFFCURVE",
"890 928 OFFCURVE",
"890 933 CURVE SMOOTH",
"890 976 OFFCURVE",
"852 1009 OFFCURVE",
"778 1009 CURVE SMOOTH",
"728 1009 OFFCURVE",
"688 1004 OFFCURVE",
"661 997 CURVE",
"641 905 LINE",
"655 910 OFFCURVE",
"674 915 OFFCURVE",
"690 915 CURVE SMOOTH",
"710 915 OFFCURVE",
"721 913 OFFCURVE",
"721 903 CURVE SMOOTH",
"721 890 OFFCURVE",
"709 879 OFFCURVE",
"653 877 CURVE",
"636 797 LINE"
);
}
);
width = 720;
}
);
leftKerningGroup = O;
note = Ocircumflexhookabove;
rightKerningGroup = O;
unicode = 1ED4;
},
{
glyphname = Ocircumflextilde;
lastChange = "2015-10-23 07:09:38 +0000";
layers = (
{
layerId = "098F4D9A-293F-4750-B0F4-D0E702B92EEF";
name = "Bold Italic";
paths = (
{
closed = 1;
nodes = (
"547 -10 OFFCURVE",
"681 79 OFFCURVE",
"733 322 CURVE SMOOTH",
"741 361 OFFCURVE",
"745 396 OFFCURVE",
"745 427 CURVE SMOOTH",
"745 591 OFFCURVE",
"635 654 OFFCURVE",
"459 654 CURVE SMOOTH",
"233 654 OFFCURVE",
"95 565 OFFCURVE",
"43 322 CURVE SMOOTH",
"35 284 OFFCURVE",
"31 250 OFFCURVE",
"31 220 CURVE SMOOTH",
"31 54 OFFCURVE",
"145 -10 OFFCURVE",
"317 -10 CURVE SMOOTH"
);
},
{
closed = 1;
nodes = (
"304 195 OFFCURVE",
"282 213 OFFCURVE",
"282 259 CURVE SMOOTH",
"282 276 OFFCURVE",
"285 297 OFFCURVE",
"290 322 CURVE SMOOTH",
"310 415 OFFCURVE",
"344 449 OFFCURVE",
"415 449 CURVE SMOOTH",
"473 449 OFFCURVE",
"495 431 OFFCURVE",
"495 385 CURVE SMOOTH",
"495 368 OFFCURVE",
"491 347 OFFCURVE",
"486 322 CURVE SMOOTH",
"466 229 OFFCURVE",
"432 195 OFFCURVE",
"361 195 CURVE SMOOTH"
);
},
{
closed = 1;
nodes = (
"588 688 OFFCURVE",
"678 747 OFFCURVE",
"706 876 CURVE",
"565 876 LINE",
"556 836 OFFCURVE",
"536 805 OFFCURVE",
"484 805 CURVE SMOOTH",
"448 805 OFFCURVE",
"432 821 OFFCURVE",
"432 850 CURVE SMOOTH",
"432 857 OFFCURVE",
"434 866 OFFCURVE",
"436 876 CURVE",
"309 876 LINE",
"305 858 OFFCURVE",
"303 841 OFFCURVE",
"303 825 CURVE SMOOTH",
"303 732 OFFCURVE",
"373 688 OFFCURVE",
"467 688 CURVE SMOOTH"
);
},
{
closed = 1;
nodes = (
"655 901 OFFCURVE",
"697 917 OFFCURVE",
"712 934 CURVE",
"738 1059 LINE",
"719 1038 OFFCURVE",
"681 1020 OFFCURVE",
"637 1020 CURVE SMOOTH",
"572 1020 OFFCURVE",
"524 1062 OFFCURVE",
"454 1062 CURVE SMOOTH",
"414 1062 OFFCURVE",
"373 1046 OFFCURVE",
"350 1029 CURVE",
"324 904 LINE",
"351 927 OFFCURVE",
"388 943 OFFCURVE",
"432 943 CURVE SMOOTH",
"491 943 OFFCURVE",
"547 901 OFFCURVE",
"615 901 CURVE SMOOTH"
);
}
);
width = 720;
}
);
leftKerningGroup = O;
note = Ocircumflextilde;
rightKerningGroup = O;
unicode = 1ED6;
},
{
glyphname = Odieresis;
lastChange = "2015-10-23 07:09:38 +0000";
layers = (
{
layerId = "098F4D9A-293F-4750-B0F4-D0E702B92EEF";
name = "Bold Italic";
paths = (
{
closed = 1;
nodes = (
"547 -10 OFFCURVE",
"681 79 OFFCURVE",
"733 322 CURVE SMOOTH",
"741 361 OFFCURVE",
"745 396 OFFCURVE",
"745 427 CURVE SMOOTH",
"745 591 OFFCURVE",
"635 654 OFFCURVE",
"459 654 CURVE SMOOTH",
"233 654 OFFCURVE",
"95 565 OFFCURVE",
"43 322 CURVE SMOOTH",
"35 284 OFFCURVE",
"31 250 OFFCURVE",
"31 220 CURVE SMOOTH",
"31 54 OFFCURVE",
"145 -10 OFFCURVE",
"317 -10 CURVE SMOOTH"
);
},
{
closed = 1;
nodes = (
"304 195 OFFCURVE",
"282 213 OFFCURVE",
"282 259 CURVE SMOOTH",
"282 276 OFFCURVE",
"285 297 OFFCURVE",
"290 322 CURVE SMOOTH",
"310 415 OFFCURVE",
"344 449 OFFCURVE",
"415 449 CURVE SMOOTH",
"473 449 OFFCURVE",
"495 431 OFFCURVE",
"495 385 CURVE SMOOTH",
"495 368 OFFCURVE",
"491 347 OFFCURVE",
"486 322 CURVE SMOOTH",
"466 229 OFFCURVE",
"432 195 OFFCURVE",
"361 195 CURVE SMOOTH"
);
},
{
closed = 1;
nodes = (
"432 718 LINE",
"462 859 LINE",
"307 859 LINE",
"277 718 LINE"
);
},
{
closed = 1;
nodes = (
"667 718 LINE",
"697 859 LINE",
"541 859 LINE",
"511 718 LINE"
);
}
);
width = 720;
}
);
leftKerningGroup = O;
note = Odieresis;
rightKerningGroup = O;
unicode = 00D6;
},
{
glyphname = Odotbelow;
lastChange = "2015-10-23 07:09:38 +0000";
layers = (
{
layerId = "098F4D9A-293F-4750-B0F4-D0E702B92EEF";
name = "Bold Italic";
paths = (
{
closed = 1;
nodes = (
"547 -10 OFFCURVE",
"681 79 OFFCURVE",
"733 322 CURVE SMOOTH",
"741 361 OFFCURVE",
"745 396 OFFCURVE",
"745 427 CURVE SMOOTH",
"745 591 OFFCURVE",
"635 654 OFFCURVE",
"459 654 CURVE SMOOTH",
"233 654 OFFCURVE",
"95 565 OFFCURVE",
"43 322 CURVE SMOOTH",
"35 284 OFFCURVE",
"31 250 OFFCURVE",
"31 220 CURVE SMOOTH",
"31 54 OFFCURVE",
"145 -10 OFFCURVE",
"317 -10 CURVE SMOOTH"
);
},
{
closed = 1;
nodes = (
"353 -213 LINE",
"383 -72 LINE",
"227 -72 LINE",
"197 -213 LINE"
);
},
{
closed = 1;
nodes = (
"304 195 OFFCURVE",
"282 213 OFFCURVE",
"282 259 CURVE SMOOTH",
"282 276 OFFCURVE",
"285 297 OFFCURVE",
"290 322 CURVE SMOOTH",
"310 415 OFFCURVE",
"344 449 OFFCURVE",
"415 449 CURVE SMOOTH",
"473 449 OFFCURVE",
"495 431 OFFCURVE",
"495 385 CURVE SMOOTH",
"495 368 OFFCURVE",
"491 347 OFFCURVE",
"486 322 CURVE SMOOTH",
"466 229 OFFCURVE",
"432 195 OFFCURVE",
"361 195 CURVE SMOOTH"
);
}
);
width = 720;
}
);
leftKerningGroup = O;
note = Odotbelow;
rightKerningGroup = O;
unicode = 1ECC;
},
{
glyphname = Ograve;
lastChange = "2015-10-23 07:09:39 +0000";
layers = (
{
layerId = "098F4D9A-293F-4750-B0F4-D0E702B92EEF";
name = "Bold Italic";
paths = (
{
closed = 1;
nodes = (
"547 -10 OFFCURVE",
"681 79 OFFCURVE",
"733 322 CURVE SMOOTH",
"741 361 OFFCURVE",
"745 396 OFFCURVE",
"745 427 CURVE SMOOTH",
"745 591 OFFCURVE",
"635 654 OFFCURVE",
"459 654 CURVE SMOOTH",
"233 654 OFFCURVE",
"95 565 OFFCURVE",
"43 322 CURVE SMOOTH",
"35 284 OFFCURVE",
"31 250 OFFCURVE",
"31 220 CURVE SMOOTH",
"31 54 OFFCURVE",
"145 -10 OFFCURVE",
"317 -10 CURVE SMOOTH"
);
},
{
closed = 1;
nodes = (
"304 195 OFFCURVE",
"282 213 OFFCURVE",
"282 259 CURVE SMOOTH",
"282 276 OFFCURVE",
"285 297 OFFCURVE",
"290 322 CURVE SMOOTH",
"310 415 OFFCURVE",
"344 449 OFFCURVE",
"415 449 CURVE SMOOTH",
"473 449 OFFCURVE",
"495 431 OFFCURVE",
"495 385 CURVE SMOOTH",
"495 368 OFFCURVE",
"491 347 OFFCURVE",
"486 322 CURVE SMOOTH",
"466 229 OFFCURVE",
"432 195 OFFCURVE",
"361 195 CURVE SMOOTH"
);
},
{
closed = 1;
nodes = (
"560 688 LINE",
"512 914 LINE",
"326 914 LINE",
"383 688 LINE"
);
}
);
width = 720;
}
);
leftKerningGroup = O;
note = Ograve;
rightKerningGroup = O;
unicode = 00D2;
},
{
glyphname = Ohookabove;
lastChange = "2015-10-23 07:09:39 +0000";
layers = (
{
layerId = "098F4D9A-293F-4750-B0F4-D0E702B92EEF";
name = "Bold Italic";
paths = (
{
closed = 1;
nodes = (
"547 -10 OFFCURVE",
"681 79 OFFCURVE",
"733 322 CURVE SMOOTH",
"741 361 OFFCURVE",
"745 396 OFFCURVE",
"745 427 CURVE SMOOTH",
"745 591 OFFCURVE",
"635 654 OFFCURVE",
"459 654 CURVE SMOOTH",
"233 654 OFFCURVE",
"95 565 OFFCURVE",
"43 322 CURVE SMOOTH",
"35 284 OFFCURVE",
"31 250 OFFCURVE",
"31 220 CURVE SMOOTH",
"31 54 OFFCURVE",
"145 -10 OFFCURVE",
"317 -10 CURVE SMOOTH"
);
},
{
closed = 1;
nodes = (
"304 195 OFFCURVE",
"282 213 OFFCURVE",
"282 259 CURVE SMOOTH",
"282 276 OFFCURVE",
"285 297 OFFCURVE",
"290 322 CURVE SMOOTH",
"310 415 OFFCURVE",
"344 449 OFFCURVE",
"415 449 CURVE SMOOTH",
"473 449 OFFCURVE",
"495 431 OFFCURVE",
"495 385 CURVE SMOOTH",
"495 368 OFFCURVE",
"491 347 OFFCURVE",
"486 322 CURVE SMOOTH",
"466 229 OFFCURVE",
"432 195 OFFCURVE",
"361 195 CURVE SMOOTH"
);
},
{
closed = 1;
nodes = (
"551 688 LINE",
"559 724 LINE",
"620 742 OFFCURVE",
"650 768 OFFCURVE",
"663 828 CURVE SMOOTH",
"664 835 OFFCURVE",
"665 841 OFFCURVE",
"665 848 CURVE SMOOTH",
"665 898 OFFCURVE",
"620 935 OFFCURVE",
"534 935 CURVE SMOOTH",
"476 935 OFFCURVE",
"435 929 OFFCURVE",
"401 920 CURVE",
"381 826 LINE",
"398 832 OFFCURVE",
"419 836 OFFCURVE",
"439 836 CURVE SMOOTH",
"473 836 OFFCURVE",
"488 828 OFFCURVE",
"483 808 CURVE",
"479 788 OFFCURVE",
"456 773 OFFCURVE",
"390 769 CURVE",
"373 688 LINE"
);
}
);
width = 720;
}
);
leftKerningGroup = O;
note = Ohookabove;
rightKerningGroup = O;
unicode = 1ECE;
},
{
glyphname = Ohorn;
lastChange = "2015-10-23 07:09:38 +0000";
layers = (
{
layerId = "098F4D9A-293F-4750-B0F4-D0E702B92EEF";
name = "Bold Italic";
paths = (
{
closed = 1;
nodes = (
"547 -10 OFFCURVE",
"681 79 OFFCURVE",
"733 322 CURVE SMOOTH",
"741 362 OFFCURVE",
"745 398 OFFCURVE",
"745 429 CURVE SMOOTH",
"745 439 OFFCURVE",
"745 449 OFFCURVE",
"744 458 CURVE",
"850 483 OFFCURVE",
"902 550 OFFCURVE",
"932 688 CURVE",
"763 688 LINE",
"749 626 OFFCURVE",
"723 604 OFFCURVE",
"669 601 CURVE",
"619 638 OFFCURVE",
"547 654 OFFCURVE",
"459 654 CURVE SMOOTH",
"233 654 OFFCURVE",
"95 565 OFFCURVE",
"43 322 CURVE SMOOTH",
"35 284 OFFCURVE",
"31 250 OFFCURVE",
"31 220 CURVE SMOOTH",
"31 54 OFFCURVE",
"145 -10 OFFCURVE",
"317 -10 CURVE SMOOTH"
);
},
{
closed = 1;
nodes = (
"304 195 OFFCURVE",
"282 213 OFFCURVE",
"282 259 CURVE SMOOTH",
"282 276 OFFCURVE",
"285 297 OFFCURVE",
"290 322 CURVE SMOOTH",
"310 415 OFFCURVE",
"344 449 OFFCURVE",
"415 449 CURVE SMOOTH",
"473 449 OFFCURVE",
"495 431 OFFCURVE",
"495 385 CURVE SMOOTH",
"495 368 OFFCURVE",
"491 347 OFFCURVE",
"486 322 CURVE SMOOTH",
"466 229 OFFCURVE",
"432 195 OFFCURVE",
"361 195 CURVE SMOOTH"
);
}
);
width = 821;
}
);
leftKerningGroup = O;
note = Ohorn;
rightKerningGroup = O;
unicode = 01A0;
},
{
glyphname = Ohornacute;
lastChange = "2015-10-23 07:09:38 +0000";
layers = (
{
layerId = "098F4D9A-293F-4750-B0F4-D0E702B92EEF";
name = "Bold Italic";
paths = (
{
closed = 1;
nodes = (
"547 -10 OFFCURVE",
"681 79 OFFCURVE",
"733 322 CURVE SMOOTH",
"741 362 OFFCURVE",
"745 398 OFFCURVE",
"745 429 CURVE SMOOTH",
"745 439 OFFCURVE",
"745 449 OFFCURVE",
"744 458 CURVE",
"850 483 OFFCURVE",
"902 550 OFFCURVE",
"932 688 CURVE",
"763 688 LINE",
"749 626 OFFCURVE",
"723 604 OFFCURVE",
"669 601 CURVE",
"619 638 OFFCURVE",
"547 654 OFFCURVE",
"459 654 CURVE SMOOTH",
"233 654 OFFCURVE",
"95 565 OFFCURVE",
"43 322 CURVE SMOOTH",
"35 284 OFFCURVE",
"31 250 OFFCURVE",
"31 220 CURVE SMOOTH",
"31 54 OFFCURVE",
"145 -10 OFFCURVE",
"317 -10 CURVE SMOOTH"
);
},
{
closed = 1;
nodes = (
"304 195 OFFCURVE",
"282 213 OFFCURVE",
"282 259 CURVE SMOOTH",
"282 276 OFFCURVE",
"285 297 OFFCURVE",
"290 322 CURVE SMOOTH",
"310 415 OFFCURVE",
"344 449 OFFCURVE",
"415 449 CURVE SMOOTH",
"473 449 OFFCURVE",
"495 431 OFFCURVE",
"495 385 CURVE SMOOTH",
"495 368 OFFCURVE",
"491 347 OFFCURVE",
"486 322 CURVE SMOOTH",
"466 229 OFFCURVE",
"432 195 OFFCURVE",
"361 195 CURVE SMOOTH"
);
},
{
closed = 1;
nodes = (
"561 688 LINE",
"714 914 LINE",
"528 914 LINE",
"384 688 LINE"
);
}
);
width = 821;
}
);
leftKerningGroup = O;
note = Ohornacute;
rightKerningGroup = O;
unicode = 1EDA;
},
{
glyphname = Ohorndotbelow;
lastChange = "2015-10-23 07:09:38 +0000";
layers = (
{
layerId = "098F4D9A-293F-4750-B0F4-D0E702B92EEF";
name = "Bold Italic";
paths = (
{
closed = 1;
nodes = (
"547 -10 OFFCURVE",
"681 79 OFFCURVE",
"733 322 CURVE SMOOTH",
"741 362 OFFCURVE",
"745 398 OFFCURVE",
"745 429 CURVE SMOOTH",
"745 439 OFFCURVE",
"745 449 OFFCURVE",
"744 458 CURVE",
"850 483 OFFCURVE",
"902 550 OFFCURVE",
"932 688 CURVE",
"763 688 LINE",
"749 626 OFFCURVE",
"723 604 OFFCURVE",
"669 601 CURVE",
"619 638 OFFCURVE",
"547 654 OFFCURVE",
"459 654 CURVE SMOOTH",
"233 654 OFFCURVE",
"95 565 OFFCURVE",
"43 322 CURVE SMOOTH",
"35 284 OFFCURVE",
"31 250 OFFCURVE",
"31 220 CURVE SMOOTH",
"31 54 OFFCURVE",
"145 -10 OFFCURVE",
"317 -10 CURVE SMOOTH"
);
},
{
closed = 1;
nodes = (
"355 -213 LINE",
"385 -72 LINE",
"229 -72 LINE",
"199 -213 LINE"
);
},
{
closed = 1;
nodes = (
"304 195 OFFCURVE",
"282 213 OFFCURVE",
"282 259 CURVE SMOOTH",
"282 276 OFFCURVE",
"285 297 OFFCURVE",
"290 322 CURVE SMOOTH",
"310 415 OFFCURVE",
"344 449 OFFCURVE",
"415 449 CURVE SMOOTH",
"473 449 OFFCURVE",
"495 431 OFFCURVE",
"495 385 CURVE SMOOTH",
"495 368 OFFCURVE",
"491 347 OFFCURVE",
"486 322 CURVE SMOOTH",
"466 229 OFFCURVE",
"432 195 OFFCURVE",
"361 195 CURVE SMOOTH"
);
}
);
width = 821;
}
);
leftKerningGroup = O;
note = Ohorndotbelow;
rightKerningGroup = O;
unicode = 1EE2;
},
{
glyphname = Ohorngrave;
lastChange = "2015-10-23 07:09:38 +0000";
layers = (
{
layerId = "098F4D9A-293F-4750-B0F4-D0E702B92EEF";
name = "Bold Italic";
paths = (
{
closed = 1;
nodes = (
"547 -10 OFFCURVE",
"681 79 OFFCURVE",
"733 322 CURVE SMOOTH",
"741 362 OFFCURVE",
"745 398 OFFCURVE",
"745 429 CURVE SMOOTH",
"745 439 OFFCURVE",
"745 449 OFFCURVE",
"744 458 CURVE",
"850 483 OFFCURVE",
"902 550 OFFCURVE",
"932 688 CURVE",
"763 688 LINE",
"749 626 OFFCURVE",
"723 604 OFFCURVE",
"669 601 CURVE",
"619 638 OFFCURVE",
"547 654 OFFCURVE",
"459 654 CURVE SMOOTH",
"233 654 OFFCURVE",
"95 565 OFFCURVE",
"43 322 CURVE SMOOTH",
"35 284 OFFCURVE",
"31 250 OFFCURVE",
"31 220 CURVE SMOOTH",
"31 54 OFFCURVE",
"145 -10 OFFCURVE",
"317 -10 CURVE SMOOTH"
);
},
{
closed = 1;
nodes = (
"304 195 OFFCURVE",
"282 213 OFFCURVE",
"282 259 CURVE SMOOTH",
"282 276 OFFCURVE",
"285 297 OFFCURVE",
"290 322 CURVE SMOOTH",
"310 415 OFFCURVE",
"344 449 OFFCURVE",
"415 449 CURVE SMOOTH",
"473 449 OFFCURVE",
"495 431 OFFCURVE",
"495 385 CURVE SMOOTH",
"495 368 OFFCURVE",
"491 347 OFFCURVE",
"486 322 CURVE SMOOTH",
"466 229 OFFCURVE",
"432 195 OFFCURVE",
"361 195 CURVE SMOOTH"
);
},
{
closed = 1;
nodes = (
"574 688 LINE",
"526 914 LINE",
"340 914 LINE",
"397 688 LINE"
);
}
);
width = 821;
}
);
leftKerningGroup = O;
note = Ohorngrave;
rightKerningGroup = O;
unicode = 1EDC;
},
{
glyphname = Ohornhookabove;
lastChange = "2015-10-23 07:09:39 +0000";
layers = (
{
layerId = "098F4D9A-293F-4750-B0F4-D0E702B92EEF";
name = "Bold Italic";
paths = (
{
closed = 1;
nodes = (
"547 -10 OFFCURVE",
"681 79 OFFCURVE",
"733 322 CURVE SMOOTH",
"741 362 OFFCURVE",
"745 398 OFFCURVE",
"745 429 CURVE SMOOTH",
"745 439 OFFCURVE",
"745 449 OFFCURVE",
"744 458 CURVE",
"850 483 OFFCURVE",
"902 550 OFFCURVE",
"932 688 CURVE",
"763 688 LINE",
"749 626 OFFCURVE",
"723 604 OFFCURVE",
"669 601 CURVE",
"619 638 OFFCURVE",
"547 654 OFFCURVE",
"459 654 CURVE SMOOTH",
"233 654 OFFCURVE",
"95 565 OFFCURVE",
"43 322 CURVE SMOOTH",
"35 284 OFFCURVE",
"31 250 OFFCURVE",
"31 220 CURVE SMOOTH",
"31 54 OFFCURVE",
"145 -10 OFFCURVE",
"317 -10 CURVE SMOOTH"
);
},
{
closed = 1;
nodes = (
"304 195 OFFCURVE",
"282 213 OFFCURVE",
"282 259 CURVE SMOOTH",
"282 276 OFFCURVE",
"285 297 OFFCURVE",
"290 322 CURVE SMOOTH",
"310 415 OFFCURVE",
"344 449 OFFCURVE",
"415 449 CURVE SMOOTH",
"473 449 OFFCURVE",
"495 431 OFFCURVE",
"495 385 CURVE SMOOTH",
"495 368 OFFCURVE",
"491 347 OFFCURVE",
"486 322 CURVE SMOOTH",
"466 229 OFFCURVE",
"432 195 OFFCURVE",
"361 195 CURVE SMOOTH"
);
},
{
closed = 1;
nodes = (
"552 688 LINE",
"560 724 LINE",
"621 742 OFFCURVE",
"651 768 OFFCURVE",
"664 828 CURVE SMOOTH",
"665 835 OFFCURVE",
"666 841 OFFCURVE",
"666 848 CURVE SMOOTH",
"666 898 OFFCURVE",
"621 935 OFFCURVE",
"535 935 CURVE SMOOTH",
"477 935 OFFCURVE",
"436 929 OFFCURVE",
"402 920 CURVE",
"382 826 LINE",
"399 832 OFFCURVE",
"420 836 OFFCURVE",
"440 836 CURVE SMOOTH",
"474 836 OFFCURVE",
"489 828 OFFCURVE",
"484 808 CURVE",
"480 788 OFFCURVE",
"457 773 OFFCURVE",
"391 769 CURVE",
"374 688 LINE"
);
}
);
width = 821;
}
);
leftKerningGroup = O;
note = Ohornhookabove;
rightKerningGroup = O;
unicode = 1EDE;
},
{
glyphname = Ohorntilde;
lastChange = "2015-10-23 07:09:38 +0000";
layers = (
{
layerId = "098F4D9A-293F-4750-B0F4-D0E702B92EEF";
name = "Bold Italic";
paths = (
{
closed = 1;
nodes = (
"547 -10 OFFCURVE",
"681 79 OFFCURVE",
"733 322 CURVE SMOOTH",
"741 362 OFFCURVE",
"745 398 OFFCURVE",
"745 429 CURVE SMOOTH",
"745 439 OFFCURVE",
"745 449 OFFCURVE",
"744 458 CURVE",
"850 483 OFFCURVE",
"902 550 OFFCURVE",
"932 688 CURVE",
"763 688 LINE",
"749 626 OFFCURVE",
"723 604 OFFCURVE",
"669 601 CURVE",
"619 638 OFFCURVE",
"547 654 OFFCURVE",
"459 654 CURVE SMOOTH",
"233 654 OFFCURVE",
"95 565 OFFCURVE",
"43 322 CURVE SMOOTH",
"35 284 OFFCURVE",
"31 250 OFFCURVE",
"31 220 CURVE SMOOTH",
"31 54 OFFCURVE",
"145 -10 OFFCURVE",
"317 -10 CURVE SMOOTH"
);
},
{
closed = 1;
nodes = (
"304 195 OFFCURVE",
"282 213 OFFCURVE",
"282 259 CURVE SMOOTH",
"282 276 OFFCURVE",
"285 297 OFFCURVE",
"290 322 CURVE SMOOTH",
"310 415 OFFCURVE",
"344 449 OFFCURVE",
"415 449 CURVE SMOOTH",
"473 449 OFFCURVE",
"495 431 OFFCURVE",
"495 385 CURVE SMOOTH",
"495 368 OFFCURVE",
"491 347 OFFCURVE",
"486 322 CURVE SMOOTH",
"466 229 OFFCURVE",
"432 195 OFFCURVE",
"361 195 CURVE SMOOTH"
);
},
{
closed = 1;
nodes = (
"617 688 OFFCURVE",
"660 705 OFFCURVE",
"677 723 CURVE",
"707 864 LINE",
"686 842 OFFCURVE",
"646 823 OFFCURVE",
"600 823 CURVE SMOOTH",
"531 823 OFFCURVE",
"482 867 OFFCURVE",
"409 867 CURVE SMOOTH",
"367 867 OFFCURVE",
"323 850 OFFCURVE",
"299 832 CURVE",
"269 691 LINE",
"298 715 OFFCURVE",
"337 732 OFFCURVE",
"383 732 CURVE SMOOTH",
"444 732 OFFCURVE",
"503 688 OFFCURVE",
"575 688 CURVE SMOOTH"
);
}
);
width = 821;
}
);
leftKerningGroup = O;
note = Ohorntilde;
rightKerningGroup = O;
unicode = 1EE0;
},
{
glyphname = Ohungarumlaut;
lastChange = "2015-10-23 07:09:38 +0000";
layers = (
{
layerId = "098F4D9A-293F-4750-B0F4-D0E702B92EEF";
name = "Bold Italic";
paths = (
{
closed = 1;
nodes = (
"547 -10 OFFCURVE",
"681 79 OFFCURVE",
"733 322 CURVE SMOOTH",
"741 361 OFFCURVE",
"745 396 OFFCURVE",
"745 427 CURVE SMOOTH",
"745 591 OFFCURVE",
"635 654 OFFCURVE",
"459 654 CURVE SMOOTH",
"233 654 OFFCURVE",
"95 565 OFFCURVE",
"43 322 CURVE SMOOTH",
"35 284 OFFCURVE",
"31 250 OFFCURVE",
"31 220 CURVE SMOOTH",
"31 54 OFFCURVE",
"145 -10 OFFCURVE",
"317 -10 CURVE SMOOTH"
);
},
{
closed = 1;
nodes = (
"304 195 OFFCURVE",
"282 213 OFFCURVE",
"282 259 CURVE SMOOTH",
"282 276 OFFCURVE",
"285 297 OFFCURVE",
"290 322 CURVE SMOOTH",
"310 415 OFFCURVE",
"344 449 OFFCURVE",
"415 449 CURVE SMOOTH",
"473 449 OFFCURVE",
"495 431 OFFCURVE",
"495 385 CURVE SMOOTH",
"495 368 OFFCURVE",
"491 347 OFFCURVE",
"486 322 CURVE SMOOTH",
"466 229 OFFCURVE",
"432 195 OFFCURVE",
"361 195 CURVE SMOOTH"
);
},
{
closed = 1;
nodes = (
"383 688 LINE",
"539 891 LINE",
"334 891 LINE",
"196 688 LINE"
);
},
{
closed = 1;
nodes = (
"652 688 LINE",
"809 891 LINE",
"603 891 LINE",
"465 688 LINE"
);
}
);
width = 720;
}
);
leftKerningGroup = O;
note = Ohungarumlaut;
rightKerningGroup = O;
unicode = 0150;
},
{
glyphname = Omacron;
lastChange = "2015-10-23 07:09:38 +0000";
layers = (
{
layerId = "098F4D9A-293F-4750-B0F4-D0E702B92EEF";
name = "Bold Italic";
paths = (
{
closed = 1;
nodes = (
"547 -10 OFFCURVE",
"681 79 OFFCURVE",
"733 322 CURVE SMOOTH",
"741 361 OFFCURVE",
"745 396 OFFCURVE",
"745 427 CURVE SMOOTH",
"745 591 OFFCURVE",
"635 654 OFFCURVE",
"459 654 CURVE SMOOTH",
"233 654 OFFCURVE",
"95 565 OFFCURVE",
"43 322 CURVE SMOOTH",
"35 284 OFFCURVE",
"31 250 OFFCURVE",
"31 220 CURVE SMOOTH",
"31 54 OFFCURVE",
"145 -10 OFFCURVE",
"317 -10 CURVE SMOOTH"
);
},
{
closed = 1;
nodes = (
"304 195 OFFCURVE",
"282 213 OFFCURVE",
"282 259 CURVE SMOOTH",
"282 276 OFFCURVE",
"285 297 OFFCURVE",
"290 322 CURVE SMOOTH",
"310 415 OFFCURVE",
"344 449 OFFCURVE",
"415 449 CURVE SMOOTH",
"473 449 OFFCURVE",
"495 431 OFFCURVE",
"495 385 CURVE SMOOTH",
"495 368 OFFCURVE",
"491 347 OFFCURVE",
"486 322 CURVE SMOOTH",
"466 229 OFFCURVE",
"432 195 OFFCURVE",
"361 195 CURVE SMOOTH"
);
},
{
closed = 1;
nodes = (
"642 729 LINE",
"672 869 LINE",
"324 869 LINE",
"294 729 LINE"
);
}
);
width = 720;
}
);
leftKerningGroup = O;
note = Omacron;
rightKerningGroup = O;
unicode = 014C;
},
{
glyphname = Oslash;
lastChange = "2015-10-23 07:09:38 +0000";
layers = (
{
layerId = "098F4D9A-293F-4750-B0F4-D0E702B92EEF";
name = "Bold Italic";
paths = (
{
closed = 1;
nodes = (
"193 -53 LINE",
"224 -2 LINE",
"253 -7 OFFCURVE",
"284 -10 OFFCURVE",
"317 -10 CURVE SMOOTH",
"547 -10 OFFCURVE",
"681 79 OFFCURVE",
"733 322 CURVE SMOOTH",
"741 361 OFFCURVE",
"745 396 OFFCURVE",
"745 427 CURVE SMOOTH",
"745 534 OFFCURVE",
"698 598 OFFCURVE",
"616 629 CURVE",
"656 693 LINE",
"579 693 LINE",
"550 647 LINE",
"522 651 OFFCURVE",
"492 654 OFFCURVE",
"459 654 CURVE SMOOTH",
"233 654 OFFCURVE",
"95 565 OFFCURVE",
"43 322 CURVE SMOOTH",
"35 284 OFFCURVE",
"31 250 OFFCURVE",
"31 219 CURVE SMOOTH",
"31 112 OFFCURVE",
"79 48 OFFCURVE",
"159 16 CURVE",
"116 -53 LINE"
);
},
{
closed = 1;
nodes = (
"280 231 OFFCURVE",
"277 245 OFFCURVE",
"277 263 CURVE SMOOTH",
"277 280 OFFCURVE",
"280 299 OFFCURVE",
"285 322 CURVE SMOOTH",
"306 420 OFFCURVE",
"341 455 OFFCURVE",
"416 455 CURVE SMOOTH",
"421 455 OFFCURVE",
"426 455 OFFCURVE",
"431 454 CURVE",
"286 220 LINE"
);
},
{
closed = 1;
nodes = (
"489 425 LINE",
"495 414 OFFCURVE",
"498 399 OFFCURVE",
"498 381 CURVE SMOOTH",
"498 365 OFFCURVE",
"496 345 OFFCURVE",
"491 322 CURVE SMOOTH",
"470 224 OFFCURVE",
"435 189 OFFCURVE",
"360 189 CURVE SMOOTH",
"343 189 LINE"
);
}
);
width = 720;
}
);
leftKerningGroup = O;
note = Oslash;
rightKerningGroup = O;
unicode = 00D8;
},
{
glyphname = Oslashacute;
lastChange = "2015-10-23 07:09:38 +0000";
layers = (
{
layerId = "098F4D9A-293F-4750-B0F4-D0E702B92EEF";
name = "Bold Italic";
paths = (
{
closed = 1;
nodes = (
"193 -53 LINE",
"224 -2 LINE",
"253 -7 OFFCURVE",
"284 -10 OFFCURVE",
"317 -10 CURVE SMOOTH",
"547 -10 OFFCURVE",
"681 79 OFFCURVE",
"733 322 CURVE SMOOTH",
"741 361 OFFCURVE",
"745 396 OFFCURVE",
"745 427 CURVE SMOOTH",
"745 534 OFFCURVE",
"698 598 OFFCURVE",
"616 629 CURVE",
"656 693 LINE",
"579 693 LINE",
"550 647 LINE",
"522 651 OFFCURVE",
"492 654 OFFCURVE",
"459 654 CURVE SMOOTH",
"233 654 OFFCURVE",
"95 565 OFFCURVE",
"43 322 CURVE SMOOTH",
"35 284 OFFCURVE",
"31 250 OFFCURVE",
"31 219 CURVE SMOOTH",
"31 112 OFFCURVE",
"79 48 OFFCURVE",
"159 16 CURVE",
"116 -53 LINE"
);
},
{
closed = 1;
nodes = (
"280 231 OFFCURVE",
"277 245 OFFCURVE",
"277 263 CURVE SMOOTH",
"277 280 OFFCURVE",
"280 299 OFFCURVE",
"285 322 CURVE SMOOTH",
"306 420 OFFCURVE",
"341 455 OFFCURVE",
"416 455 CURVE SMOOTH",
"421 455 OFFCURVE",
"426 455 OFFCURVE",
"431 454 CURVE",
"286 220 LINE"
);
},
{
closed = 1;
nodes = (
"489 425 LINE",
"495 414 OFFCURVE",
"498 399 OFFCURVE",
"498 381 CURVE SMOOTH",
"498 365 OFFCURVE",
"496 345 OFFCURVE",
"491 322 CURVE SMOOTH",
"470 224 OFFCURVE",
"435 189 OFFCURVE",
"360 189 CURVE SMOOTH",
"343 189 LINE"
);
},
{
closed = 1;
nodes = (
"501 688 LINE",
"654 914 LINE",
"468 914 LINE",
"324 688 LINE"
);
}
);
width = 720;
}
);
leftKerningGroup = O;
note = Oslashacute;
rightKerningGroup = O;
unicode = 01FE;
},
{
glyphname = Otilde;
lastChange = "2015-10-23 07:09:38 +0000";
layers = (
{
layerId = "098F4D9A-293F-4750-B0F4-D0E702B92EEF";
name = "Bold Italic";
paths = (
{
closed = 1;
nodes = (
"547 -10 OFFCURVE",
"681 79 OFFCURVE",
"733 322 CURVE SMOOTH",
"741 361 OFFCURVE",
"745 396 OFFCURVE",
"745 427 CURVE SMOOTH",
"745 591 OFFCURVE",
"635 654 OFFCURVE",
"459 654 CURVE SMOOTH",
"233 654 OFFCURVE",
"95 565 OFFCURVE",
"43 322 CURVE SMOOTH",
"35 284 OFFCURVE",
"31 250 OFFCURVE",
"31 220 CURVE SMOOTH",
"31 54 OFFCURVE",
"145 -10 OFFCURVE",
"317 -10 CURVE SMOOTH"
);
},
{
closed = 1;
nodes = (
"304 195 OFFCURVE",
"282 213 OFFCURVE",
"282 259 CURVE SMOOTH",
"282 276 OFFCURVE",
"285 297 OFFCURVE",
"290 322 CURVE SMOOTH",
"310 415 OFFCURVE",
"344 449 OFFCURVE",
"415 449 CURVE SMOOTH",
"473 449 OFFCURVE",
"495 431 OFFCURVE",
"495 385 CURVE SMOOTH",
"495 368 OFFCURVE",
"491 347 OFFCURVE",
"486 322 CURVE SMOOTH",
"466 229 OFFCURVE",
"432 195 OFFCURVE",
"361 195 CURVE SMOOTH"
);
},
{
closed = 1;
nodes = (
"620 713 OFFCURVE",
"663 730 OFFCURVE",
"680 748 CURVE",
"710 889 LINE",
"689 867 OFFCURVE",
"649 848 OFFCURVE",
"603 848 CURVE SMOOTH",
"534 848 OFFCURVE",
"485 892 OFFCURVE",
"412 892 CURVE SMOOTH",
"370 892 OFFCURVE",
"326 875 OFFCURVE",
"302 857 CURVE",
"272 716 LINE",
"301 740 OFFCURVE",
"340 757 OFFCURVE",
"386 757 CURVE SMOOTH",
"447 757 OFFCURVE",
"506 713 OFFCURVE",
"578 713 CURVE SMOOTH"
);
}
);
width = 720;
}
);
leftKerningGroup = O;
note = Otilde;
rightKerningGroup = O;
unicode = 00D5;
},
{
glyphname = OE;
lastChange = "2015-10-23 07:09:38 +0000";
layers = (
{
layerId = "098F4D9A-293F-4750-B0F4-D0E702B92EEF";
name = "Bold Italic";
paths = (
{
closed = 1;
nodes = (
"360 -10 OFFCURVE",
"400 -7 OFFCURVE",
"437 0 CURVE",
"936 0 LINE",
"972 174 LINE",
"699 174 LINE",
"712 232 LINE",
"947 232 LINE",
"985 412 LINE",
"750 412 LINE",
"762 470 LINE",
"1035 470 LINE",
"1072 644 LINE",
"567 644 LINE",
"535 651 OFFCURVE",
"498 654 OFFCURVE",
"459 654 CURVE SMOOTH",
"233 654 OFFCURVE",
"95 565 OFFCURVE",
"43 322 CURVE SMOOTH",
"35 284 OFFCURVE",
"31 250 OFFCURVE",
"31 220 CURVE SMOOTH",
"31 54 OFFCURVE",
"145 -10 OFFCURVE",
"317 -10 CURVE SMOOTH"
);
},
{
closed = 1;
nodes = (
"304 195 OFFCURVE",
"282 213 OFFCURVE",
"282 259 CURVE SMOOTH",
"282 276 OFFCURVE",
"285 297 OFFCURVE",
"290 322 CURVE SMOOTH",
"310 415 OFFCURVE",
"344 449 OFFCURVE",
"415 449 CURVE SMOOTH",
"473 449 OFFCURVE",
"495 431 OFFCURVE",
"495 385 CURVE SMOOTH",
"495 368 OFFCURVE",
"491 347 OFFCURVE",
"486 322 CURVE SMOOTH",
"466 229 OFFCURVE",
"432 195 OFFCURVE",
"361 195 CURVE SMOOTH"
);
}
);
width = 991;
}
);
leftKerningGroup = C;
note = OE;
unicode = 0152;
},
{
glyphname = P;
lastChange = "2015-10-23 07:09:39 +0000";
layers = (
{
layerId = "098F4D9A-293F-4750-B0F4-D0E702B92EEF";
name = "Bold Italic";
paths = (
{
closed = 1;
nodes = (
"237 0 LINE",
"267 144 LINE",
"383 144 LINE SMOOTH",
"558 144 OFFCURVE",
"654 252 OFFCURVE",
"684 393 CURVE SMOOTH",
"689 415 OFFCURVE",
"691 436 OFFCURVE",
"691 456 CURVE SMOOTH",
"691 563 OFFCURVE",
"626 644 OFFCURVE",
"493 644 CURVE SMOOTH",
"131 644 LINE",
"-5 0 LINE"
);
},
{
closed = 1;
nodes = (
"333 455 LINE",
"396 455 LINE SMOOTH",
"426 455 OFFCURVE",
"441 441 OFFCURVE",
"441 414 CURVE SMOOTH",
"441 408 OFFCURVE",
"440 401 OFFCURVE",
"438 393 CURVE SMOOTH",
"430 356 OFFCURVE",
"405 333 OFFCURVE",
"366 333 CURVE SMOOTH",
"307 333 LINE"
);
}
);
width = 636;
}
);
note = P;
unicode = 0050;
},
{
glyphname = Thorn;
lastChange = "2015-10-23 07:09:38 +0000";
layers = (
{
layerId = "098F4D9A-293F-4750-B0F4-D0E702B92EEF";
name = "Bold Italic";
paths = (
{
closed = 1;
nodes = (
"237 0 LINE",
"252 72 LINE",
"368 72 LINE SMOOTH",
"543 72 OFFCURVE",
"639 180 OFFCURVE",
"669 321 CURVE SMOOTH",
"673 341 OFFCURVE",
"675 361 OFFCURVE",
"675 380 CURVE SMOOTH",
"675 489 OFFCURVE",
"606 572 OFFCURVE",
"478 572 CURVE SMOOTH",
"358 572 LINE",
"373 644 LINE",
"131 644 LINE",
"-5 0 LINE"
);
},
{
closed = 1;
nodes = (
"318 383 LINE",
"381 383 LINE SMOOTH",
"411 383 OFFCURVE",
"425 368 OFFCURVE",
"425 342 CURVE SMOOTH",
"425 335 OFFCURVE",
"425 329 OFFCURVE",
"423 321 CURVE SMOOTH",
"415 284 OFFCURVE",
"390 261 OFFCURVE",
"351 261 CURVE SMOOTH",
"292 261 LINE"
);
}
);
width = 656;
}
);
note = Thorn;
unicode = 00DE;
},
{
glyphname = Q;
lastChange = "2015-10-23 07:09:38 +0000";
layers = (
{
layerId = "098F4D9A-293F-4750-B0F4-D0E702B92EEF";
name = "Bold Italic";
paths = (
{
closed = 1;
nodes = (
"422 -172 OFFCURVE",
"476 -164 OFFCURVE",
"504 -156 CURVE",
"533 -22 LINE",
"508 -30 OFFCURVE",
"483 -34 OFFCURVE",
"458 -34 CURVE SMOOTH",
"420 -34 OFFCURVE",
"402 -28 OFFCURVE",
"402 -5 CURVE",
"580 15 OFFCURVE",
"688 110 OFFCURVE",
"733 322 CURVE SMOOTH",
"741 361 OFFCURVE",
"745 396 OFFCURVE",
"745 427 CURVE SMOOTH",
"745 591 OFFCURVE",
"635 654 OFFCURVE",
"459 654 CURVE SMOOTH",
"233 654 OFFCURVE",
"95 565 OFFCURVE",
"43 322 CURVE SMOOTH",
"35 284 OFFCURVE",
"31 250 OFFCURVE",
"31 219 CURVE SMOOTH",
"31 89 OFFCURVE",
"102 22 OFFCURVE",
"215 -1 CURVE",
"213 -13 OFFCURVE",
"212 -25 OFFCURVE",
"212 -36 CURVE SMOOTH",
"212 -118 OFFCURVE",
"265 -172 OFFCURVE",
"368 -172 CURVE SMOOTH"
);
},
{
closed = 1;
nodes = (
"304 195 OFFCURVE",
"282 213 OFFCURVE",
"282 259 CURVE SMOOTH",
"282 276 OFFCURVE",
"285 297 OFFCURVE",
"290 322 CURVE SMOOTH",
"310 415 OFFCURVE",
"344 449 OFFCURVE",
"415 449 CURVE SMOOTH",
"473 449 OFFCURVE",
"495 431 OFFCURVE",
"495 385 CURVE SMOOTH",
"495 368 OFFCURVE",
"491 347 OFFCURVE",
"486 322 CURVE SMOOTH",
"466 229 OFFCURVE",
"432 195 OFFCURVE",
"361 195 CURVE SMOOTH"
);
}
);
width = 720;
}
);
leftKerningGroup = O;
note = Q;
rightKerningGroup = O;
unicode = 0051;
},
{
glyphname = R;
lastChange = "2015-10-23 07:09:38 +0000";
layers = (
{
layerId = "098F4D9A-293F-4750-B0F4-D0E702B92EEF";
name = "Bold Italic";
paths = (
{
closed = 1;
nodes = (
"237 0 LINE",
"271 164 LINE",
"281 164 LINE SMOOTH",
"296 164 OFFCURVE",
"302 158 OFFCURVE",
"305 143 CURVE SMOOTH",
"338 0 LINE",
"590 0 LINE",
"551 175 LINE SMOOTH",
"548 190 OFFCURVE",
"543 198 OFFCURVE",
"531 208 CURVE",
"612 252 OFFCURVE",
"668 316 OFFCURVE",
"686 403 CURVE SMOOTH",
"690 422 OFFCURVE",
"692 441 OFFCURVE",
"692 459 CURVE SMOOTH",
"692 567 OFFCURVE",
"618 644 OFFCURVE",
"493 644 CURVE SMOOTH",
"131 644 LINE",
"-5 0 LINE"
);
},
{
closed = 1;
nodes = (
"333 455 LINE",
"396 455 LINE SMOOTH",
"427 455 OFFCURVE",
"442 445 OFFCURVE",
"442 420 CURVE SMOOTH",
"442 415 OFFCURVE",
"441 409 OFFCURVE",
"440 403 CURVE SMOOTH",
"433 369 OFFCURVE",
"410 353 OFFCURVE",
"371 353 CURVE SMOOTH",
"312 353 LINE"
);
}
);
width = 656;
}
);
note = R;
rightKerningGroup = R;
unicode = 0052;
},
{
glyphname = Racute;
lastChange = "2015-10-23 07:09:38 +0000";
layers = (
{
layerId = "098F4D9A-293F-4750-B0F4-D0E702B92EEF";
name = "Bold Italic";
paths = (
{
closed = 1;
nodes = (
"237 0 LINE",
"271 164 LINE",
"281 164 LINE SMOOTH",
"296 164 OFFCURVE",
"302 158 OFFCURVE",
"305 143 CURVE SMOOTH",
"338 0 LINE",
"590 0 LINE",
"551 175 LINE SMOOTH",
"548 190 OFFCURVE",
"543 198 OFFCURVE",
"531 208 CURVE",
"612 252 OFFCURVE",
"668 316 OFFCURVE",
"686 403 CURVE SMOOTH",
"690 422 OFFCURVE",
"692 441 OFFCURVE",
"692 459 CURVE SMOOTH",
"692 567 OFFCURVE",
"618 644 OFFCURVE",
"493 644 CURVE SMOOTH",
"131 644 LINE",
"-5 0 LINE"
);
},
{
closed = 1;
nodes = (
"333 455 LINE",
"396 455 LINE SMOOTH",
"427 455 OFFCURVE",
"442 445 OFFCURVE",
"442 420 CURVE SMOOTH",
"442 415 OFFCURVE",
"441 409 OFFCURVE",
"440 403 CURVE SMOOTH",
"433 369 OFFCURVE",
"410 353 OFFCURVE",
"371 353 CURVE SMOOTH",
"312 353 LINE"
);
},
{
closed = 1;
nodes = (
"482 688 LINE",
"635 914 LINE",
"449 914 LINE",
"305 688 LINE"
);
}
);
width = 656;
}
);
note = Racute;
rightKerningGroup = R;
unicode = 0154;
},
{
glyphname = Rcaron;
lastChange = "2015-10-23 07:09:38 +0000";
layers = (
{
layerId = "098F4D9A-293F-4750-B0F4-D0E702B92EEF";
name = "Bold Italic";
paths = (
{
closed = 1;
nodes = (
"237 0 LINE",
"271 164 LINE",
"281 164 LINE SMOOTH",
"296 164 OFFCURVE",
"302 158 OFFCURVE",
"305 143 CURVE SMOOTH",
"338 0 LINE",
"590 0 LINE",
"551 175 LINE SMOOTH",
"548 190 OFFCURVE",
"543 198 OFFCURVE",
"531 208 CURVE",
"612 252 OFFCURVE",
"668 316 OFFCURVE",
"686 403 CURVE SMOOTH",
"690 422 OFFCURVE",
"692 441 OFFCURVE",
"692 459 CURVE SMOOTH",
"692 567 OFFCURVE",
"618 644 OFFCURVE",
"493 644 CURVE SMOOTH",
"131 644 LINE",
"-5 0 LINE"
);
},
{
closed = 1;
nodes = (
"333 455 LINE",
"396 455 LINE SMOOTH",
"427 455 OFFCURVE",
"442 445 OFFCURVE",
"442 420 CURVE SMOOTH",
"442 415 OFFCURVE",
"441 409 OFFCURVE",
"440 403 CURVE SMOOTH",
"433 369 OFFCURVE",
"410 353 OFFCURVE",
"371 353 CURVE SMOOTH",
"312 353 LINE"
);
},
{
closed = 1;
nodes = (
"480 688 LINE",
"701 904 LINE",
"526 904 LINE",
"427 797 LINE",
"376 904 LINE",
"211 904 LINE",
"340 688 LINE"
);
}
);
width = 656;
}
);
note = Rcaron;
rightKerningGroup = R;
unicode = 0158;
},
{
glyphname = Rcommaaccent;
lastChange = "2015-10-23 07:09:38 +0000";
layers = (
{
layerId = "098F4D9A-293F-4750-B0F4-D0E702B92EEF";
name = "Bold Italic";
paths = (
{
closed = 1;
nodes = (
"237 0 LINE",
"271 164 LINE",
"281 164 LINE SMOOTH",
"296 164 OFFCURVE",
"302 158 OFFCURVE",
"305 143 CURVE SMOOTH",
"338 0 LINE",
"590 0 LINE",
"551 175 LINE SMOOTH",
"548 190 OFFCURVE",
"543 198 OFFCURVE",
"531 208 CURVE",
"612 252 OFFCURVE",
"668 316 OFFCURVE",
"686 403 CURVE SMOOTH",
"690 422 OFFCURVE",
"692 441 OFFCURVE",
"692 459 CURVE SMOOTH",
"692 567 OFFCURVE",
"618 644 OFFCURVE",
"493 644 CURVE SMOOTH",
"131 644 LINE",
"-5 0 LINE"
);
},
{
closed = 1;
nodes = (
"253 -286 LINE",
"371 -37 LINE",
"192 -37 LINE",
"103 -286 LINE"
);
},
{
closed = 1;
nodes = (
"333 455 LINE",
"396 455 LINE SMOOTH",
"427 455 OFFCURVE",
"442 445 OFFCURVE",
"442 420 CURVE SMOOTH",
"442 415 OFFCURVE",
"441 409 OFFCURVE",
"440 403 CURVE SMOOTH",
"433 369 OFFCURVE",
"410 353 OFFCURVE",
"371 353 CURVE SMOOTH",
"312 353 LINE"
);
}
);
width = 656;
}
);
note = Rcommaaccent;
rightKerningGroup = R;
unicode = 0156;
},
{
glyphname = Rdotbelow;
lastChange = "2015-10-23 07:09:38 +0000";
layers = (
{
layerId = "098F4D9A-293F-4750-B0F4-D0E702B92EEF";
name = "Bold Italic";
paths = (
{
closed = 1;
nodes = (
"237 0 LINE",
"271 164 LINE",
"281 164 LINE SMOOTH",
"296 164 OFFCURVE",
"302 158 OFFCURVE",
"305 143 CURVE SMOOTH",
"338 0 LINE",
"590 0 LINE",
"551 175 LINE SMOOTH",
"548 190 OFFCURVE",
"543 198 OFFCURVE",
"531 208 CURVE",
"612 252 OFFCURVE",
"668 316 OFFCURVE",
"686 403 CURVE SMOOTH",
"690 422 OFFCURVE",
"692 441 OFFCURVE",
"692 459 CURVE SMOOTH",
"692 567 OFFCURVE",
"618 644 OFFCURVE",
"493 644 CURVE SMOOTH",
"131 644 LINE",
"-5 0 LINE"
);
},
{
closed = 1;
nodes = (
"306 -213 LINE",
"336 -72 LINE",
"180 -72 LINE",
"150 -213 LINE"
);
},
{
closed = 1;
nodes = (
"333 455 LINE",
"396 455 LINE SMOOTH",
"427 455 OFFCURVE",
"442 445 OFFCURVE",
"442 420 CURVE SMOOTH",
"442 415 OFFCURVE",
"441 409 OFFCURVE",
"440 403 CURVE SMOOTH",
"433 369 OFFCURVE",
"410 353 OFFCURVE",
"371 353 CURVE SMOOTH",
"312 353 LINE"
);
}
);
width = 656;
}
);
note = Rdotbelow;
rightKerningGroup = R;
unicode = 1E5A;
},
{
glyphname = Rdotbelowmacron;
lastChange = "2015-10-23 07:09:38 +0000";
layers = (
{
layerId = "098F4D9A-293F-4750-B0F4-D0E702B92EEF";
name = "Bold Italic";
paths = (
{
closed = 1;
nodes = (
"237 0 LINE",
"271 164 LINE",
"281 164 LINE SMOOTH",
"296 164 OFFCURVE",
"302 158 OFFCURVE",
"305 143 CURVE SMOOTH",
"338 0 LINE",
"590 0 LINE",
"551 175 LINE SMOOTH",
"548 190 OFFCURVE",
"543 198 OFFCURVE",
"531 208 CURVE",
"612 252 OFFCURVE",
"668 316 OFFCURVE",
"686 403 CURVE SMOOTH",
"690 422 OFFCURVE",
"692 441 OFFCURVE",
"692 459 CURVE SMOOTH",
"692 567 OFFCURVE",
"618 644 OFFCURVE",
"493 644 CURVE SMOOTH",
"131 644 LINE",
"-5 0 LINE"
);
},
{
closed = 1;
nodes = (
"295 -213 LINE",
"325 -72 LINE",
"169 -72 LINE",
"139 -213 LINE"
);
},
{
closed = 1;
nodes = (
"333 455 LINE",
"396 455 LINE SMOOTH",
"427 455 OFFCURVE",
"442 445 OFFCURVE",
"442 420 CURVE SMOOTH",
"442 415 OFFCURVE",
"441 409 OFFCURVE",
"440 403 CURVE SMOOTH",
"433 369 OFFCURVE",
"410 353 OFFCURVE",
"371 353 CURVE SMOOTH",
"312 353 LINE"
);
},
{
closed = 1;
nodes = (
"585 718 LINE",
"615 858 LINE",
"267 858 LINE",
"237 718 LINE"
);
}
);
width = 656;
}
);
note = Rdotbelowmacron;
rightKerningGroup = R;
unicode = 1E5C;
},
{
glyphname = Rlinebelow;
lastChange = "2015-10-23 07:09:39 +0000";
layers = (
{
layerId = "098F4D9A-293F-4750-B0F4-D0E702B92EEF";
name = "Bold Italic";
paths = (
{
closed = 1;
nodes = (
"237 0 LINE",
"271 164 LINE",
"281 164 LINE SMOOTH",
"296 164 OFFCURVE",
"302 158 OFFCURVE",
"305 143 CURVE SMOOTH",
"338 0 LINE",
"590 0 LINE",
"551 175 LINE SMOOTH",
"548 190 OFFCURVE",
"543 198 OFFCURVE",
"531 208 CURVE",
"612 252 OFFCURVE",
"668 316 OFFCURVE",
"686 403 CURVE SMOOTH",
"690 422 OFFCURVE",
"692 441 OFFCURVE",
"692 459 CURVE SMOOTH",
"692 567 OFFCURVE",
"618 644 OFFCURVE",
"493 644 CURVE SMOOTH",
"131 644 LINE",
"-5 0 LINE"
);
},
{
closed = 1;
nodes = (
"402 -208 LINE",
"432 -68 LINE",
"84 -68 LINE",
"54 -208 LINE"
);
},
{
closed = 1;
nodes = (
"333 455 LINE",
"396 455 LINE SMOOTH",
"427 455 OFFCURVE",
"442 445 OFFCURVE",
"442 420 CURVE SMOOTH",
"442 415 OFFCURVE",
"441 409 OFFCURVE",
"440 403 CURVE SMOOTH",
"433 369 OFFCURVE",
"410 353 OFFCURVE",
"371 353 CURVE SMOOTH",
"312 353 LINE"
);
}
);
width = 656;
}
);
note = Rlinebelow;
rightKerningGroup = R;
unicode = 1E5E;
},
{
glyphname = S;
lastChange = "2015-10-23 07:09:38 +0000";
layers = (
{
layerId = "098F4D9A-293F-4750-B0F4-D0E702B92EEF";
name = "Bold Italic";
paths = (
{
closed = 1;
nodes = (
"429 -10 OFFCURVE",
"519 70 OFFCURVE",
"546 193 CURVE SMOOTH",
"551 217 OFFCURVE",
"554 238 OFFCURVE",
"554 258 CURVE SMOOTH",
"554 330 OFFCURVE",
"517 379 OFFCURVE",
"405 413 CURVE SMOOTH",
"346 431 OFFCURVE",
"318 436 OFFCURVE",
"318 452 CURVE SMOOTH",
"318 476 OFFCURVE",
"365 480 OFFCURVE",
"401 480 CURVE SMOOTH",
"443 480 OFFCURVE",
"497 471 OFFCURVE",
"563 441 CURVE",
"602 623 LINE",
"552 639 OFFCURVE",
"461 654 OFFCURVE",
"397 654 CURVE SMOOTH",
"192 654 OFFCURVE",
"100 589 OFFCURVE",
"71 453 CURVE SMOOTH",
"66 432 OFFCURVE",
"64 414 OFFCURVE",
"64 397 CURVE SMOOTH",
"64 325 OFFCURVE",
"106 285 OFFCURVE",
"192 249 CURVE SMOOTH",
"253 223 OFFCURVE",
"296 217 OFFCURVE",
"296 196 CURVE SMOOTH",
"296 174 OFFCURVE",
"268 163 OFFCURVE",
"226 163 CURVE SMOOTH",
"164 163 OFFCURVE",
"83 185 OFFCURVE",
"26 216 CURVE",
"-12 35 LINE",
"39 6 OFFCURVE",
"124 -10 OFFCURVE",
"215 -10 CURVE SMOOTH"
);
}
);
width = 560;
}
);
leftKerningGroup = S;
note = S;
rightKerningGroup = S;
unicode = 0053;
},
{
glyphname = Sacute;
lastChange = "2015-10-23 07:09:38 +0000";
layers = (
{
layerId = "098F4D9A-293F-4750-B0F4-D0E702B92EEF";
name = "Bold Italic";
paths = (
{
closed = 1;
nodes = (
"429 -10 OFFCURVE",
"519 70 OFFCURVE",
"546 193 CURVE SMOOTH",
"551 217 OFFCURVE",
"554 238 OFFCURVE",
"554 258 CURVE SMOOTH",
"554 330 OFFCURVE",
"517 379 OFFCURVE",
"405 413 CURVE SMOOTH",
"346 431 OFFCURVE",
"318 436 OFFCURVE",
"318 452 CURVE SMOOTH",
"318 476 OFFCURVE",
"365 480 OFFCURVE",
"401 480 CURVE SMOOTH",
"443 480 OFFCURVE",
"497 471 OFFCURVE",
"563 441 CURVE",
"602 623 LINE",
"552 639 OFFCURVE",
"461 654 OFFCURVE",
"397 654 CURVE SMOOTH",
"192 654 OFFCURVE",
"100 589 OFFCURVE",
"71 453 CURVE SMOOTH",
"66 432 OFFCURVE",
"64 414 OFFCURVE",
"64 397 CURVE SMOOTH",
"64 325 OFFCURVE",
"106 285 OFFCURVE",
"192 249 CURVE SMOOTH",
"253 223 OFFCURVE",
"296 217 OFFCURVE",
"296 196 CURVE SMOOTH",
"296 174 OFFCURVE",
"268 163 OFFCURVE",
"226 163 CURVE SMOOTH",
"164 163 OFFCURVE",
"83 185 OFFCURVE",
"26 216 CURVE",
"-12 35 LINE",
"39 6 OFFCURVE",
"124 -10 OFFCURVE",
"215 -10 CURVE SMOOTH"
);
},
{
closed = 1;
nodes = (
"462 688 LINE",
"615 914 LINE",
"429 914 LINE",
"285 688 LINE"
);
}
);
width = 560;
}
);
leftKerningGroup = S;
note = Sacute;
rightKerningGroup = S;
unicode = 015A;
},
{
glyphname = Scaron;
lastChange = "2015-10-23 07:09:38 +0000";
layers = (
{
layerId = "098F4D9A-293F-4750-B0F4-D0E702B92EEF";
name = "Bold Italic";
paths = (
{
closed = 1;
nodes = (
"429 -10 OFFCURVE",
"519 70 OFFCURVE",
"546 193 CURVE SMOOTH",
"551 217 OFFCURVE",
"554 238 OFFCURVE",
"554 258 CURVE SMOOTH",
"554 330 OFFCURVE",
"517 379 OFFCURVE",
"405 413 CURVE SMOOTH",
"346 431 OFFCURVE",
"318 436 OFFCURVE",
"318 452 CURVE SMOOTH",
"318 476 OFFCURVE",
"365 480 OFFCURVE",
"401 480 CURVE SMOOTH",
"443 480 OFFCURVE",
"497 471 OFFCURVE",
"563 441 CURVE",
"602 623 LINE",
"552 639 OFFCURVE",
"461 654 OFFCURVE",
"397 654 CURVE SMOOTH",
"192 654 OFFCURVE",
"100 589 OFFCURVE",
"71 453 CURVE SMOOTH",
"66 432 OFFCURVE",
"64 414 OFFCURVE",
"64 397 CURVE SMOOTH",
"64 325 OFFCURVE",
"106 285 OFFCURVE",
"192 249 CURVE SMOOTH",
"253 223 OFFCURVE",
"296 217 OFFCURVE",
"296 196 CURVE SMOOTH",
"296 174 OFFCURVE",
"268 163 OFFCURVE",
"226 163 CURVE SMOOTH",
"164 163 OFFCURVE",
"83 185 OFFCURVE",
"26 216 CURVE",
"-12 35 LINE",
"39 6 OFFCURVE",
"124 -10 OFFCURVE",
"215 -10 CURVE SMOOTH"
);
},
{
closed = 1;
nodes = (
"459 688 LINE",
"680 904 LINE",
"505 904 LINE",
"406 797 LINE",
"355 904 LINE",
"190 904 LINE",
"319 688 LINE"
);
}
);
width = 560;
}
);
leftKerningGroup = S;
note = Scaron;
rightKerningGroup = S;
unicode = 0160;
},
{
glyphname = Scedilla;
lastChange = "2015-10-23 07:09:38 +0000";
layers = (
{
layerId = "098F4D9A-293F-4750-B0F4-D0E702B92EEF";
name = "Bold Italic";
paths = (
{
closed = 1;
nodes = (
"261 -240 OFFCURVE",
"327 -199 OFFCURVE",
"341 -133 CURVE SMOOTH",
"343 -126 OFFCURVE",
"343 -118 OFFCURVE",
"343 -111 CURVE SMOOTH",
"343 -68 OFFCURVE",
"312 -37 OFFCURVE",
"254 -37 CURVE",
"270 -8 LINE",
"445 5 OFFCURVE",
"521 81 OFFCURVE",
"546 193 CURVE SMOOTH",
"551 217 OFFCURVE",
"554 238 OFFCURVE",
"554 258 CURVE SMOOTH",
"554 330 OFFCURVE",
"517 379 OFFCURVE",
"405 413 CURVE SMOOTH",
"346 431 OFFCURVE",
"318 436 OFFCURVE",
"318 452 CURVE SMOOTH",
"318 476 OFFCURVE",
"365 480 OFFCURVE",
"401 480 CURVE SMOOTH",
"443 480 OFFCURVE",
"497 471 OFFCURVE",
"563 441 CURVE",
"602 623 LINE",
"552 639 OFFCURVE",
"461 654 OFFCURVE",
"397 654 CURVE SMOOTH",
"192 654 OFFCURVE",
"100 589 OFFCURVE",
"71 453 CURVE SMOOTH",
"66 432 OFFCURVE",
"64 414 OFFCURVE",
"64 397 CURVE SMOOTH",
"64 325 OFFCURVE",
"106 285 OFFCURVE",
"192 249 CURVE SMOOTH",
"253 223 OFFCURVE",
"296 217 OFFCURVE",
"296 196 CURVE SMOOTH",
"296 174 OFFCURVE",
"268 163 OFFCURVE",
"226 163 CURVE SMOOTH",
"164 163 OFFCURVE",
"83 185 OFFCURVE",
"26 216 CURVE",
"-12 35 LINE",
"26 13 OFFCURVE",
"85 -1 OFFCURVE",
"150 -7 CURVE",
"105 -100 LINE",
"179 -100 LINE SMOOTH",
"201 -100 OFFCURVE",
"215 -107 OFFCURVE",
"210 -128 CURVE",
"206 -150 OFFCURVE",
"180 -163 OFFCURVE",
"136 -163 CURVE SMOOTH",
"117 -163 OFFCURVE",
"96 -160 OFFCURVE",
"80 -155 CURVE",
"63 -232 LINE",
"77 -236 OFFCURVE",
"124 -240 OFFCURVE",
"149 -240 CURVE SMOOTH"
);
}
);
width = 560;
}
);
leftKerningGroup = S;
note = Scedilla;
rightKerningGroup = S;
unicode = 015E;
},
{
glyphname = Scircumflex;
lastChange = "2015-10-23 07:09:38 +0000";
layers = (
{
layerId = "098F4D9A-293F-4750-B0F4-D0E702B92EEF";
name = "Bold Italic";
paths = (
{
closed = 1;
nodes = (
"471 -10 OFFCURVE",
"561 70 OFFCURVE",
"588 193 CURVE SMOOTH",
"593 217 OFFCURVE",
"596 238 OFFCURVE",
"596 258 CURVE SMOOTH",
"596 330 OFFCURVE",
"559 379 OFFCURVE",
"447 413 CURVE SMOOTH",
"388 431 OFFCURVE",
"360 436 OFFCURVE",
"360 452 CURVE SMOOTH",
"360 476 OFFCURVE",
"407 480 OFFCURVE",
"443 480 CURVE SMOOTH",
"485 480 OFFCURVE",
"539 471 OFFCURVE",
"605 441 CURVE",
"644 623 LINE",
"594 639 OFFCURVE",
"503 654 OFFCURVE",
"439 654 CURVE SMOOTH",
"234 654 OFFCURVE",
"142 589 OFFCURVE",
"113 453 CURVE SMOOTH",
"108 432 OFFCURVE",
"106 414 OFFCURVE",
"106 397 CURVE SMOOTH",
"106 325 OFFCURVE",
"148 285 OFFCURVE",
"234 249 CURVE SMOOTH",
"295 223 OFFCURVE",
"338 217 OFFCURVE",
"338 196 CURVE SMOOTH",
"338 174 OFFCURVE",
"310 163 OFFCURVE",
"268 163 CURVE SMOOTH",
"206 163 OFFCURVE",
"125 185 OFFCURVE",
"68 216 CURVE",
"30 35 LINE",
"81 6 OFFCURVE",
"166 -10 OFFCURVE",
"257 -10 CURVE SMOOTH"
);
},
{
closed = 1;
nodes = (
"351 688 LINE",
"446 795 LINE",
"500 688 LINE",
"661 688 LINE",
"532 904 LINE",
"391 904 LINE",
"171 688 LINE"
);
}
);
width = 602;
}
);
leftKerningGroup = S;
note = Scircumflex;
rightKerningGroup = S;
unicode = 015C;
},
{
glyphname = Scommaaccent;
lastChange = "2015-10-23 07:09:38 +0000";
layers = (
{
layerId = "098F4D9A-293F-4750-B0F4-D0E702B92EEF";
name = "Bold Italic";
paths = (
{
closed = 1;
nodes = (
"429 -10 OFFCURVE",
"519 70 OFFCURVE",
"546 193 CURVE SMOOTH",
"551 217 OFFCURVE",
"554 238 OFFCURVE",
"554 258 CURVE SMOOTH",
"554 330 OFFCURVE",
"517 379 OFFCURVE",
"405 413 CURVE SMOOTH",
"346 431 OFFCURVE",
"318 436 OFFCURVE",
"318 452 CURVE SMOOTH",
"318 476 OFFCURVE",
"365 480 OFFCURVE",
"401 480 CURVE SMOOTH",
"443 480 OFFCURVE",
"497 471 OFFCURVE",
"563 441 CURVE",
"602 623 LINE",
"552 639 OFFCURVE",
"461 654 OFFCURVE",
"397 654 CURVE SMOOTH",
"192 654 OFFCURVE",
"100 589 OFFCURVE",
"71 453 CURVE SMOOTH",
"66 432 OFFCURVE",
"64 414 OFFCURVE",
"64 397 CURVE SMOOTH",
"64 325 OFFCURVE",
"106 285 OFFCURVE",
"192 249 CURVE SMOOTH",
"253 223 OFFCURVE",
"296 217 OFFCURVE",
"296 196 CURVE SMOOTH",
"296 174 OFFCURVE",
"268 163 OFFCURVE",
"226 163 CURVE SMOOTH",
"164 163 OFFCURVE",
"83 185 OFFCURVE",
"26 216 CURVE",
"-12 35 LINE",
"39 6 OFFCURVE",
"124 -10 OFFCURVE",
"215 -10 CURVE SMOOTH"
);
},
{
closed = 1;
nodes = (
"247 -241 LINE",
"341 -37 LINE",
"141 -37 LINE",
"63 -241 LINE"
);
}
);
width = 560;
}
);
leftKerningGroup = S;
note = Scommaaccent;
rightKerningGroup = S;
unicode = 0218;
},
{
glyphname = Sdotaccent;
lastChange = "2015-10-23 07:09:39 +0000";
layers = (
{
layerId = "098F4D9A-293F-4750-B0F4-D0E702B92EEF";
name = "Bold Italic";
paths = (
{
closed = 1;
nodes = (
"429 -10 OFFCURVE",
"519 70 OFFCURVE",
"546 193 CURVE SMOOTH",
"551 217 OFFCURVE",
"554 238 OFFCURVE",
"554 258 CURVE SMOOTH",
"554 330 OFFCURVE",
"517 379 OFFCURVE",
"405 413 CURVE SMOOTH",
"346 431 OFFCURVE",
"318 436 OFFCURVE",
"318 452 CURVE SMOOTH",
"318 476 OFFCURVE",
"365 480 OFFCURVE",
"401 480 CURVE SMOOTH",
"443 480 OFFCURVE",
"497 471 OFFCURVE",
"563 441 CURVE",
"602 623 LINE",
"552 639 OFFCURVE",
"461 654 OFFCURVE",
"397 654 CURVE SMOOTH",
"192 654 OFFCURVE",
"100 589 OFFCURVE",
"71 453 CURVE SMOOTH",
"66 432 OFFCURVE",
"64 414 OFFCURVE",
"64 397 CURVE SMOOTH",
"64 325 OFFCURVE",
"106 285 OFFCURVE",
"192 249 CURVE SMOOTH",
"253 223 OFFCURVE",
"296 217 OFFCURVE",
"296 196 CURVE SMOOTH",
"296 174 OFFCURVE",
"268 163 OFFCURVE",
"226 163 CURVE SMOOTH",
"164 163 OFFCURVE",
"83 185 OFFCURVE",
"26 216 CURVE",
"-12 35 LINE",
"39 6 OFFCURVE",
"124 -10 OFFCURVE",
"215 -10 CURVE SMOOTH"
);
},
{
closed = 1;
nodes = (
"463 718 LINE",
"493 859 LINE",
"337 859 LINE",
"308 718 LINE"
);
}
);
width = 560;
}
);
leftKerningGroup = S;
note = Sdotaccent;
rightKerningGroup = S;
unicode = 1E60;
},
{
glyphname = Sdotbelow;
lastChange = "2015-10-23 07:09:38 +0000";
layers = (
{
layerId = "098F4D9A-293F-4750-B0F4-D0E702B92EEF";
name = "Bold Italic";
paths = (
{
closed = 1;
nodes = (
"429 -10 OFFCURVE",
"519 70 OFFCURVE",
"546 193 CURVE SMOOTH",
"551 217 OFFCURVE",
"554 238 OFFCURVE",
"554 258 CURVE SMOOTH",
"554 330 OFFCURVE",
"517 379 OFFCURVE",
"405 413 CURVE SMOOTH",
"346 431 OFFCURVE",
"318 436 OFFCURVE",
"318 452 CURVE SMOOTH",
"318 476 OFFCURVE",
"365 480 OFFCURVE",
"401 480 CURVE SMOOTH",
"443 480 OFFCURVE",
"497 471 OFFCURVE",
"563 441 CURVE",
"602 623 LINE",
"552 639 OFFCURVE",
"461 654 OFFCURVE",
"397 654 CURVE SMOOTH",
"192 654 OFFCURVE",
"100 589 OFFCURVE",
"71 453 CURVE SMOOTH",
"66 432 OFFCURVE",
"64 414 OFFCURVE",
"64 397 CURVE SMOOTH",
"64 325 OFFCURVE",
"106 285 OFFCURVE",
"192 249 CURVE SMOOTH",
"253 223 OFFCURVE",
"296 217 OFFCURVE",
"296 196 CURVE SMOOTH",
"296 174 OFFCURVE",
"268 163 OFFCURVE",
"226 163 CURVE SMOOTH",
"164 163 OFFCURVE",
"83 185 OFFCURVE",
"26 216 CURVE",
"-12 35 LINE",
"39 6 OFFCURVE",
"124 -10 OFFCURVE",
"215 -10 CURVE SMOOTH"
);
},
{
closed = 1;
nodes = (
"270 -213 LINE",
"300 -72 LINE",
"144 -72 LINE",
"114 -213 LINE"
);
}
);
width = 560;
}
);
leftKerningGroup = S;
note = Sdotbelow;
rightKerningGroup = S;
unicode = 1E62;
},
{
glyphname = Germandbls;
lastChange = "2015-10-23 07:09:38 +0000";
layers = (
{
layerId = "098F4D9A-293F-4750-B0F4-D0E702B92EEF";
name = "Bold Italic";
paths = (
{
closed = 1;
nodes = (
"515 -10 OFFCURVE",
"613 44 OFFCURVE",
"637 165 CURVE SMOOTH",
"640 178 OFFCURVE",
"641 191 OFFCURVE",
"641 202 CURVE SMOOTH",
"641 267 OFFCURVE",
"603 306 OFFCURVE",
"545 306 CURVE SMOOTH",
"531 306 LINE",
"666 409 LINE",
"670 426 OFFCURVE",
"672 442 OFFCURVE",
"672 458 CURVE SMOOTH",
"672 571 OFFCURVE",
"580 654 OFFCURVE",
"426 654 CURVE SMOOTH",
"221 654 OFFCURVE",
"107 553 OFFCURVE",
"75 401 CURVE SMOOTH",
"-10 0 LINE",
"217 0 LINE",
"301 398 LINE SMOOTH",
"309 433 OFFCURVE",
"331 460 OFFCURVE",
"384 460 CURVE SMOOTH",
"431 460 OFFCURVE",
"448 444 OFFCURVE",
"446 429 CURVE",
"318 331 LINE",
"295 224 LINE",
"349 224 LINE SMOOTH",
"383 224 OFFCURVE",
"396 215 OFFCURVE",
"396 196 CURVE SMOOTH",
"396 167 OFFCURVE",
"379 154 OFFCURVE",
"340 154 CURVE SMOOTH",
"323 154 OFFCURVE",
"295 157 OFFCURVE",
"281 163 CURVE",
"249 12 LINE",
"272 -1 OFFCURVE",
"322 -10 OFFCURVE",
"373 -10 CURVE SMOOTH"
);
}
);
width = 657;
}
);
note = uni1E9E;
unicode = 1E9E;
},
{
glyphname = Schwa;
lastChange = "2015-10-23 07:09:38 +0000";
layers = (
{
layerId = "098F4D9A-293F-4750-B0F4-D0E702B92EEF";
name = "Bold Italic";
paths = (
{
closed = 1;
nodes = (
"558 -10 OFFCURVE",
"673 117 OFFCURVE",
"715 312 CURVE SMOOTH",
"721 340 OFFCURVE",
"724 367 OFFCURVE",
"724 393 CURVE SMOOTH",
"724 553 OFFCURVE",
"609 654 OFFCURVE",
"427 654 CURVE SMOOTH",
"316 654 OFFCURVE",
"206 631 OFFCURVE",
"134 605 CURVE",
"103 458 LINE",
"152 478 OFFCURVE",
"275 502 OFFCURVE",
"342 502 CURVE SMOOTH",
"483 502 OFFCURVE",
"514 473 OFFCURVE",
"513 402 CURVE",
"60 402 LINE",
"36 289 LINE SMOOTH",
"31 263 OFFCURVE",
"28 239 OFFCURVE",
"28 217 CURVE SMOOTH",
"28 70 OFFCURVE",
"140 -10 OFFCURVE",
"306 -10 CURVE SMOOTH"
);
},
{
closed = 1;
nodes = (
"252 132 OFFCURVE",
"228 168 OFFCURVE",
"228 207 CURVE SMOOTH",
"228 215 OFFCURVE",
"229 224 OFFCURVE",
"231 232 CURVE SMOOTH",
"235 251 LINE",
"481 251 LINE",
"466 180 OFFCURVE",
"425 132 OFFCURVE",
"337 132 CURVE SMOOTH"
);
}
);
width = 704;
}
);
note = uni018F;
unicode = 018F;
},
{
glyphname = T;
lastChange = "2015-10-23 06:14:17 +0000";
layers = (
{
layerId = "098F4D9A-293F-4750-B0F4-D0E702B92EEF";
name = "Bold Italic";
paths = (
{
closed = 1;
nodes = (
"361 0 LINE",
"460 470 LINE",
"624 470 LINE",
"661 644 LINE",
"91 644 LINE",
"54 470 LINE",
"218 470 LINE",
"119 0 LINE"
);
}
);
width = 560;
}
);
leftKerningGroup = T;
note = T;
rightKerningGroup = T;
unicode = 0054;
},
{
glyphname = Tbar;
lastChange = "2015-10-23 06:14:17 +0000";
layers = (
{
layerId = "098F4D9A-293F-4750-B0F4-D0E702B92EEF";
name = "Bold Italic";
paths = (
{
closed = 1;
nodes = (
"361 0 LINE",
"411 239 LINE",
"478 239 LINE",
"511 393 LINE",
"444 393 LINE",
"460 470 LINE",
"624 470 LINE",
"661 644 LINE",
"91 644 LINE",
"54 470 LINE",
"218 470 LINE",
"202 393 LINE",
"125 393 LINE",
"92 239 LINE",
"169 239 LINE",
"119 0 LINE"
);
}
);
width = 560;
}
);
leftKerningGroup = T;
note = Tbar;
rightKerningGroup = T;
unicode = 0166;
},
{
glyphname = Tcaron;
lastChange = "2015-10-23 06:14:17 +0000";
layers = (
{
layerId = "098F4D9A-293F-4750-B0F4-D0E702B92EEF";
name = "Bold Italic";
paths = (
{
closed = 1;
nodes = (
"361 0 LINE",
"460 470 LINE",
"624 470 LINE",
"661 644 LINE",
"91 644 LINE",
"54 470 LINE",
"218 470 LINE",
"119 0 LINE"
);
},
{
closed = 1;
nodes = (
"456 688 LINE",
"677 904 LINE",
"502 904 LINE",
"403 797 LINE",
"352 904 LINE",
"187 904 LINE",
"316 688 LINE"
);
}
);
width = 560;
}
);
leftKerningGroup = T;
note = Tcaron;
rightKerningGroup = T;
unicode = 0164;
},
{
glyphname = Tcedilla;
lastChange = "2015-10-23 07:09:38 +0000";
layers = (
{
layerId = "098F4D9A-293F-4750-B0F4-D0E702B92EEF";
name = "Bold Italic";
paths = (
{
closed = 1;
nodes = (
"284 -240 OFFCURVE",
"350 -199 OFFCURVE",
"364 -133 CURVE SMOOTH",
"366 -126 OFFCURVE",
"366 -118 OFFCURVE",
"366 -111 CURVE SMOOTH",
"366 -68 OFFCURVE",
"335 -37 OFFCURVE",
"277 -37 CURVE",
"298 0 LINE",
"361 0 LINE",
"460 470 LINE",
"624 470 LINE",
"661 644 LINE",
"91 644 LINE",
"54 470 LINE",
"218 470 LINE",
"119 0 LINE",
"177 0 LINE",
"128 -100 LINE",
"202 -100 LINE SMOOTH",
"224 -100 OFFCURVE",
"238 -107 OFFCURVE",
"233 -128 CURVE",
"229 -150 OFFCURVE",
"203 -163 OFFCURVE",
"159 -163 CURVE SMOOTH",
"140 -163 OFFCURVE",
"119 -160 OFFCURVE",
"103 -155 CURVE",
"86 -232 LINE",
"100 -236 OFFCURVE",
"147 -240 OFFCURVE",
"172 -240 CURVE SMOOTH"
);
}
);
width = 560;
}
);
leftKerningGroup = T;
note = Tcedilla;
rightKerningGroup = T;
unicode = 0162;
},
{
glyphname = Tcommaaccent;
lastChange = "2015-10-23 06:14:18 +0000";
layers = (
{
layerId = "098F4D9A-293F-4750-B0F4-D0E702B92EEF";
name = "Bold Italic";
paths = (
{
closed = 1;
nodes = (
"337 0 LINE",
"436 470 LINE",
"600 470 LINE",
"637 644 LINE",
"67 644 LINE",
"30 470 LINE",
"194 470 LINE",
"95 0 LINE"
);
},
{
closed = 1;
nodes = (
"190 -286 LINE",
"308 -37 LINE",
"129 -37 LINE",
"40 -286 LINE"
);
}
);
width = 536;
}
);
leftKerningGroup = T;
note = Tcommaaccent;
rightKerningGroup = T;
unicode = 021A;
},
{
glyphname = Tdotbelow;
lastChange = "2015-10-23 06:14:17 +0000";
layers = (
{
layerId = "098F4D9A-293F-4750-B0F4-D0E702B92EEF";
name = "Bold Italic";
paths = (
{
closed = 1;
nodes = (
"361 0 LINE",
"460 470 LINE",
"624 470 LINE",
"661 644 LINE",
"91 644 LINE",
"54 470 LINE",
"218 470 LINE",
"119 0 LINE"
);
},
{
closed = 1;
nodes = (
"273 -193 LINE",
"303 -52 LINE",
"147 -52 LINE",
"117 -193 LINE"
);
}
);
width = 560;
}
);
leftKerningGroup = T;
note = Tdotbelow;
rightKerningGroup = T;
unicode = 1E6C;
},
{
glyphname = Tlinebelow;
lastChange = "2015-10-23 06:14:18 +0000";
layers = (
{
layerId = "098F4D9A-293F-4750-B0F4-D0E702B92EEF";
name = "Bold Italic";
paths = (
{
closed = 1;
nodes = (
"361 0 LINE",
"460 470 LINE",
"624 470 LINE",
"661 644 LINE",
"91 644 LINE",
"54 470 LINE",
"218 470 LINE",
"119 0 LINE"
);
},
{
closed = 1;
nodes = (
"374 -188 LINE",
"404 -48 LINE",
"56 -48 LINE",
"26 -188 LINE"
);
}
);
width = 560;
}
);
leftKerningGroup = T;
note = Tlinebelow;
rightKerningGroup = T;
unicode = 1E6E;
},
{
glyphname = U;
lastChange = "2015-10-23 07:09:38 +0000";
layers = (
{
layerId = "098F4D9A-293F-4750-B0F4-D0E702B92EEF";
name = "Bold Italic";
paths = (
{
closed = 1;
nodes = (
"525 -10 OFFCURVE",
"651 82 OFFCURVE",
"687 254 CURVE SMOOTH",
"770 644 LINE",
"528 644 LINE",
"452 285 LINE SMOOTH",
"439 224 OFFCURVE",
"415 195 OFFCURVE",
"353 195 CURVE SMOOTH",
"307 195 OFFCURVE",
"286 205 OFFCURVE",
"286 242 CURVE SMOOTH",
"286 254 OFFCURVE",
"288 268 OFFCURVE",
"292 285 CURVE SMOOTH",
"368 644 LINE",
"126 644 LINE",
"44 258 LINE SMOOTH",
"40 238 OFFCURVE",
"38 218 OFFCURVE",
"38 200 CURVE SMOOTH",
"38 70 OFFCURVE",
"143 -10 OFFCURVE",
"309 -10 CURVE SMOOTH"
);
}
);
width = 704;
}
);
leftKerningGroup = U;
note = U;
rightKerningGroup = U;
unicode = 0055;
},
{
glyphname = Uacute;
lastChange = "2015-10-23 07:09:38 +0000";
layers = (
{
layerId = "098F4D9A-293F-4750-B0F4-D0E702B92EEF";
name = "Bold Italic";
paths = (
{
closed = 1;
nodes = (
"525 -10 OFFCURVE",
"651 82 OFFCURVE",
"687 254 CURVE SMOOTH",
"770 644 LINE",
"528 644 LINE",
"452 285 LINE SMOOTH",
"439 224 OFFCURVE",
"415 195 OFFCURVE",
"353 195 CURVE SMOOTH",
"307 195 OFFCURVE",
"286 205 OFFCURVE",
"286 242 CURVE SMOOTH",
"286 254 OFFCURVE",
"288 268 OFFCURVE",
"292 285 CURVE SMOOTH",
"368 644 LINE",
"126 644 LINE",
"44 258 LINE SMOOTH",
"40 238 OFFCURVE",
"38 218 OFFCURVE",
"38 200 CURVE SMOOTH",
"38 70 OFFCURVE",
"143 -10 OFFCURVE",
"309 -10 CURVE SMOOTH"
);
},
{
closed = 1;
nodes = (
"547 688 LINE",
"700 914 LINE",
"514 914 LINE",
"370 688 LINE"
);
}
);
width = 704;
}
);
leftKerningGroup = U;
note = Uacute;
rightKerningGroup = U;
unicode = 00DA;
},
{
glyphname = Ubreve;
lastChange = "2015-10-23 07:09:39 +0000";
layers = (
{
layerId = "098F4D9A-293F-4750-B0F4-D0E702B92EEF";
name = "Bold Italic";
paths = (
{
closed = 1;
nodes = (
"525 -10 OFFCURVE",
"651 82 OFFCURVE",
"687 254 CURVE SMOOTH",
"770 644 LINE",
"528 644 LINE",
"452 285 LINE SMOOTH",
"439 224 OFFCURVE",
"415 195 OFFCURVE",
"353 195 CURVE SMOOTH",
"307 195 OFFCURVE",
"286 205 OFFCURVE",
"286 242 CURVE SMOOTH",
"286 254 OFFCURVE",
"288 268 OFFCURVE",
"292 285 CURVE SMOOTH",
"368 644 LINE",
"126 644 LINE",
"44 258 LINE SMOOTH",
"40 238 OFFCURVE",
"38 218 OFFCURVE",
"38 200 CURVE SMOOTH",
"38 70 OFFCURVE",
"143 -10 OFFCURVE",
"309 -10 CURVE SMOOTH"
);
},
{
closed = 1;
nodes = (
"591 688 OFFCURVE",
"694 765 OFFCURVE",
"725 908 CURVE",
"563 908 LINE",
"553 863 OFFCURVE",
"529 820 OFFCURVE",
"478 820 CURVE SMOOTH",
"441 820 OFFCURVE",
"428 844 OFFCURVE",
"428 875 CURVE SMOOTH",
"428 885 OFFCURVE",
"429 897 OFFCURVE",
"432 908 CURVE",
"285 908 LINE",
"280 886 OFFCURVE",
"278 865 OFFCURVE",
"278 846 CURVE SMOOTH",
"278 743 OFFCURVE",
"346 688 OFFCURVE",
"457 688 CURVE SMOOTH"
);
}
);
width = 704;
}
);
leftKerningGroup = U;
note = Ubreve;
rightKerningGroup = U;
unicode = 016C;
},
{
glyphname = Ucaron;
lastChange = "2015-10-23 07:09:38 +0000";
layers = (
{
layerId = "098F4D9A-293F-4750-B0F4-D0E702B92EEF";
name = "Bold Italic";
paths = (
{
closed = 1;
nodes = (
"527 -10 OFFCURVE",
"653 82 OFFCURVE",
"689 254 CURVE SMOOTH",
"772 644 LINE",
"530 644 LINE",
"454 285 LINE SMOOTH",
"441 224 OFFCURVE",
"417 195 OFFCURVE",
"355 195 CURVE SMOOTH",
"309 195 OFFCURVE",
"288 205 OFFCURVE",
"288 242 CURVE SMOOTH",
"288 254 OFFCURVE",
"290 268 OFFCURVE",
"294 285 CURVE SMOOTH",
"370 644 LINE",
"128 644 LINE",
"46 258 LINE SMOOTH",
"42 238 OFFCURVE",
"40 218 OFFCURVE",
"40 200 CURVE SMOOTH",
"40 70 OFFCURVE",
"145 -10 OFFCURVE",
"311 -10 CURVE SMOOTH"
);
},
{
closed = 1;
nodes = (
"530 688 LINE",
"751 904 LINE",
"576 904 LINE",
"477 797 LINE",
"426 904 LINE",
"261 904 LINE",
"390 688 LINE"
);
}
);
width = 706;
}
);
leftKerningGroup = U;
note = Ucaron;
rightKerningGroup = U;
unicode = 01D3;
},
{
glyphname = Ucircumflex;
lastChange = "2015-10-23 07:09:38 +0000";
layers = (
{
layerId = "098F4D9A-293F-4750-B0F4-D0E702B92EEF";
name = "Bold Italic";
paths = (
{
closed = 1;
nodes = (
"525 -10 OFFCURVE",
"651 82 OFFCURVE",
"687 254 CURVE SMOOTH",
"770 644 LINE",
"528 644 LINE",
"452 285 LINE SMOOTH",
"439 224 OFFCURVE",
"415 195 OFFCURVE",
"353 195 CURVE SMOOTH",
"307 195 OFFCURVE",
"286 205 OFFCURVE",
"286 242 CURVE SMOOTH",
"286 254 OFFCURVE",
"288 268 OFFCURVE",
"292 285 CURVE SMOOTH",
"368 644 LINE",
"126 644 LINE",
"44 258 LINE SMOOTH",
"40 238 OFFCURVE",
"38 218 OFFCURVE",
"38 200 CURVE SMOOTH",
"38 70 OFFCURVE",
"143 -10 OFFCURVE",
"309 -10 CURVE SMOOTH"
);
},
{
closed = 1;
nodes = (
"393 688 LINE",
"488 795 LINE",
"542 688 LINE",
"703 688 LINE",
"574 904 LINE",
"433 904 LINE",
"213 688 LINE"
);
}
);
width = 704;
}
);
leftKerningGroup = U;
note = Ucircumflex;
rightKerningGroup = U;
unicode = 00DB;
},
{
glyphname = Udieresis;
lastChange = "2015-10-23 07:09:38 +0000";
layers = (
{
layerId = "098F4D9A-293F-4750-B0F4-D0E702B92EEF";
name = "Bold Italic";
paths = (
{
closed = 1;
nodes = (
"525 -10 OFFCURVE",
"651 82 OFFCURVE",
"687 254 CURVE SMOOTH",
"770 644 LINE",
"528 644 LINE",
"452 285 LINE SMOOTH",
"439 224 OFFCURVE",
"415 195 OFFCURVE",
"353 195 CURVE SMOOTH",
"307 195 OFFCURVE",
"286 205 OFFCURVE",
"286 242 CURVE SMOOTH",
"286 254 OFFCURVE",
"288 268 OFFCURVE",
"292 285 CURVE SMOOTH",
"368 644 LINE",
"126 644 LINE",
"44 258 LINE SMOOTH",
"40 238 OFFCURVE",
"38 218 OFFCURVE",
"38 200 CURVE SMOOTH",
"38 70 OFFCURVE",
"143 -10 OFFCURVE",
"309 -10 CURVE SMOOTH"
);
},
{
closed = 1;
nodes = (
"424 718 LINE",
"454 859 LINE",
"299 859 LINE",
"269 718 LINE"
);
},
{
closed = 1;
nodes = (
"659 718 LINE",
"689 859 LINE",
"533 859 LINE",
"503 718 LINE"
);
}
);
width = 704;
}
);
leftKerningGroup = U;
note = Udieresis;
rightKerningGroup = U;
unicode = 00DC;
},
{
glyphname = Udieresisacute;
lastChange = "2015-10-23 07:09:38 +0000";
layers = (
{
layerId = "098F4D9A-293F-4750-B0F4-D0E702B92EEF";
name = "Bold Italic";
paths = (
{
closed = 1;
nodes = (
"525 -10 OFFCURVE",
"651 82 OFFCURVE",
"687 254 CURVE SMOOTH",
"770 644 LINE",
"528 644 LINE",
"452 285 LINE SMOOTH",
"439 224 OFFCURVE",
"415 195 OFFCURVE",
"353 195 CURVE SMOOTH",
"307 195 OFFCURVE",
"286 205 OFFCURVE",
"286 242 CURVE SMOOTH",
"286 254 OFFCURVE",
"288 268 OFFCURVE",
"292 285 CURVE SMOOTH",
"368 644 LINE",
"126 644 LINE",
"44 258 LINE SMOOTH",
"40 238 OFFCURVE",
"38 218 OFFCURVE",
"38 200 CURVE SMOOTH",
"38 70 OFFCURVE",
"143 -10 OFFCURVE",
"309 -10 CURVE SMOOTH"
);
},
{
closed = 1;
nodes = (
"422 698 LINE",
"450 831 LINE",
"298 831 LINE",
"270 698 LINE"
);
},
{
closed = 1;
nodes = (
"651 698 LINE",
"679 831 LINE",
"527 831 LINE",
"499 698 LINE"
);
},
{
closed = 1;
nodes = (
"571 862 LINE",
"675 1007 LINE",
"497 1007 LINE",
"411 862 LINE"
);
}
);
width = 704;
}
);
leftKerningGroup = U;
note = Udieresisacute;
rightKerningGroup = U;
unicode = 01D7;
},
{
glyphname = Udieresiscaron;
lastChange = "2015-10-23 07:09:38 +0000";
layers = (
{
layerId = "098F4D9A-293F-4750-B0F4-D0E702B92EEF";
name = "Bold Italic";
paths = (
{
closed = 1;
nodes = (
"525 -10 OFFCURVE",
"651 82 OFFCURVE",
"687 254 CURVE SMOOTH",
"770 644 LINE",
"528 644 LINE",
"452 285 LINE SMOOTH",
"439 224 OFFCURVE",
"415 195 OFFCURVE",
"353 195 CURVE SMOOTH",
"307 195 OFFCURVE",
"286 205 OFFCURVE",
"286 242 CURVE SMOOTH",
"286 254 OFFCURVE",
"288 268 OFFCURVE",
"292 285 CURVE SMOOTH",
"368 644 LINE",
"126 644 LINE",
"44 258 LINE SMOOTH",
"40 238 OFFCURVE",
"38 218 OFFCURVE",
"38 200 CURVE SMOOTH",
"38 70 OFFCURVE",
"143 -10 OFFCURVE",
"309 -10 CURVE SMOOTH"
);
},
{
closed = 1;
nodes = (
"418 698 LINE",
"446 831 LINE",
"294 831 LINE",
"266 698 LINE"
);
},
{
closed = 1;
nodes = (
"646 698 LINE",
"674 831 LINE",
"523 831 LINE",
"495 698 LINE"
);
},
{
closed = 1;
nodes = (
"579 862 LINE",
"757 1007 LINE",
"580 1007 LINE",
"507 934 LINE",
"466 1007 LINE",
"295 1007 LINE",
"414 862 LINE"
);
}
);
width = 704;
}
);
leftKerningGroup = U;
note = Udieresiscaron;
rightKerningGroup = U;
unicode = 01D9;
},
{
glyphname = Udieresisgrave;
lastChange = "2015-10-23 07:09:38 +0000";
layers = (
{
layerId = "098F4D9A-293F-4750-B0F4-D0E702B92EEF";
name = "Bold Italic";
paths = (
{
closed = 1;
nodes = (
"525 -10 OFFCURVE",
"651 82 OFFCURVE",
"687 254 CURVE SMOOTH",
"770 644 LINE",
"528 644 LINE",
"452 285 LINE SMOOTH",
"439 224 OFFCURVE",
"415 195 OFFCURVE",
"353 195 CURVE SMOOTH",
"307 195 OFFCURVE",
"286 205 OFFCURVE",
"286 242 CURVE SMOOTH",
"286 254 OFFCURVE",
"288 268 OFFCURVE",
"292 285 CURVE SMOOTH",
"368 644 LINE",
"126 644 LINE",
"44 258 LINE SMOOTH",
"40 238 OFFCURVE",
"38 218 OFFCURVE",
"38 200 CURVE SMOOTH",
"38 70 OFFCURVE",
"143 -10 OFFCURVE",
"309 -10 CURVE SMOOTH"
);
},
{
closed = 1;
nodes = (
"429 733 LINE",
"457 866 LINE",
"305 866 LINE",
"277 733 LINE"
);
},
{
closed = 1;
nodes = (
"658 733 LINE",
"686 866 LINE",
"534 866 LINE",
"506 733 LINE"
);
},
{
closed = 1;
nodes = (
"587 897 LINE",
"561 1042 LINE",
"383 1042 LINE",
"427 897 LINE"
);
}
);
width = 704;
}
);
leftKerningGroup = U;
note = Udieresisgrave;
rightKerningGroup = U;
unicode = 01DB;
},
{
glyphname = Udieresismacron;
lastChange = "2015-10-23 07:09:38 +0000";
layers = (
{
layerId = "098F4D9A-293F-4750-B0F4-D0E702B92EEF";
name = "Bold Italic";
paths = (
{
closed = 1;
nodes = (
"525 -10 OFFCURVE",
"651 82 OFFCURVE",
"687 254 CURVE SMOOTH",
"770 644 LINE",
"528 644 LINE",
"452 285 LINE SMOOTH",
"439 224 OFFCURVE",
"415 195 OFFCURVE",
"353 195 CURVE SMOOTH",
"307 195 OFFCURVE",
"286 205 OFFCURVE",
"286 242 CURVE SMOOTH",
"286 254 OFFCURVE",
"288 268 OFFCURVE",
"292 285 CURVE SMOOTH",
"368 644 LINE",
"126 644 LINE",
"44 258 LINE SMOOTH",
"40 238 OFFCURVE",
"38 218 OFFCURVE",
"38 200 CURVE SMOOTH",
"38 70 OFFCURVE",
"143 -10 OFFCURVE",
"309 -10 CURVE SMOOTH"
);
},
{
closed = 1;
nodes = (
"420 697 LINE",
"450 838 LINE",
"295 838 LINE",
"265 697 LINE"
);
},
{
closed = 1;
nodes = (
"655 697 LINE",
"685 838 LINE",
"529 838 LINE",
"499 697 LINE"
);
},
{
closed = 1;
nodes = (
"674 888 LINE",
"704 1028 LINE",
"356 1028 LINE",
"326 888 LINE"
);
}
);
width = 704;
}
);
leftKerningGroup = U;
note = Udieresismacron;
rightKerningGroup = U;
unicode = 01D5;
},
{
glyphname = Udotbelow;
lastChange = "2015-10-23 07:09:38 +0000";
layers = (
{
layerId = "098F4D9A-293F-4750-B0F4-D0E702B92EEF";
name = "Bold Italic";
paths = (
{
closed = 1;
nodes = (
"525 -10 OFFCURVE",
"651 82 OFFCURVE",
"687 254 CURVE SMOOTH",
"770 644 LINE",
"528 644 LINE",
"452 285 LINE SMOOTH",
"439 224 OFFCURVE",
"415 195 OFFCURVE",
"353 195 CURVE SMOOTH",
"307 195 OFFCURVE",
"286 205 OFFCURVE",
"286 242 CURVE SMOOTH",
"286 254 OFFCURVE",
"288 268 OFFCURVE",
"292 285 CURVE SMOOTH",
"368 644 LINE",
"126 644 LINE",
"44 258 LINE SMOOTH",
"40 238 OFFCURVE",
"38 218 OFFCURVE",
"38 200 CURVE SMOOTH",
"38 70 OFFCURVE",
"143 -10 OFFCURVE",
"309 -10 CURVE SMOOTH"
);
},
{
closed = 1;
nodes = (
"345 -213 LINE",
"375 -72 LINE",
"219 -72 LINE",
"189 -213 LINE"
);
}
);
width = 704;
}
);
leftKerningGroup = U;
note = Udotbelow;
rightKerningGroup = U;
unicode = 1EE4;
},
{
glyphname = Ugrave;
lastChange = "2015-10-23 07:09:38 +0000";
layers = (
{
layerId = "098F4D9A-293F-4750-B0F4-D0E702B92EEF";
name = "Bold Italic";
paths = (
{
closed = 1;
nodes = (
"525 -10 OFFCURVE",
"651 82 OFFCURVE",
"687 254 CURVE SMOOTH",
"770 644 LINE",
"528 644 LINE",
"452 285 LINE SMOOTH",
"439 224 OFFCURVE",
"415 195 OFFCURVE",
"353 195 CURVE SMOOTH",
"307 195 OFFCURVE",
"286 205 OFFCURVE",
"286 242 CURVE SMOOTH",
"286 254 OFFCURVE",
"288 268 OFFCURVE",
"292 285 CURVE SMOOTH",
"368 644 LINE",
"126 644 LINE",
"44 258 LINE SMOOTH",
"40 238 OFFCURVE",
"38 218 OFFCURVE",
"38 200 CURVE SMOOTH",
"38 70 OFFCURVE",
"143 -10 OFFCURVE",
"309 -10 CURVE SMOOTH"
);
},
{
closed = 1;
nodes = (
"547 688 LINE",
"499 914 LINE",
"313 914 LINE",
"370 688 LINE"
);
}
);
width = 704;
}
);
leftKerningGroup = U;
note = Ugrave;
rightKerningGroup = U;
unicode = 00D9;
},
{
glyphname = Uhookabove;
lastChange = "2015-10-23 07:09:39 +0000";
layers = (
{
layerId = "098F4D9A-293F-4750-B0F4-D0E702B92EEF";
name = "Bold Italic";
paths = (
{
closed = 1;
nodes = (
"525 -10 OFFCURVE",
"651 82 OFFCURVE",
"687 254 CURVE SMOOTH",
"770 644 LINE",
"528 644 LINE",
"452 285 LINE SMOOTH",
"439 224 OFFCURVE",
"415 195 OFFCURVE",
"353 195 CURVE SMOOTH",
"307 195 OFFCURVE",
"286 205 OFFCURVE",
"286 242 CURVE SMOOTH",
"286 254 OFFCURVE",
"288 268 OFFCURVE",
"292 285 CURVE SMOOTH",
"368 644 LINE",
"126 644 LINE",
"44 258 LINE SMOOTH",
"40 238 OFFCURVE",
"38 218 OFFCURVE",
"38 200 CURVE SMOOTH",
"38 70 OFFCURVE",
"143 -10 OFFCURVE",
"309 -10 CURVE SMOOTH"
);
},
{
closed = 1;
nodes = (
"547 687 LINE",
"555 723 LINE",
"616 741 OFFCURVE",
"646 767 OFFCURVE",
"659 827 CURVE SMOOTH",
"660 834 OFFCURVE",
"661 840 OFFCURVE",
"661 847 CURVE SMOOTH",
"661 897 OFFCURVE",
"616 934 OFFCURVE",
"530 934 CURVE SMOOTH",
"472 934 OFFCURVE",
"431 928 OFFCURVE",
"397 919 CURVE",
"377 825 LINE",
"394 831 OFFCURVE",
"415 835 OFFCURVE",
"435 835 CURVE SMOOTH",
"469 835 OFFCURVE",
"484 827 OFFCURVE",
"479 807 CURVE",
"475 787 OFFCURVE",
"452 772 OFFCURVE",
"386 768 CURVE",
"369 687 LINE"
);
}
);
width = 704;
}
);
leftKerningGroup = U;
note = Uhookabove;
rightKerningGroup = U;
unicode = 1EE6;
},
{
glyphname = Uhorn;
lastChange = "2015-10-23 07:09:38 +0000";
layers = (
{
layerId = "098F4D9A-293F-4750-B0F4-D0E702B92EEF";
name = "Bold Italic";
paths = (
{
closed = 1;
nodes = (
"525 -10 OFFCURVE",
"651 82 OFFCURVE",
"687 254 CURVE SMOOTH",
"728 447 LINE",
"907 450 OFFCURVE",
"983 511 OFFCURVE",
"1021 688 CURVE",
"852 688 LINE",
"840 625 OFFCURVE",
"823 604 OFFCURVE",
"761 601 CURVE",
"770 644 LINE",
"528 644 LINE",
"452 285 LINE SMOOTH",
"439 224 OFFCURVE",
"415 195 OFFCURVE",
"353 195 CURVE SMOOTH",
"307 195 OFFCURVE",
"286 205 OFFCURVE",
"286 242 CURVE SMOOTH",
"286 254 OFFCURVE",
"288 268 OFFCURVE",
"292 285 CURVE SMOOTH",
"368 644 LINE",
"126 644 LINE",
"44 258 LINE SMOOTH",
"40 238 OFFCURVE",
"38 218 OFFCURVE",
"38 200 CURVE SMOOTH",
"38 70 OFFCURVE",
"143 -10 OFFCURVE",
"309 -10 CURVE SMOOTH"
);
}
);
width = 910;
}
);
note = Uhorn;
unicode = 01AF;
},
{
glyphname = Uhornacute;
lastChange = "2015-10-23 07:09:39 +0000";
layers = (
{
layerId = "098F4D9A-293F-4750-B0F4-D0E702B92EEF";
name = "Bold Italic";
paths = (
{
closed = 1;
nodes = (
"525 -10 OFFCURVE",
"651 82 OFFCURVE",
"687 254 CURVE SMOOTH",
"728 447 LINE",
"907 450 OFFCURVE",
"983 511 OFFCURVE",
"1021 688 CURVE",
"852 688 LINE",
"840 625 OFFCURVE",
"823 604 OFFCURVE",
"761 601 CURVE",
"770 644 LINE",
"528 644 LINE",
"452 285 LINE SMOOTH",
"439 224 OFFCURVE",
"415 195 OFFCURVE",
"353 195 CURVE SMOOTH",
"307 195 OFFCURVE",
"286 205 OFFCURVE",
"286 242 CURVE SMOOTH",
"286 254 OFFCURVE",
"288 268 OFFCURVE",
"292 285 CURVE SMOOTH",
"368 644 LINE",
"126 644 LINE",
"44 258 LINE SMOOTH",
"40 238 OFFCURVE",
"38 218 OFFCURVE",
"38 200 CURVE SMOOTH",
"38 70 OFFCURVE",
"143 -10 OFFCURVE",
"309 -10 CURVE SMOOTH"
);
},
{
closed = 1;
nodes = (
"549 688 LINE",
"702 914 LINE",
"516 914 LINE",
"372 688 LINE"
);
}
);
width = 910;
}
);
leftKerningGroup = U;
note = Uhornacute;
rightKerningGroup = U;
unicode = 1EE8;
},
{
glyphname = Uhorndotbelow;
lastChange = "2015-10-23 07:09:38 +0000";
layers = (
{
layerId = "098F4D9A-293F-4750-B0F4-D0E702B92EEF";
name = "Bold Italic";
paths = (
{
closed = 1;
nodes = (
"525 -10 OFFCURVE",
"651 82 OFFCURVE",
"687 254 CURVE SMOOTH",
"728 447 LINE",
"907 450 OFFCURVE",
"983 511 OFFCURVE",
"1021 688 CURVE",
"852 688 LINE",
"840 625 OFFCURVE",
"823 604 OFFCURVE",
"761 601 CURVE",
"770 644 LINE",
"528 644 LINE",
"452 285 LINE SMOOTH",
"439 224 OFFCURVE",
"415 195 OFFCURVE",
"353 195 CURVE SMOOTH",
"307 195 OFFCURVE",
"286 205 OFFCURVE",
"286 242 CURVE SMOOTH",
"286 254 OFFCURVE",
"288 268 OFFCURVE",
"292 285 CURVE SMOOTH",
"368 644 LINE",
"126 644 LINE",
"44 258 LINE SMOOTH",
"40 238 OFFCURVE",
"38 218 OFFCURVE",
"38 200 CURVE SMOOTH",
"38 70 OFFCURVE",
"143 -10 OFFCURVE",
"309 -10 CURVE SMOOTH"
);
},
{
closed = 1;
nodes = (
"347 -213 LINE",
"377 -72 LINE",
"221 -72 LINE",
"191 -213 LINE"
);
}
);
width = 910;
}
);
leftKerningGroup = U;
note = Uhorndotbelow;
rightKerningGroup = U;
unicode = 1EF0;
},
{
glyphname = Uhorngrave;
lastChange = "2015-10-23 07:09:38 +0000";
layers = (
{
layerId = "098F4D9A-293F-4750-B0F4-D0E702B92EEF";
name = "Bold Italic";
paths = (
{
closed = 1;
nodes = (
"525 -10 OFFCURVE",
"651 82 OFFCURVE",
"687 254 CURVE SMOOTH",
"728 447 LINE",
"907 450 OFFCURVE",
"983 511 OFFCURVE",
"1021 688 CURVE",
"852 688 LINE",
"840 625 OFFCURVE",
"823 604 OFFCURVE",
"761 601 CURVE",
"770 644 LINE",
"528 644 LINE",
"452 285 LINE SMOOTH",
"439 224 OFFCURVE",
"415 195 OFFCURVE",
"353 195 CURVE SMOOTH",
"307 195 OFFCURVE",
"286 205 OFFCURVE",
"286 242 CURVE SMOOTH",
"286 254 OFFCURVE",
"288 268 OFFCURVE",
"292 285 CURVE SMOOTH",
"368 644 LINE",
"126 644 LINE",
"44 258 LINE SMOOTH",
"40 238 OFFCURVE",
"38 218 OFFCURVE",
"38 200 CURVE SMOOTH",
"38 70 OFFCURVE",
"143 -10 OFFCURVE",
"309 -10 CURVE SMOOTH"
);
},
{
closed = 1;
nodes = (
"555 688 LINE",
"507 914 LINE",
"321 914 LINE",
"378 688 LINE"
);
}
);
width = 910;
}
);
leftKerningGroup = U;
note = Uhorngrave;
rightKerningGroup = U;
unicode = 1EEA;
},
{
glyphname = Uhornhookabove;
lastChange = "2015-10-23 07:09:38 +0000";
layers = (
{
layerId = "098F4D9A-293F-4750-B0F4-D0E702B92EEF";
name = "Bold Italic";
paths = (
{
closed = 1;
nodes = (
"525 -10 OFFCURVE",
"651 82 OFFCURVE",
"687 254 CURVE SMOOTH",
"728 447 LINE",
"907 450 OFFCURVE",
"983 511 OFFCURVE",
"1021 688 CURVE",
"852 688 LINE",
"840 625 OFFCURVE",
"823 604 OFFCURVE",
"761 601 CURVE",
"770 644 LINE",
"528 644 LINE",
"452 285 LINE SMOOTH",
"439 224 OFFCURVE",
"415 195 OFFCURVE",
"353 195 CURVE SMOOTH",
"307 195 OFFCURVE",
"286 205 OFFCURVE",
"286 242 CURVE SMOOTH",
"286 254 OFFCURVE",
"288 268 OFFCURVE",
"292 285 CURVE SMOOTH",
"368 644 LINE",
"126 644 LINE",
"44 258 LINE SMOOTH",
"40 238 OFFCURVE",
"38 218 OFFCURVE",
"38 200 CURVE SMOOTH",
"38 70 OFFCURVE",
"143 -10 OFFCURVE",
"309 -10 CURVE SMOOTH"
);
},
{
closed = 1;
nodes = (
"549 688 LINE",
"557 724 LINE",
"618 742 OFFCURVE",
"648 768 OFFCURVE",
"661 828 CURVE SMOOTH",
"662 835 OFFCURVE",
"663 841 OFFCURVE",
"663 848 CURVE SMOOTH",
"663 898 OFFCURVE",
"618 935 OFFCURVE",
"532 935 CURVE SMOOTH",
"474 935 OFFCURVE",
"433 929 OFFCURVE",
"399 920 CURVE",
"379 826 LINE",
"396 832 OFFCURVE",
"417 836 OFFCURVE",
"437 836 CURVE SMOOTH",
"471 836 OFFCURVE",
"486 828 OFFCURVE",
"481 808 CURVE",
"477 788 OFFCURVE",
"454 773 OFFCURVE",
"388 769 CURVE",
"371 688 LINE"
);
}
);
width = 910;
}
);
leftKerningGroup = U;
note = Uhornhookabove;
rightKerningGroup = U;
unicode = 1EEC;
},
{
glyphname = Uhorntilde;
lastChange = "2015-10-23 07:09:38 +0000";
layers = (
{
layerId = "098F4D9A-293F-4750-B0F4-D0E702B92EEF";
name = "Bold Italic";
paths = (
{
closed = 1;
nodes = (
"525 -10 OFFCURVE",
"651 82 OFFCURVE",
"687 254 CURVE SMOOTH",
"728 447 LINE",
"907 450 OFFCURVE",
"983 511 OFFCURVE",
"1021 688 CURVE",
"852 688 LINE",
"840 625 OFFCURVE",
"823 604 OFFCURVE",
"761 601 CURVE",
"770 644 LINE",
"528 644 LINE",
"452 285 LINE SMOOTH",
"439 224 OFFCURVE",
"415 195 OFFCURVE",
"353 195 CURVE SMOOTH",
"307 195 OFFCURVE",
"286 205 OFFCURVE",
"286 242 CURVE SMOOTH",
"286 254 OFFCURVE",
"288 268 OFFCURVE",
"292 285 CURVE SMOOTH",
"368 644 LINE",
"126 644 LINE",
"44 258 LINE SMOOTH",
"40 238 OFFCURVE",
"38 218 OFFCURVE",
"38 200 CURVE SMOOTH",
"38 70 OFFCURVE",
"143 -10 OFFCURVE",
"309 -10 CURVE SMOOTH"
);
},
{
closed = 1;
nodes = (
"612 688 OFFCURVE",
"655 705 OFFCURVE",
"672 723 CURVE",
"702 864 LINE",
"681 842 OFFCURVE",
"641 823 OFFCURVE",
"595 823 CURVE SMOOTH",
"526 823 OFFCURVE",
"477 867 OFFCURVE",
"404 867 CURVE SMOOTH",
"362 867 OFFCURVE",
"318 850 OFFCURVE",
"294 832 CURVE",
"264 691 LINE",
"293 715 OFFCURVE",
"332 732 OFFCURVE",
"378 732 CURVE SMOOTH",
"439 732 OFFCURVE",
"498 688 OFFCURVE",
"570 688 CURVE SMOOTH"
);
}
);
width = 910;
}
);
leftKerningGroup = U;
note = Uhorntilde;
rightKerningGroup = U;
unicode = 1EEE;
},
{
glyphname = Uhungarumlaut;
lastChange = "2015-10-23 07:09:38 +0000";
layers = (
{
layerId = "098F4D9A-293F-4750-B0F4-D0E702B92EEF";
name = "Bold Italic";
paths = (
{
closed = 1;
nodes = (
"525 -10 OFFCURVE",
"651 82 OFFCURVE",
"687 254 CURVE SMOOTH",
"770 644 LINE",
"528 644 LINE",
"452 285 LINE SMOOTH",
"439 224 OFFCURVE",
"415 195 OFFCURVE",
"353 195 CURVE SMOOTH",
"307 195 OFFCURVE",
"286 205 OFFCURVE",
"286 242 CURVE SMOOTH",
"286 254 OFFCURVE",
"288 268 OFFCURVE",
"292 285 CURVE SMOOTH",
"368 644 LINE",
"126 644 LINE",
"44 258 LINE SMOOTH",
"40 238 OFFCURVE",
"38 218 OFFCURVE",
"38 200 CURVE SMOOTH",
"38 70 OFFCURVE",
"143 -10 OFFCURVE",
"309 -10 CURVE SMOOTH"
);
},
{
closed = 1;
nodes = (
"403 688 LINE",
"559 891 LINE",
"354 891 LINE",
"216 688 LINE"
);
},
{
closed = 1;
nodes = (
"672 688 LINE",
"829 891 LINE",
"623 891 LINE",
"485 688 LINE"
);
}
);
width = 704;
}
);
leftKerningGroup = U;
note = Uhungarumlaut;
rightKerningGroup = U;
unicode = 0170;
},
{
glyphname = Umacron;
lastChange = "2015-10-23 07:09:38 +0000";
layers = (
{
layerId = "098F4D9A-293F-4750-B0F4-D0E702B92EEF";
name = "Bold Italic";
paths = (
{
closed = 1;
nodes = (
"525 -10 OFFCURVE",
"651 82 OFFCURVE",
"687 254 CURVE SMOOTH",
"770 644 LINE",
"528 644 LINE",
"452 285 LINE SMOOTH",
"439 224 OFFCURVE",
"415 195 OFFCURVE",
"353 195 CURVE SMOOTH",
"307 195 OFFCURVE",
"286 205 OFFCURVE",
"286 242 CURVE SMOOTH",
"286 254 OFFCURVE",
"288 268 OFFCURVE",
"292 285 CURVE SMOOTH",
"368 644 LINE",
"126 644 LINE",
"44 258 LINE SMOOTH",
"40 238 OFFCURVE",
"38 218 OFFCURVE",
"38 200 CURVE SMOOTH",
"38 70 OFFCURVE",
"143 -10 OFFCURVE",
"309 -10 CURVE SMOOTH"
);
},
{
closed = 1;
nodes = (
"640 728 LINE",
"670 868 LINE",
"322 868 LINE",
"292 728 LINE"
);
}
);
width = 704;
}
);
leftKerningGroup = U;
note = Umacron;
rightKerningGroup = U;
unicode = 016A;
},
{
glyphname = Uogonek;
lastChange = "2015-10-23 07:09:38 +0000";
layers = (
{
layerId = "098F4D9A-293F-4750-B0F4-D0E702B92EEF";
name = "Bold Italic";
paths = (
{
closed = 1;
nodes = (
"314 -220 OFFCURVE",
"362 -210 OFFCURVE",
"387 -202 CURVE",
"409 -96 LINE",
"396 -103 OFFCURVE",
"373 -107 OFFCURVE",
"356 -107 CURVE SMOOTH",
"331 -107 OFFCURVE",
"315 -102 OFFCURVE",
"315 -84 CURVE SMOOTH",
"315 -82 OFFCURVE",
"315 -79 OFFCURVE",
"316 -76 CURVE SMOOTH",
"322 -50 OFFCURVE",
"342 -27 OFFCURVE",
"369 -7 CURVE",
"548 8 OFFCURVE",
"654 99 OFFCURVE",
"687 254 CURVE SMOOTH",
"770 644 LINE",
"528 644 LINE",
"452 285 LINE SMOOTH",
"439 224 OFFCURVE",
"415 195 OFFCURVE",
"353 195 CURVE SMOOTH",
"307 195 OFFCURVE",
"286 205 OFFCURVE",
"286 242 CURVE SMOOTH",
"286 254 OFFCURVE",
"288 268 OFFCURVE",
"292 285 CURVE SMOOTH",
"368 644 LINE",
"126 644 LINE",
"44 258 LINE SMOOTH",
"40 238 OFFCURVE",
"38 218 OFFCURVE",
"38 200 CURVE SMOOTH",
"38 92 OFFCURVE",
"111 18 OFFCURVE",
"231 -3 CURVE",
"181 -30 OFFCURVE",
"135 -79 OFFCURVE",
"135 -140 CURVE SMOOTH",
"135 -195 OFFCURVE",
"184 -220 OFFCURVE",
"264 -220 CURVE SMOOTH"
);
}
);
width = 704;
}
);
leftKerningGroup = U;
note = Uogonek;
rightKerningGroup = U;
unicode = 0172;
},
{
glyphname = Uring;
lastChange = "2015-10-23 07:09:38 +0000";
layers = (
{
layerId = "098F4D9A-293F-4750-B0F4-D0E702B92EEF";
name = "Bold Italic";
paths = (
{
closed = 1;
nodes = (
"525 -10 OFFCURVE",
"651 82 OFFCURVE",
"687 254 CURVE SMOOTH",
"770 644 LINE",
"528 644 LINE",
"452 285 LINE SMOOTH",
"439 224 OFFCURVE",
"415 195 OFFCURVE",
"353 195 CURVE SMOOTH",
"307 195 OFFCURVE",
"286 205 OFFCURVE",
"286 242 CURVE SMOOTH",
"286 254 OFFCURVE",
"288 268 OFFCURVE",
"292 285 CURVE SMOOTH",
"368 644 LINE",
"126 644 LINE",
"44 258 LINE SMOOTH",
"40 238 OFFCURVE",
"38 218 OFFCURVE",
"38 200 CURVE SMOOTH",
"38 70 OFFCURVE",
"143 -10 OFFCURVE",
"309 -10 CURVE SMOOTH"
);
},
{
closed = 1;
nodes = (
"559 688 OFFCURVE",
"625 751 OFFCURVE",
"642 831 CURVE SMOOTH",
"644 842 OFFCURVE",
"646 853 OFFCURVE",
"646 864 CURVE SMOOTH",
"646 928 OFFCURVE",
"601 975 OFFCURVE",
"519 975 CURVE SMOOTH",
"418 975 OFFCURVE",
"353 912 OFFCURVE",
"336 831 CURVE SMOOTH",
"334 820 OFFCURVE",
"333 809 OFFCURVE",
"333 799 CURVE SMOOTH",
"333 735 OFFCURVE",
"378 688 OFFCURVE",
"458 688 CURVE SMOOTH"
);
},
{
closed = 1;
nodes = (
"446 780 OFFCURVE",
"433 797 OFFCURVE",
"433 818 CURVE SMOOTH",
"433 850 OFFCURVE",
"456 882 OFFCURVE",
"499 882 CURVE SMOOTH",
"530 882 OFFCURVE",
"543 865 OFFCURVE",
"543 844 CURVE SMOOTH",
"543 812 OFFCURVE",
"520 780 OFFCURVE",
"477 780 CURVE SMOOTH"
);
}
);
width = 704;
}
);
leftKerningGroup = U;
note = Uring;
rightKerningGroup = U;
unicode = 016E;
},
{
glyphname = Utilde;
lastChange = "2015-10-23 07:09:38 +0000";
layers = (
{
layerId = "098F4D9A-293F-4750-B0F4-D0E702B92EEF";
name = "Bold Italic";
paths = (
{
closed = 1;
nodes = (
"525 -10 OFFCURVE",
"651 82 OFFCURVE",
"687 254 CURVE SMOOTH",
"770 644 LINE",
"528 644 LINE",
"452 285 LINE SMOOTH",
"439 224 OFFCURVE",
"415 195 OFFCURVE",
"353 195 CURVE SMOOTH",
"307 195 OFFCURVE",
"286 205 OFFCURVE",
"286 242 CURVE SMOOTH",
"286 254 OFFCURVE",
"288 268 OFFCURVE",
"292 285 CURVE SMOOTH",
"368 644 LINE",
"126 644 LINE",
"44 258 LINE SMOOTH",
"40 238 OFFCURVE",
"38 218 OFFCURVE",
"38 200 CURVE SMOOTH",
"38 70 OFFCURVE",
"143 -10 OFFCURVE",
"309 -10 CURVE SMOOTH"
);
},
{
closed = 1;
nodes = (
"608 693 OFFCURVE",
"651 710 OFFCURVE",
"668 728 CURVE",
"698 869 LINE",
"677 847 OFFCURVE",
"637 828 OFFCURVE",
"591 828 CURVE SMOOTH",
"522 828 OFFCURVE",
"473 872 OFFCURVE",
"400 872 CURVE SMOOTH",
"358 872 OFFCURVE",
"314 855 OFFCURVE",
"290 837 CURVE",
"260 696 LINE",
"289 720 OFFCURVE",
"328 737 OFFCURVE",
"374 737 CURVE SMOOTH",
"435 737 OFFCURVE",
"494 693 OFFCURVE",
"566 693 CURVE SMOOTH"
);
}
);
width = 704;
}
);
leftKerningGroup = U;
note = Utilde;
rightKerningGroup = U;
unicode = 0168;
},
{
glyphname = V;
lastChange = "2015-10-23 06:14:17 +0000";
layers = (
{
layerId = "098F4D9A-293F-4750-B0F4-D0E702B92EEF";
name = "Bold Italic";
paths = (
{
closed = 1;
nodes = (
"474 0 LINE",
"858 644 LINE",
"599 644 LINE",
"401 286 LINE",
"356 644 LINE",
"111 644 LINE",
"223 0 LINE"
);
}
);
width = 777;
}
);
note = V;
unicode = 0056;
},
{
glyphname = W;
lastChange = "2015-10-23 06:14:17 +0000";
layers = (
{
layerId = "098F4D9A-293F-4750-B0F4-D0E702B92EEF";
name = "Bold Italic";
paths = (
{
closed = 1;
nodes = (
"343 0 LINE",
"479 254 LINE",
"503 0 LINE",
"707 0 LINE",
"992 644 LINE",
"757 644 LINE",
"650 397 LINE",
"630 644 LINE",
"433 644 LINE",
"410 535 LINE",
"344 398 LINE",
"347 644 LINE",
"111 644 LINE",
"125 0 LINE"
);
}
);
width = 911;
}
);
leftKerningGroup = W;
note = W;
rightKerningGroup = W;
unicode = 0057;
},
{
glyphname = Wacute;
lastChange = "2015-10-23 06:14:17 +0000";
layers = (
{
layerId = "098F4D9A-293F-4750-B0F4-D0E702B92EEF";
name = "Bold Italic";
paths = (
{
closed = 1;
nodes = (
"343 0 LINE",
"479 254 LINE",
"503 0 LINE",
"707 0 LINE",
"992 644 LINE",
"757 644 LINE",
"650 397 LINE",
"630 644 LINE",
"433 644 LINE",
"410 535 LINE",
"344 398 LINE",
"347 644 LINE",
"111 644 LINE",
"125 0 LINE"
);
},
{
closed = 1;
nodes = (
"625 688 LINE",
"778 914 LINE",
"592 914 LINE",
"448 688 LINE"
);
}
);
width = 911;
}
);
leftKerningGroup = W;
note = Wacute;
rightKerningGroup = W;
unicode = 1E82;
},
{
glyphname = Wcircumflex;
lastChange = "2015-10-23 06:14:17 +0000";
layers = (
{
layerId = "098F4D9A-293F-4750-B0F4-D0E702B92EEF";
name = "Bold Italic";
paths = (
{
closed = 1;
nodes = (
"343 0 LINE",
"479 254 LINE",
"503 0 LINE",
"707 0 LINE",
"992 644 LINE",
"757 644 LINE",
"650 397 LINE",
"630 644 LINE",
"433 644 LINE",
"410 535 LINE",
"344 398 LINE",
"347 644 LINE",
"111 644 LINE",
"125 0 LINE"
);
},
{
closed = 1;
nodes = (
"500 688 LINE",
"595 795 LINE",
"649 688 LINE",
"810 688 LINE",
"681 904 LINE",
"540 904 LINE",
"320 688 LINE"
);
}
);
width = 911;
}
);
leftKerningGroup = W;
note = Wcircumflex;
rightKerningGroup = W;
unicode = 0174;
},
{
glyphname = Wdieresis;
lastChange = "2015-10-23 06:14:17 +0000";
layers = (
{
layerId = "098F4D9A-293F-4750-B0F4-D0E702B92EEF";
name = "Bold Italic";
paths = (
{
closed = 1;
nodes = (
"343 0 LINE",
"479 254 LINE",
"503 0 LINE",
"707 0 LINE",
"992 644 LINE",
"757 644 LINE",
"650 397 LINE",
"630 644 LINE",
"433 644 LINE",
"410 535 LINE",
"344 398 LINE",
"347 644 LINE",
"111 644 LINE",
"125 0 LINE"
);
},
{
closed = 1;
nodes = (
"531 718 LINE",
"561 859 LINE",
"406 859 LINE",
"376 718 LINE"
);
},
{
closed = 1;
nodes = (
"766 718 LINE",
"796 859 LINE",
"640 859 LINE",
"610 718 LINE"
);
}
);
width = 911;
}
);
leftKerningGroup = W;
note = Wdieresis;
rightKerningGroup = W;
unicode = 1E84;
},
{
glyphname = Wgrave;
lastChange = "2015-10-23 06:14:17 +0000";
layers = (
{
layerId = "098F4D9A-293F-4750-B0F4-D0E702B92EEF";
name = "Bold Italic";
paths = (
{
closed = 1;
nodes = (
"343 0 LINE",
"479 254 LINE",
"503 0 LINE",
"707 0 LINE",
"992 644 LINE",
"757 644 LINE",
"650 397 LINE",
"630 644 LINE",
"433 644 LINE",
"410 535 LINE",
"344 398 LINE",
"347 644 LINE",
"111 644 LINE",
"125 0 LINE"
);
},
{
closed = 1;
nodes = (
"638 688 LINE",
"590 914 LINE",
"404 914 LINE",
"461 688 LINE"
);
}
);
width = 911;
}
);
leftKerningGroup = W;
note = Wgrave;
rightKerningGroup = W;
unicode = 1E80;
},
{
glyphname = X;
lastChange = "2015-10-23 06:14:17 +0000";
layers = (
{
layerId = "098F4D9A-293F-4750-B0F4-D0E702B92EEF";
name = "Bold Italic";
paths = (
{
closed = 1;
nodes = (
"268 0 LINE",
"392 131 LINE",
"461 0 LINE",
"754 0 LINE",
"579 329 LINE",
"878 644 LINE",
"589 644 LINE",
"475 525 LINE",
"412 644 LINE",
"123 644 LINE",
"288 329 LINE",
"-25 0 LINE"
);
}
);
width = 809;
}
);
note = X;
unicode = 0058;
},
{
glyphname = Y;
lastChange = "2015-10-23 06:14:17 +0000";
layers = (
{
layerId = "098F4D9A-293F-4750-B0F4-D0E702B92EEF";
name = "Bold Italic";
paths = (
{
closed = 1;
nodes = (
"450 0 LINE",
"499 234 LINE",
"819 644 LINE",
"560 644 LINE",
"415 439 LINE",
"356 644 LINE",
"111 644 LINE",
"257 234 LINE",
"208 0 LINE"
);
}
);
width = 738;
}
);
leftKerningGroup = Y;
note = Y;
rightKerningGroup = Y;
unicode = 0059;
},
{
glyphname = Yacute;
lastChange = "2015-10-23 06:14:17 +0000";
layers = (
{
layerId = "098F4D9A-293F-4750-B0F4-D0E702B92EEF";
name = "Bold Italic";
paths = (
{
closed = 1;
nodes = (
"450 0 LINE",
"499 234 LINE",
"819 644 LINE",
"560 644 LINE",
"415 439 LINE",
"356 644 LINE",
"111 644 LINE",
"257 234 LINE",
"208 0 LINE"
);
},
{
closed = 1;
nodes = (
"563 688 LINE",
"716 914 LINE",
"530 914 LINE",
"386 688 LINE"
);
}
);
width = 738;
}
);
leftKerningGroup = Y;
note = Yacute;
rightKerningGroup = Y;
unicode = 00DD;
},
{
glyphname = Ycircumflex;
lastChange = "2015-10-23 06:14:17 +0000";
layers = (
{
layerId = "098F4D9A-293F-4750-B0F4-D0E702B92EEF";
name = "Bold Italic";
paths = (
{
closed = 1;
nodes = (
"450 0 LINE",
"499 234 LINE",
"819 644 LINE",
"560 644 LINE",
"415 439 LINE",
"356 644 LINE",
"111 644 LINE",
"257 234 LINE",
"208 0 LINE"
);
},
{
closed = 1;
nodes = (
"410 688 LINE",
"505 795 LINE",
"559 688 LINE",
"720 688 LINE",
"591 904 LINE",
"450 904 LINE",
"230 688 LINE"
);
}
);
width = 738;
}
);
leftKerningGroup = Y;
note = Ycircumflex;
rightKerningGroup = Y;
unicode = 0176;
},
{
glyphname = Ydieresis;
lastChange = "2015-10-23 06:14:18 +0000";
layers = (
{
layerId = "098F4D9A-293F-4750-B0F4-D0E702B92EEF";
name = "Bold Italic";
paths = (
{
closed = 1;
nodes = (
"450 0 LINE",
"499 234 LINE",
"819 644 LINE",
"560 644 LINE",
"415 439 LINE",
"356 644 LINE",
"111 644 LINE",
"257 234 LINE",
"208 0 LINE"
);
},
{
closed = 1;
nodes = (
"441 718 LINE",
"471 859 LINE",
"316 859 LINE",
"286 718 LINE"
);
},
{
closed = 1;
nodes = (
"676 718 LINE",
"706 859 LINE",
"550 859 LINE",
"520 718 LINE"
);
}
);
width = 738;
}
);
leftKerningGroup = Y;
note = Ydieresis;
rightKerningGroup = Y;
unicode = 0178;
},
{
glyphname = Ydotaccent;
lastChange = "2015-10-23 06:14:17 +0000";
layers = (
{
layerId = "098F4D9A-293F-4750-B0F4-D0E702B92EEF";
name = "Bold Italic";
paths = (
{
closed = 1;
nodes = (
"450 0 LINE",
"499 234 LINE",
"819 644 LINE",
"560 644 LINE",
"415 439 LINE",
"356 644 LINE",
"111 644 LINE",
"257 234 LINE",
"208 0 LINE"
);
},
{
closed = 1;
nodes = (
"558 718 LINE",
"588 859 LINE",
"432 859 LINE",
"403 718 LINE"
);
}
);
width = 738;
}
);
leftKerningGroup = Y;
note = Ydotaccent;
rightKerningGroup = Y;
unicode = 1E8E;
},
{
glyphname = Ydotbelow;
lastChange = "2015-10-23 06:14:18 +0000";
layers = (
{
layerId = "098F4D9A-293F-4750-B0F4-D0E702B92EEF";
name = "Bold Italic";
paths = (
{
closed = 1;
nodes = (
"450 0 LINE",
"499 234 LINE",
"819 644 LINE",
"560 644 LINE",
"415 439 LINE",
"356 644 LINE",
"111 644 LINE",
"257 234 LINE",
"208 0 LINE"
);
},
{
closed = 1;
nodes = (
"362 -213 LINE",
"392 -72 LINE",
"236 -72 LINE",
"206 -213 LINE"
);
}
);
width = 738;
}
);
leftKerningGroup = Y;
note = Ydotbelow;
rightKerningGroup = Y;
unicode = 1EF4;
},
{
glyphname = Ygrave;
lastChange = "2015-10-23 06:14:17 +0000";
layers = (
{
layerId = "098F4D9A-293F-4750-B0F4-D0E702B92EEF";
name = "Bold Italic";
paths = (
{
closed = 1;
nodes = (
"450 0 LINE",
"499 234 LINE",
"819 644 LINE",
"560 644 LINE",
"415 439 LINE",
"356 644 LINE",
"111 644 LINE",
"257 234 LINE",
"208 0 LINE"
);
},
{
closed = 1;
nodes = (
"567 688 LINE",
"519 914 LINE",
"333 914 LINE",
"390 688 LINE"
);
}
);
width = 738;
}
);
leftKerningGroup = Y;
note = Ygrave;
rightKerningGroup = Y;
unicode = 1EF2;
},
{
glyphname = Yhookabove;
lastChange = "2015-10-23 07:09:38 +0000";
layers = (
{
layerId = "098F4D9A-293F-4750-B0F4-D0E702B92EEF";
name = "Bold Italic";
paths = (
{
closed = 1;
nodes = (
"450 0 LINE",
"499 234 LINE",
"819 644 LINE",
"560 644 LINE",
"415 439 LINE",
"356 644 LINE",
"111 644 LINE",
"257 234 LINE",
"208 0 LINE"
);
},
{
closed = 1;
nodes = (
"566 687 LINE",
"574 723 LINE",
"635 741 OFFCURVE",
"665 767 OFFCURVE",
"678 827 CURVE SMOOTH",
"679 834 OFFCURVE",
"680 840 OFFCURVE",
"680 847 CURVE SMOOTH",
"680 897 OFFCURVE",
"635 934 OFFCURVE",
"549 934 CURVE SMOOTH",
"491 934 OFFCURVE",
"450 928 OFFCURVE",
"416 919 CURVE",
"396 825 LINE",
"413 831 OFFCURVE",
"434 835 OFFCURVE",
"454 835 CURVE SMOOTH",
"488 835 OFFCURVE",
"503 827 OFFCURVE",
"498 807 CURVE",
"494 787 OFFCURVE",
"471 772 OFFCURVE",
"405 768 CURVE",
"388 687 LINE"
);
}
);
width = 738;
}
);
leftKerningGroup = Y;
note = Yhookabove;
rightKerningGroup = Y;
unicode = 1EF6;
},
{
glyphname = Ytilde;
lastChange = "2015-10-23 06:14:17 +0000";
layers = (
{
layerId = "098F4D9A-293F-4750-B0F4-D0E702B92EEF";
name = "Bold Italic";
paths = (
{
closed = 1;
nodes = (
"450 0 LINE",
"499 234 LINE",
"819 644 LINE",
"560 644 LINE",
"415 439 LINE",
"356 644 LINE",
"111 644 LINE",
"257 234 LINE",
"208 0 LINE"
);
},
{
closed = 1;
nodes = (
"625 693 OFFCURVE",
"668 710 OFFCURVE",
"685 728 CURVE",
"715 869 LINE",
"694 847 OFFCURVE",
"654 828 OFFCURVE",
"608 828 CURVE SMOOTH",
"539 828 OFFCURVE",
"490 872 OFFCURVE",
"417 872 CURVE SMOOTH",
"375 872 OFFCURVE",
"331 855 OFFCURVE",
"307 837 CURVE",
"277 696 LINE",
"306 720 OFFCURVE",
"345 737 OFFCURVE",
"391 737 CURVE SMOOTH",
"452 737 OFFCURVE",
"511 693 OFFCURVE",
"583 693 CURVE SMOOTH"
);
}
);
width = 738;
}
);
leftKerningGroup = Y;
note = Ytilde;
rightKerningGroup = Y;
unicode = 1EF8;
},
{
glyphname = Z;
lastChange = "2015-10-23 06:14:17 +0000";
layers = (
{
layerId = "098F4D9A-293F-4750-B0F4-D0E702B92EEF";
name = "Bold Italic";
paths = (
{
closed = 1;
nodes = (
"536 0 LINE",
"575 184 LINE",
"336 184 LINE",
"637 507 LINE",
"666 644 LINE",
"125 644 LINE",
"83 446 LINE",
"305 446 LINE",
"0 119 LINE",
"-25 0 LINE"
);
}
);
width = 586;
}
);
note = Z;
unicode = 005A;
},
{
glyphname = Zacute;
lastChange = "2015-10-23 06:14:17 +0000";
layers = (
{
layerId = "098F4D9A-293F-4750-B0F4-D0E702B92EEF";
name = "Bold Italic";
paths = (
{
closed = 1;
nodes = (
"536 0 LINE",
"575 184 LINE",
"336 184 LINE",
"637 507 LINE",
"666 644 LINE",
"125 644 LINE",
"83 446 LINE",
"305 446 LINE",
"0 119 LINE",
"-25 0 LINE"
);
},
{
closed = 1;
nodes = (
"475 688 LINE",
"628 914 LINE",
"442 914 LINE",
"298 688 LINE"
);
}
);
width = 586;
}
);
note = Zacute;
unicode = 0179;
},
{
glyphname = Zcaron;
lastChange = "2015-10-23 06:14:17 +0000";
layers = (
{
layerId = "098F4D9A-293F-4750-B0F4-D0E702B92EEF";
name = "Bold Italic";
paths = (
{
closed = 1;
nodes = (
"536 0 LINE",
"575 184 LINE",
"336 184 LINE",
"637 507 LINE",
"666 644 LINE",
"125 644 LINE",
"83 446 LINE",
"305 446 LINE",
"0 119 LINE",
"-25 0 LINE"
);
},
{
closed = 1;
nodes = (
"489 688 LINE",
"710 904 LINE",
"535 904 LINE",
"436 797 LINE",
"385 904 LINE",
"220 904 LINE",
"349 688 LINE"
);
}
);
width = 586;
}
);
note = Zcaron;
unicode = 017D;
},
{
glyphname = Zdotaccent;
lastChange = "2015-10-23 06:14:17 +0000";
layers = (
{
layerId = "098F4D9A-293F-4750-B0F4-D0E702B92EEF";
name = "Bold Italic";
paths = (
{
closed = 1;
nodes = (
"536 0 LINE",
"575 184 LINE",
"336 184 LINE",
"637 507 LINE",
"666 644 LINE",
"125 644 LINE",
"83 446 LINE",
"305 446 LINE",
"0 119 LINE",
"-25 0 LINE"
);
},
{
closed = 1;
nodes = (
"493 718 LINE",
"523 859 LINE",
"367 859 LINE",
"338 718 LINE"
);
}
);
width = 586;
}
);
note = Zdotaccent;
unicode = 017B;
},
{
glyphname = Zdotbelow;
lastChange = "2015-10-23 06:14:17 +0000";
layers = (
{
layerId = "098F4D9A-293F-4750-B0F4-D0E702B92EEF";
name = "Bold Italic";
paths = (
{
closed = 1;
nodes = (
"536 0 LINE",
"575 184 LINE",
"336 184 LINE",
"637 507 LINE",
"666 644 LINE",
"125 644 LINE",
"83 446 LINE",
"305 446 LINE",
"0 119 LINE",
"-25 0 LINE"
);
},
{
closed = 1;
nodes = (
"307 -213 LINE",
"337 -72 LINE",
"181 -72 LINE",
"151 -213 LINE"
);
}
);
width = 586;
}
);
note = Zdotbelow;
unicode = 1E92;
},
{
glyphname = a;
lastChange = "2015-10-23 07:09:38 +0000";
layers = (
{
layerId = "098F4D9A-293F-4750-B0F4-D0E702B92EEF";
name = "Bold Italic";
paths = (
{
closed = 1;
nodes = (
"242 -10 OFFCURVE",
"298 6 OFFCURVE",
"338 31 CURVE",
"343 0 LINE",
"553 0 LINE",
"653 474 LINE",
"415 474 LINE",
"410 449 LINE",
"390 469 OFFCURVE",
"354 484 OFFCURVE",
"305 484 CURVE SMOOTH",
"153 484 OFFCURVE",
"56 383 OFFCURVE",
"20 216 CURVE SMOOTH",
"15 190 OFFCURVE",
"12 167 OFFCURVE",
"12 146 CURVE SMOOTH",
"12 39 OFFCURVE",
"78 -10 OFFCURVE",
"184 -10 CURVE SMOOTH"
);
},
{
closed = 1;
nodes = (
"281 163 OFFCURVE",
"266 169 OFFCURVE",
"266 197 CURVE SMOOTH",
"266 204 OFFCURVE",
"267 213 OFFCURVE",
"269 224 CURVE SMOOTH",
"281 281 OFFCURVE",
"303 311 OFFCURVE",
"335 311 CURVE SMOOTH",
"353 311 OFFCURVE",
"363 307 OFFCURVE",
"373 296 CURVE",
"348 178 LINE",
"336 169 OFFCURVE",
"321 163 OFFCURVE",
"303 163 CURVE SMOOTH"
);
}
);
width = 628;
}
);
leftKerningGroup = a;
note = a;
unicode = 0061;
},
{
glyphname = aacute;
lastChange = "2015-10-23 07:09:38 +0000";
layers = (
{
layerId = "098F4D9A-293F-4750-B0F4-D0E702B92EEF";
name = "Bold Italic";
paths = (
{
closed = 1;
nodes = (
"242 -10 OFFCURVE",
"298 6 OFFCURVE",
"338 31 CURVE",
"343 0 LINE",
"553 0 LINE",
"653 474 LINE",
"415 474 LINE",
"410 449 LINE",
"390 469 OFFCURVE",
"354 484 OFFCURVE",
"305 484 CURVE SMOOTH",
"153 484 OFFCURVE",
"56 383 OFFCURVE",
"20 216 CURVE SMOOTH",
"15 190 OFFCURVE",
"12 167 OFFCURVE",
"12 146 CURVE SMOOTH",
"12 39 OFFCURVE",
"78 -10 OFFCURVE",
"184 -10 CURVE SMOOTH"
);
},
{
closed = 1;
nodes = (
"281 163 OFFCURVE",
"266 169 OFFCURVE",
"266 197 CURVE SMOOTH",
"266 204 OFFCURVE",
"267 213 OFFCURVE",
"269 224 CURVE SMOOTH",
"281 281 OFFCURVE",
"303 311 OFFCURVE",
"335 311 CURVE SMOOTH",
"353 311 OFFCURVE",
"363 307 OFFCURVE",
"373 296 CURVE",
"348 178 LINE",
"336 169 OFFCURVE",
"321 163 OFFCURVE",
"303 163 CURVE SMOOTH"
);
},
{
closed = 1;
nodes = (
"455 522 LINE",
"608 748 LINE",
"422 748 LINE",
"278 522 LINE"
);
}
);
width = 587;
}
);
leftKerningGroup = a;
note = aacute;
unicode = 00E1;
},
{
glyphname = abreve;
lastChange = "2015-10-23 07:09:39 +0000";
layers = (
{
layerId = "098F4D9A-293F-4750-B0F4-D0E702B92EEF";
name = "Bold Italic";
paths = (
{
closed = 1;
nodes = (
"242 -10 OFFCURVE",
"298 6 OFFCURVE",
"338 31 CURVE",
"343 0 LINE",
"553 0 LINE",
"653 474 LINE",
"415 474 LINE",
"410 449 LINE",
"390 469 OFFCURVE",
"354 484 OFFCURVE",
"305 484 CURVE SMOOTH",
"153 484 OFFCURVE",
"56 383 OFFCURVE",
"20 216 CURVE SMOOTH",
"15 190 OFFCURVE",
"12 167 OFFCURVE",
"12 146 CURVE SMOOTH",
"12 39 OFFCURVE",
"78 -10 OFFCURVE",
"184 -10 CURVE SMOOTH"
);
},
{
closed = 1;
nodes = (
"281 163 OFFCURVE",
"266 169 OFFCURVE",
"266 197 CURVE SMOOTH",
"266 204 OFFCURVE",
"267 213 OFFCURVE",
"269 224 CURVE SMOOTH",
"281 281 OFFCURVE",
"303 311 OFFCURVE",
"335 311 CURVE SMOOTH",
"353 311 OFFCURVE",
"363 307 OFFCURVE",
"373 296 CURVE",
"348 178 LINE",
"336 169 OFFCURVE",
"321 163 OFFCURVE",
"303 163 CURVE SMOOTH"
);
},
{
closed = 1;
nodes = (
"517 522 OFFCURVE",
"620 599 OFFCURVE",
"651 742 CURVE",
"489 742 LINE",
"479 697 OFFCURVE",
"455 654 OFFCURVE",
"404 654 CURVE SMOOTH",
"367 654 OFFCURVE",
"354 678 OFFCURVE",
"354 709 CURVE SMOOTH",
"354 719 OFFCURVE",
"355 731 OFFCURVE",
"358 742 CURVE",
"211 742 LINE",
"206 720 OFFCURVE",
"204 699 OFFCURVE",
"204 680 CURVE SMOOTH",
"204 577 OFFCURVE",
"272 522 OFFCURVE",
"383 522 CURVE SMOOTH"
);
}
);
width = 587;
}
);
leftKerningGroup = a;
note = abreve;
unicode = 0103;
},
{
glyphname = abreveacute;
lastChange = "2015-10-23 07:09:39 +0000";
layers = (
{
layerId = "098F4D9A-293F-4750-B0F4-D0E702B92EEF";
name = "Bold Italic";
paths = (
{
closed = 1;
nodes = (
"242 -10 OFFCURVE",
"298 6 OFFCURVE",
"338 31 CURVE",
"343 0 LINE",
"553 0 LINE",
"653 474 LINE",
"415 474 LINE",
"410 449 LINE",
"390 469 OFFCURVE",
"354 484 OFFCURVE",
"305 484 CURVE SMOOTH",
"153 484 OFFCURVE",
"56 383 OFFCURVE",
"20 216 CURVE SMOOTH",
"15 190 OFFCURVE",
"12 167 OFFCURVE",
"12 146 CURVE SMOOTH",
"12 39 OFFCURVE",
"78 -10 OFFCURVE",
"184 -10 CURVE SMOOTH"
);
},
{
closed = 1;
nodes = (
"281 163 OFFCURVE",
"266 169 OFFCURVE",
"266 197 CURVE SMOOTH",
"266 204 OFFCURVE",
"267 213 OFFCURVE",
"269 224 CURVE SMOOTH",
"281 281 OFFCURVE",
"303 311 OFFCURVE",
"335 311 CURVE SMOOTH",
"353 311 OFFCURVE",
"363 307 OFFCURVE",
"373 296 CURVE",
"348 178 LINE",
"336 169 OFFCURVE",
"321 163 OFFCURVE",
"303 163 CURVE SMOOTH"
);
},
{
closed = 1;
nodes = (
"503 522 OFFCURVE",
"593 581 OFFCURVE",
"621 710 CURVE",
"480 710 LINE",
"471 670 OFFCURVE",
"451 639 OFFCURVE",
"399 639 CURVE SMOOTH",
"363 639 OFFCURVE",
"347 655 OFFCURVE",
"347 684 CURVE SMOOTH",
"347 691 OFFCURVE",
"349 700 OFFCURVE",
"351 710 CURVE",
"224 710 LINE",
"220 692 OFFCURVE",
"218 675 OFFCURVE",
"218 659 CURVE SMOOTH",
"218 566 OFFCURVE",
"288 522 OFFCURVE",
"382 522 CURVE SMOOTH"
);
},
{
closed = 1;
nodes = (
"506 729 LINE",
"624 901 LINE",
"469 901 LINE",
"358 729 LINE"
);
}
);
width = 587;
}
);
leftKerningGroup = a;
note = abreveacute;
unicode = 1EAF;
},
{
glyphname = abrevedotbelow;
lastChange = "2015-10-23 07:09:38 +0000";
layers = (
{
layerId = "098F4D9A-293F-4750-B0F4-D0E702B92EEF";
name = "Bold Italic";
paths = (
{
closed = 1;
nodes = (
"242 -10 OFFCURVE",
"298 6 OFFCURVE",
"338 31 CURVE",
"343 0 LINE",
"553 0 LINE",
"653 474 LINE",
"415 474 LINE",
"410 449 LINE",
"390 469 OFFCURVE",
"354 484 OFFCURVE",
"305 484 CURVE SMOOTH",
"153 484 OFFCURVE",
"56 383 OFFCURVE",
"20 216 CURVE SMOOTH",
"15 190 OFFCURVE",
"12 167 OFFCURVE",
"12 146 CURVE SMOOTH",
"12 39 OFFCURVE",
"78 -10 OFFCURVE",
"184 -10 CURVE SMOOTH"
);
},
{
closed = 1;
nodes = (
"316 -213 LINE",
"346 -72 LINE",
"190 -72 LINE",
"160 -213 LINE"
);
},
{
closed = 1;
nodes = (
"281 163 OFFCURVE",
"266 169 OFFCURVE",
"266 197 CURVE SMOOTH",
"266 204 OFFCURVE",
"267 213 OFFCURVE",
"269 224 CURVE SMOOTH",
"281 281 OFFCURVE",
"303 311 OFFCURVE",
"335 311 CURVE SMOOTH",
"353 311 OFFCURVE",
"363 307 OFFCURVE",
"373 296 CURVE",
"348 178 LINE",
"336 169 OFFCURVE",
"321 163 OFFCURVE",
"303 163 CURVE SMOOTH"
);
},
{
closed = 1;
nodes = (
"525 522 OFFCURVE",
"628 599 OFFCURVE",
"659 742 CURVE",
"497 742 LINE",
"487 697 OFFCURVE",
"463 654 OFFCURVE",
"412 654 CURVE SMOOTH",
"375 654 OFFCURVE",
"362 678 OFFCURVE",
"362 709 CURVE SMOOTH",
"362 719 OFFCURVE",
"363 731 OFFCURVE",
"366 742 CURVE",
"219 742 LINE",
"214 720 OFFCURVE",
"212 699 OFFCURVE",
"212 680 CURVE SMOOTH",
"212 577 OFFCURVE",
"280 522 OFFCURVE",
"391 522 CURVE SMOOTH"
);
}
);
width = 587;
}
);
leftKerningGroup = a;
note = abrevedotbelow;
unicode = 1EB7;
},
{
glyphname = abrevegrave;
lastChange = "2015-10-23 07:09:38 +0000";
layers = (
{
layerId = "098F4D9A-293F-4750-B0F4-D0E702B92EEF";
name = "Bold Italic";
paths = (
{
closed = 1;
nodes = (
"242 -10 OFFCURVE",
"298 6 OFFCURVE",
"338 31 CURVE",
"343 0 LINE",
"553 0 LINE",
"653 474 LINE",
"415 474 LINE",
"410 449 LINE",
"390 469 OFFCURVE",
"354 484 OFFCURVE",
"305 484 CURVE SMOOTH",
"153 484 OFFCURVE",
"56 383 OFFCURVE",
"20 216 CURVE SMOOTH",
"15 190 OFFCURVE",
"12 167 OFFCURVE",
"12 146 CURVE SMOOTH",
"12 39 OFFCURVE",
"78 -10 OFFCURVE",
"184 -10 CURVE SMOOTH"
);
},
{
closed = 1;
nodes = (
"281 163 OFFCURVE",
"266 169 OFFCURVE",
"266 197 CURVE SMOOTH",
"266 204 OFFCURVE",
"267 213 OFFCURVE",
"269 224 CURVE SMOOTH",
"281 281 OFFCURVE",
"303 311 OFFCURVE",
"335 311 CURVE SMOOTH",
"353 311 OFFCURVE",
"363 307 OFFCURVE",
"373 296 CURVE",
"348 178 LINE",
"336 169 OFFCURVE",
"321 163 OFFCURVE",
"303 163 CURVE SMOOTH"
);
},
{
closed = 1;
nodes = (
"500 522 OFFCURVE",
"590 581 OFFCURVE",
"618 710 CURVE",
"477 710 LINE",
"468 670 OFFCURVE",
"448 639 OFFCURVE",
"396 639 CURVE SMOOTH",
"360 639 OFFCURVE",
"344 655 OFFCURVE",
"344 684 CURVE SMOOTH",
"344 691 OFFCURVE",
"346 700 OFFCURVE",
"348 710 CURVE",
"221 710 LINE",
"217 692 OFFCURVE",
"215 675 OFFCURVE",
"215 659 CURVE SMOOTH",
"215 566 OFFCURVE",
"285 522 OFFCURVE",
"379 522 CURVE SMOOTH"
);
},
{
closed = 1;
nodes = (
"492 729 LINE",
"453 901 LINE",
"297 901 LINE",
"344 729 LINE"
);
}
);
width = 587;
}
);
leftKerningGroup = a;
note = abrevegrave;
unicode = 1EB1;
},
{
glyphname = abrevehookabove;
lastChange = "2015-10-23 07:09:38 +0000";
layers = (
{
layerId = "098F4D9A-293F-4750-B0F4-D0E702B92EEF";
name = "Bold Italic";
paths = (
{
closed = 1;
nodes = (
"242 -10 OFFCURVE",
"298 6 OFFCURVE",
"338 31 CURVE",
"343 0 LINE",
"553 0 LINE",
"653 474 LINE",
"415 474 LINE",
"410 449 LINE",
"390 469 OFFCURVE",
"354 484 OFFCURVE",
"305 484 CURVE SMOOTH",
"153 484 OFFCURVE",
"56 383 OFFCURVE",
"20 216 CURVE SMOOTH",
"15 190 OFFCURVE",
"12 167 OFFCURVE",
"12 146 CURVE SMOOTH",
"12 39 OFFCURVE",
"78 -10 OFFCURVE",
"184 -10 CURVE SMOOTH"
);
},
{
closed = 1;
nodes = (
"281 163 OFFCURVE",
"266 169 OFFCURVE",
"266 197 CURVE SMOOTH",
"266 204 OFFCURVE",
"267 213 OFFCURVE",
"269 224 CURVE SMOOTH",
"281 281 OFFCURVE",
"303 311 OFFCURVE",
"335 311 CURVE SMOOTH",
"353 311 OFFCURVE",
"363 307 OFFCURVE",
"373 296 CURVE",
"348 178 LINE",
"336 169 OFFCURVE",
"321 163 OFFCURVE",
"303 163 CURVE SMOOTH"
);
},
{
closed = 1;
nodes = (
"505 522 OFFCURVE",
"595 581 OFFCURVE",
"623 710 CURVE",
"482 710 LINE",
"473 670 OFFCURVE",
"453 639 OFFCURVE",
"401 639 CURVE SMOOTH",
"365 639 OFFCURVE",
"349 655 OFFCURVE",
"349 684 CURVE SMOOTH",
"349 691 OFFCURVE",
"351 700 OFFCURVE",
"353 710 CURVE",
"226 710 LINE",
"222 692 OFFCURVE",
"220 675 OFFCURVE",
"220 659 CURVE SMOOTH",
"220 566 OFFCURVE",
"290 522 OFFCURVE",
"384 522 CURVE SMOOTH"
);
},
{
closed = 1;
nodes = (
"506 730 LINE",
"512 757 LINE",
"566 773 OFFCURVE",
"590 797 OFFCURVE",
"600 843 CURVE SMOOTH",
"601 849 OFFCURVE",
"602 854 OFFCURVE",
"602 860 CURVE SMOOTH",
"602 903 OFFCURVE",
"564 935 OFFCURVE",
"490 935 CURVE SMOOTH",
"448 935 OFFCURVE",
"400 929 OFFCURVE",
"372 922 CURVE",
"354 840 LINE",
"368 845 OFFCURVE",
"388 851 OFFCURVE",
"405 851 CURVE SMOOTH",
"431 851 OFFCURVE",
"444 847 OFFCURVE",
"444 832 CURVE SMOOTH",
"444 811 OFFCURVE",
"420 795 OFFCURVE",
"362 793 CURVE",
"349 730 LINE"
);
}
);
width = 587;
}
);
leftKerningGroup = a;
note = abrevehookabove;
unicode = 1EB3;
},
{
glyphname = abrevetilde;
lastChange = "2015-10-23 07:09:38 +0000";
layers = (
{
layerId = "098F4D9A-293F-4750-B0F4-D0E702B92EEF";
name = "Bold Italic";
paths = (
{
closed = 1;
nodes = (
"242 -10 OFFCURVE",
"298 6 OFFCURVE",
"338 31 CURVE",
"343 0 LINE",
"553 0 LINE",
"653 474 LINE",
"415 474 LINE",
"410 449 LINE",
"390 469 OFFCURVE",
"354 484 OFFCURVE",
"305 484 CURVE SMOOTH",
"153 484 OFFCURVE",
"56 383 OFFCURVE",
"20 216 CURVE SMOOTH",
"15 190 OFFCURVE",
"12 167 OFFCURVE",
"12 146 CURVE SMOOTH",
"12 39 OFFCURVE",
"78 -10 OFFCURVE",
"184 -10 CURVE SMOOTH"
);
},
{
closed = 1;
nodes = (
"281 163 OFFCURVE",
"266 169 OFFCURVE",
"266 197 CURVE SMOOTH",
"266 204 OFFCURVE",
"267 213 OFFCURVE",
"269 224 CURVE SMOOTH",
"281 281 OFFCURVE",
"303 311 OFFCURVE",
"335 311 CURVE SMOOTH",
"353 311 OFFCURVE",
"363 307 OFFCURVE",
"373 296 CURVE",
"348 178 LINE",
"336 169 OFFCURVE",
"321 163 OFFCURVE",
"303 163 CURVE SMOOTH"
);
},
{
closed = 1;
nodes = (
"514 522 OFFCURVE",
"604 581 OFFCURVE",
"632 710 CURVE",
"491 710 LINE",
"482 670 OFFCURVE",
"462 639 OFFCURVE",
"410 639 CURVE SMOOTH",
"374 639 OFFCURVE",
"358 655 OFFCURVE",
"358 684 CURVE SMOOTH",
"358 691 OFFCURVE",
"360 700 OFFCURVE",
"362 710 CURVE",
"235 710 LINE",
"231 692 OFFCURVE",
"229 675 OFFCURVE",
"229 659 CURVE SMOOTH",
"229 566 OFFCURVE",
"299 522 OFFCURVE",
"393 522 CURVE SMOOTH"
);
},
{
closed = 1;
nodes = (
"581 735 OFFCURVE",
"623 751 OFFCURVE",
"638 768 CURVE",
"664 893 LINE",
"645 872 OFFCURVE",
"607 854 OFFCURVE",
"563 854 CURVE SMOOTH",
"498 854 OFFCURVE",
"450 896 OFFCURVE",
"380 896 CURVE SMOOTH",
"340 896 OFFCURVE",
"299 880 OFFCURVE",
"276 863 CURVE",
"250 738 LINE",
"277 761 OFFCURVE",
"314 777 OFFCURVE",
"358 777 CURVE SMOOTH",
"417 777 OFFCURVE",
"473 735 OFFCURVE",
"541 735 CURVE SMOOTH"
);
}
);
width = 587;
}
);
leftKerningGroup = a;
note = abrevetilde;
unicode = 1EB5;
},
{
glyphname = acaron;
lastChange = "2015-10-23 07:09:39 +0000";
layers = (
{
layerId = "098F4D9A-293F-4750-B0F4-D0E702B92EEF";
name = "Bold Italic";
paths = (
{
closed = 1;
nodes = (
"242 -10 OFFCURVE",
"298 6 OFFCURVE",
"338 31 CURVE",
"343 0 LINE",
"553 0 LINE",
"653 474 LINE",
"415 474 LINE",
"410 449 LINE",
"390 469 OFFCURVE",
"354 484 OFFCURVE",
"305 484 CURVE SMOOTH",
"153 484 OFFCURVE",
"56 383 OFFCURVE",
"20 216 CURVE SMOOTH",
"15 190 OFFCURVE",
"12 167 OFFCURVE",
"12 146 CURVE SMOOTH",
"12 39 OFFCURVE",
"78 -10 OFFCURVE",
"184 -10 CURVE SMOOTH"
);
},
{
closed = 1;
nodes = (
"281 163 OFFCURVE",
"266 169 OFFCURVE",
"266 197 CURVE SMOOTH",
"266 204 OFFCURVE",
"267 213 OFFCURVE",
"269 224 CURVE SMOOTH",
"281 281 OFFCURVE",
"303 311 OFFCURVE",
"335 311 CURVE SMOOTH",
"353 311 OFFCURVE",
"363 307 OFFCURVE",
"373 296 CURVE",
"348 178 LINE",
"336 169 OFFCURVE",
"321 163 OFFCURVE",
"303 163 CURVE SMOOTH"
);
},
{
closed = 1;
nodes = (
"442 522 LINE",
"663 738 LINE",
"488 738 LINE",
"389 631 LINE",
"338 738 LINE",
"173 738 LINE",
"302 522 LINE"
);
}
);
width = 587;
}
);
leftKerningGroup = a;
note = acaron;
unicode = 01CE;
},
{
glyphname = acircumflex;
lastChange = "2015-10-23 07:09:38 +0000";
layers = (
{
layerId = "098F4D9A-293F-4750-B0F4-D0E702B92EEF";
name = "Bold Italic";
paths = (
{
closed = 1;
nodes = (
"259 -10 OFFCURVE",
"315 6 OFFCURVE",
"355 31 CURVE",
"360 0 LINE",
"570 0 LINE",
"670 474 LINE",
"432 474 LINE",
"427 449 LINE",
"407 469 OFFCURVE",
"371 484 OFFCURVE",
"322 484 CURVE SMOOTH",
"170 484 OFFCURVE",
"73 383 OFFCURVE",
"37 216 CURVE SMOOTH",
"32 190 OFFCURVE",
"29 167 OFFCURVE",
"29 146 CURVE SMOOTH",
"29 39 OFFCURVE",
"95 -10 OFFCURVE",
"201 -10 CURVE SMOOTH"
);
},
{
closed = 1;
nodes = (
"298 163 OFFCURVE",
"283 169 OFFCURVE",
"283 197 CURVE SMOOTH",
"283 204 OFFCURVE",
"284 213 OFFCURVE",
"286 224 CURVE SMOOTH",
"298 281 OFFCURVE",
"320 311 OFFCURVE",
"352 311 CURVE SMOOTH",
"370 311 OFFCURVE",
"380 307 OFFCURVE",
"390 296 CURVE",
"365 178 LINE",
"353 169 OFFCURVE",
"338 163 OFFCURVE",
"320 163 CURVE SMOOTH"
);
},
{
closed = 1;
nodes = (
"326 522 LINE",
"421 629 LINE",
"475 522 LINE",
"636 522 LINE",
"507 738 LINE",
"366 738 LINE",
"146 522 LINE"
);
}
);
width = 604;
}
);
leftKerningGroup = a;
note = acircumflex;
unicode = 00E2;
},
{
glyphname = acircumflexacute;
lastChange = "2015-10-23 07:09:38 +0000";
layers = (
{
layerId = "098F4D9A-293F-4750-B0F4-D0E702B92EEF";
name = "Bold Italic";
paths = (
{
closed = 1;
nodes = (
"242 -10 OFFCURVE",
"298 6 OFFCURVE",
"338 31 CURVE",
"343 0 LINE",
"553 0 LINE",
"653 474 LINE",
"415 474 LINE",
"410 449 LINE",
"390 469 OFFCURVE",
"354 484 OFFCURVE",
"305 484 CURVE SMOOTH",
"153 484 OFFCURVE",
"56 383 OFFCURVE",
"20 216 CURVE SMOOTH",
"15 190 OFFCURVE",
"12 167 OFFCURVE",
"12 146 CURVE SMOOTH",
"12 39 OFFCURVE",
"78 -10 OFFCURVE",
"184 -10 CURVE SMOOTH"
);
},
{
closed = 1;
nodes = (
"281 163 OFFCURVE",
"266 169 OFFCURVE",
"266 197 CURVE SMOOTH",
"266 204 OFFCURVE",
"267 213 OFFCURVE",
"269 224 CURVE SMOOTH",
"281 281 OFFCURVE",
"303 311 OFFCURVE",
"335 311 CURVE SMOOTH",
"353 311 OFFCURVE",
"363 307 OFFCURVE",
"373 296 CURVE",
"348 178 LINE",
"336 169 OFFCURVE",
"321 163 OFFCURVE",
"303 163 CURVE SMOOTH"
);
},
{
closed = 1;
nodes = (
"334 522 LINE",
"403 598 LINE",
"443 522 LINE",
"624 522 LINE",
"503 690 LINE",
"328 690 LINE",
"134 522 LINE"
);
},
{
closed = 1;
nodes = (
"718 654 LINE",
"838 826 LINE",
"662 826 LINE",
"551 654 LINE"
);
}
);
width = 587;
}
);
leftKerningGroup = a;
note = acircumflexacute;
unicode = 1EA5;
},
{
glyphname = acircumflexdotbelow;
lastChange = "2015-10-23 07:09:38 +0000";
layers = (
{
layerId = "098F4D9A-293F-4750-B0F4-D0E702B92EEF";
name = "Bold Italic";
paths = (
{
closed = 1;
nodes = (
"242 -10 OFFCURVE",
"298 6 OFFCURVE",
"338 31 CURVE",
"343 0 LINE",
"553 0 LINE",
"653 474 LINE",
"415 474 LINE",
"410 449 LINE",
"390 469 OFFCURVE",
"354 484 OFFCURVE",
"305 484 CURVE SMOOTH",
"153 484 OFFCURVE",
"56 383 OFFCURVE",
"20 216 CURVE SMOOTH",
"15 190 OFFCURVE",
"12 167 OFFCURVE",
"12 146 CURVE SMOOTH",
"12 39 OFFCURVE",
"78 -10 OFFCURVE",
"184 -10 CURVE SMOOTH"
);
},
{
closed = 1;
nodes = (
"299 -213 LINE",
"329 -72 LINE",
"173 -72 LINE",
"143 -213 LINE"
);
},
{
closed = 1;
nodes = (
"281 163 OFFCURVE",
"266 169 OFFCURVE",
"266 197 CURVE SMOOTH",
"266 204 OFFCURVE",
"267 213 OFFCURVE",
"269 224 CURVE SMOOTH",
"281 281 OFFCURVE",
"303 311 OFFCURVE",
"335 311 CURVE SMOOTH",
"353 311 OFFCURVE",
"363 307 OFFCURVE",
"373 296 CURVE",
"348 178 LINE",
"336 169 OFFCURVE",
"321 163 OFFCURVE",
"303 163 CURVE SMOOTH"
);
},
{
closed = 1;
nodes = (
"312 522 LINE",
"407 629 LINE",
"461 522 LINE",
"622 522 LINE",
"493 738 LINE",
"352 738 LINE",
"132 522 LINE"
);
}
);
width = 587;
}
);
leftKerningGroup = a;
note = acircumflexdotbelow;
unicode = 1EAD;
},
{
glyphname = acircumflexgrave;
lastChange = "2015-10-23 07:09:38 +0000";
layers = (
{
layerId = "098F4D9A-293F-4750-B0F4-D0E702B92EEF";
name = "Bold Italic";
paths = (
{
closed = 1;
nodes = (
"242 -10 OFFCURVE",
"298 6 OFFCURVE",
"338 31 CURVE",
"343 0 LINE",
"553 0 LINE",
"653 474 LINE",
"415 474 LINE",
"410 449 LINE",
"390 469 OFFCURVE",
"354 484 OFFCURVE",
"305 484 CURVE SMOOTH",
"153 484 OFFCURVE",
"56 383 OFFCURVE",
"20 216 CURVE SMOOTH",
"15 190 OFFCURVE",
"12 167 OFFCURVE",
"12 146 CURVE SMOOTH",
"12 39 OFFCURVE",
"78 -10 OFFCURVE",
"184 -10 CURVE SMOOTH"
);
},
{
closed = 1;
nodes = (
"281 163 OFFCURVE",
"266 169 OFFCURVE",
"266 197 CURVE SMOOTH",
"266 204 OFFCURVE",
"267 213 OFFCURVE",
"269 224 CURVE SMOOTH",
"281 281 OFFCURVE",
"303 311 OFFCURVE",
"335 311 CURVE SMOOTH",
"353 311 OFFCURVE",
"363 307 OFFCURVE",
"373 296 CURVE",
"348 178 LINE",
"336 169 OFFCURVE",
"321 163 OFFCURVE",
"303 163 CURVE SMOOTH"
);
},
{
closed = 1;
nodes = (
"260 654 LINE",
"222 826 LINE",
"46 826 LINE",
"92 654 LINE"
);
},
{
closed = 1;
nodes = (
"326 522 LINE",
"398 598 LINE",
"435 522 LINE",
"620 522 LINE",
"499 690 LINE",
"324 690 LINE",
"130 522 LINE"
);
}
);
width = 587;
}
);
leftKerningGroup = a;
note = acircumflexgrave;
unicode = 1EA7;
},
{
glyphname = acircumflexhookabove;
lastChange = "2015-10-23 07:09:38 +0000";
layers = (
{
layerId = "098F4D9A-293F-4750-B0F4-D0E702B92EEF";
name = "Bold Italic";
paths = (
{
closed = 1;
nodes = (
"242 -10 OFFCURVE",
"298 6 OFFCURVE",
"338 31 CURVE",
"343 0 LINE",
"553 0 LINE",
"653 474 LINE",
"415 474 LINE",
"410 449 LINE",
"390 469 OFFCURVE",
"354 484 OFFCURVE",
"305 484 CURVE SMOOTH",
"153 484 OFFCURVE",
"56 383 OFFCURVE",
"20 216 CURVE SMOOTH",
"15 190 OFFCURVE",
"12 167 OFFCURVE",
"12 146 CURVE SMOOTH",
"12 39 OFFCURVE",
"78 -10 OFFCURVE",
"184 -10 CURVE SMOOTH"
);
},
{
closed = 1;
nodes = (
"281 163 OFFCURVE",
"266 169 OFFCURVE",
"266 197 CURVE SMOOTH",
"266 204 OFFCURVE",
"267 213 OFFCURVE",
"269 224 CURVE SMOOTH",
"281 281 OFFCURVE",
"303 311 OFFCURVE",
"335 311 CURVE SMOOTH",
"353 311 OFFCURVE",
"363 307 OFFCURVE",
"373 296 CURVE",
"348 178 LINE",
"336 169 OFFCURVE",
"321 163 OFFCURVE",
"303 163 CURVE SMOOTH"
);
},
{
closed = 1;
nodes = (
"326 522 LINE",
"395 598 LINE",
"435 522 LINE",
"616 522 LINE",
"495 690 LINE",
"320 690 LINE",
"126 522 LINE"
);
},
{
closed = 1;
nodes = (
"705 631 LINE",
"712 662 LINE",
"762 671 OFFCURVE",
"791 705 OFFCURVE",
"801 751 CURVE SMOOTH",
"802 756 OFFCURVE",
"803 762 OFFCURVE",
"803 767 CURVE SMOOTH",
"803 810 OFFCURVE",
"765 843 OFFCURVE",
"691 843 CURVE SMOOTH",
"641 843 OFFCURVE",
"601 838 OFFCURVE",
"574 831 CURVE",
"554 739 LINE",
"568 744 OFFCURVE",
"587 749 OFFCURVE",
"603 749 CURVE SMOOTH",
"623 749 OFFCURVE",
"634 747 OFFCURVE",
"634 737 CURVE SMOOTH",
"634 724 OFFCURVE",
"622 713 OFFCURVE",
"566 711 CURVE",
"549 631 LINE"
);
}
);
width = 587;
}
);
leftKerningGroup = a;
note = acircumflexhookabove;
unicode = 1EA9;
},
